<?xml version="1.0" encoding="utf-8"?>
<!-- Generator: Adobe Illustrator 22.0.1, SVG Export Plug-In . SVG Version: 6.00 Build 0)  -->
<svg version="1.1" id="logo-scanr-white" xmlns="http://www.w3.org/2000/svg" xmlns:xlink="http://www.w3.org/1999/xlink" x="0px"
	 y="0px" viewBox="0 0 757.7 215.3" style="enable-background:new 0 0 757.7 215.3;" xml:space="preserve">
<style type="text/css">
	.st0{fill:#FFFFFF;}
	.st1{fill:#3778BB;}
</style>
<g>
	<g>
		<path class="st0" d="M341.9,116.5c-0.5,0.8-1.1,1.5-1.9,2.1c-0.8,0.4-1.7,0.6-2.6,0.6c-1.2,0-2.4-0.4-3.5-0.9l-4.4-1.9
			c-1.8-0.8-3.7-1.5-5.6-2.1c-2.4-0.7-5-1-7.5-0.9c-3.7-0.2-7.4,0.8-10.6,2.8c-2.4,1.6-3.8,4.3-3.8,7.2c0,1.9,0.7,3.7,2,5.1
			c1.5,1.5,3.3,2.7,5.2,3.6c2.4,1.1,4.9,2.1,7.4,2.8c2.7,0.8,5.6,1.7,8.5,2.7c2.9,1,5.7,2.1,8.5,3.3c2.7,1.2,5.2,2.8,7.4,4.7
			c4.7,4.2,7.3,10.3,7.1,16.6c0.1,4.3-0.7,8.6-2.4,12.5c-1.6,3.9-4.1,7.4-7.3,10.2c-3.5,2.9-7.5,5.2-11.8,6.5
			c-8.3,2.5-17.1,3-25.6,1.5c-3-0.5-6-1.3-8.9-2.4c-2.7-1-5.3-2.3-7.8-3.8c-2.3-1.3-4.4-2.8-6.4-4.6l5.2-8.6c0.6-1,1.4-1.8,2.4-2.4
			c1.1-0.6,2.3-0.9,3.5-0.8c1.4,0,2.8,0.4,4,1.2c1.2,0.8,2.7,1.6,4.4,2.6c1.9,1,3.8,1.9,5.9,2.5c2.7,0.9,5.6,1.3,8.5,1.2
			c2.3,0,4.7-0.3,6.9-1c1.7-0.5,3.3-1.4,4.7-2.5c1.2-1,2.1-2.2,2.7-3.6c0.6-1.3,0.9-2.8,0.9-4.3c0.1-2-0.6-3.9-2-5.4
			c-1.5-1.5-3.2-2.8-5.2-3.6c-2.4-1.1-4.9-2.1-7.4-2.8c-2.8-0.8-5.6-1.7-8.5-2.7c-2.9-1-5.8-2.1-8.5-3.4c-2.7-1.3-5.2-3-7.4-5
			c-2.2-2.1-4-4.6-5.2-7.4c-1.4-3.4-2.1-7-2-10.7c0-3.8,0.8-7.5,2.4-11c1.5-3.5,3.8-6.6,6.7-9.1c3.3-2.8,7-4.9,11.1-6.3
			c5-1.7,10.1-2.5,15.4-2.4c6.1-0.1,12.1,1,17.7,3.2c5,1.9,9.5,4.8,13.3,8.5L341.9,116.5z"/>
		<path class="st0" d="M428.6,118.1c-0.6,0.8-1.2,1.4-2,2c-0.8,0.5-1.8,0.8-2.8,0.7c-1.2,0-2.4-0.4-3.4-1.1c-1.1-0.7-2.4-1.5-4-2.4
			c-1.7-1-3.6-1.8-5.5-2.4c-2.5-0.8-5.2-1.1-7.8-1.1c-3.6-0.1-7.2,0.7-10.5,2.2c-3,1.4-5.5,3.5-7.5,6.2c-2.1,2.9-3.6,6.3-4.5,9.8
			c-1,4.2-1.5,8.6-1.5,13c-0.1,4.5,0.5,9,1.6,13.4c0.9,3.6,2.5,6.9,4.7,9.9c1.9,2.6,4.4,4.7,7.3,6.1c3,1.4,6.4,2.1,9.7,2.1
			c3,0.1,5.9-0.3,8.8-1.3c2-0.8,3.9-1.7,5.6-2.9c1.6-1.1,2.9-2.1,4-2.9c1.1-0.9,2.4-1.3,3.8-1.3c1.7-0.1,3.2,0.7,4.1,2.1l6.5,8.3
			c-2.4,2.8-5.1,5.3-8.2,7.4c-2.9,1.9-5.9,3.5-9.1,4.7c-3.2,1.2-6.4,2-9.8,2.5c-3.3,0.5-6.6,0.7-10,0.7c-5.6,0-11.2-1.1-16.4-3.3
			c-5.1-2.1-9.7-5.4-13.4-9.5c-4-4.4-7.1-9.6-9.1-15.3c-2.3-6.6-3.5-13.6-3.3-20.6c-0.1-6.6,0.8-13.1,2.8-19.3
			c1.8-5.7,4.8-10.9,8.8-15.3c3.9-4.4,8.8-7.8,14.2-10.1c6.2-2.5,12.9-3.8,19.6-3.7c6.3-0.1,12.6,1,18.5,3.4
			c5.3,2.3,10.1,5.6,14.2,9.7L428.6,118.1z"/>
		<path class="st0" d="M520.9,192.3h-10.2c-1.7,0.1-3.5-0.3-5-1c-1.4-0.9-2.4-2.4-2.7-4l-2-6.7c-2.3,2-4.6,3.9-7.1,5.6
			c-2.2,1.6-4.6,2.9-7.1,4.1c-2.5,1.1-5.1,1.9-7.8,2.4c-3,0.6-6.1,0.9-9.2,0.8c-3.7,0-7.4-0.5-11-1.6c-3.2-1-6.1-2.6-8.7-4.7
			c-2.5-2.2-4.4-4.9-5.6-8c-1.4-3.5-2.1-7.3-2-11.2c0-3.7,1-7.3,2.8-10.5c2.2-3.9,5.4-7.2,9.3-9.5c5.4-3.2,11.2-5.6,17.4-7
			c8.8-2,17.9-2.9,26.9-2.8v-5.4c0-6.3-1.3-11-4-14.2c-3-3.2-7.2-4.9-11.6-4.6c-3.1-0.1-6.2,0.3-9.2,1.3c-2.2,0.8-4.3,1.7-6.4,2.9
			c-1.8,1.1-3.5,2-5,2.9c-1.5,0.9-3.3,1.3-5,1.3c-1.4,0-2.8-0.4-4-1.2c-1.1-0.8-2-1.8-2.7-2.9l-4.1-7.2
			c10.6-9.8,24.7-15.2,39.2-14.9c5-0.1,10,0.8,14.7,2.7c4.2,1.7,7.9,4.3,11,7.5c3.1,3.4,5.4,7.4,6.7,11.7c1.6,4.7,2.4,9.7,2.4,14.7
			V192.3z M476.9,178.1c2.2,0,4.3-0.2,6.4-0.6c1.9-0.4,3.8-1,5.5-1.9c1.8-0.9,3.5-1.9,5-3.1c1.7-1.3,3.4-2.8,4.9-4.4v-15.7
			c-5.6-0.1-11.1,0.3-16.6,1.3c-3.7,0.6-7.3,1.7-10.7,3.2c-2.2,1-4.2,2.5-5.6,4.5c-1.1,1.7-1.7,3.6-1.7,5.6c-0.3,3.3,1,6.5,3.5,8.6
			C470.4,177.4,473.7,178.3,476.9,178.1L476.9,178.1z"/>
		<path class="st0" d="M539.3,192.3V98.2h13.9c2.6-0.1,5,1.6,5.7,4.1l1.6,7.4c1.9-1.9,3.9-3.7,6.1-5.3c2.1-1.6,4.3-3,6.7-4.1
			c2.4-1.2,5-2.1,7.6-2.7c2.9-0.6,5.8-0.9,8.8-0.9c4.7-0.1,9.4,0.8,13.7,2.6c3.8,1.6,7.3,4.2,10,7.3c2.8,3.3,4.8,7.2,6.1,11.3
			c1.4,4.7,2.1,9.6,2.1,14.4v59.9h-22.7v-59.9c0.3-4.8-1.1-9.5-4-13.4c-3.1-3.3-7.5-5.1-12-4.7c-3.8,0-7.6,0.9-11,2.7
			c-3.6,1.9-6.9,4.3-9.7,7.2v68.1H539.3z"/>
		<path class="st0" d="M666.8,140.5v51.9h-24.7V59.7h40.5c7.9-0.2,15.7,0.8,23.3,2.8c5.8,1.5,11.2,4.2,15.9,7.8
			c4,3.2,7.1,7.3,9.1,12.1c3.5,9,3.8,18.9,0.9,28c-1.3,3.9-3.2,7.6-5.7,10.8c-2.6,3.3-5.7,6.2-9.2,8.5c-3.8,2.5-8,4.5-12.4,5.9
			c3.2,1.9,6,4.5,8.1,7.6l33.1,49h-22.2c-1.9,0.1-3.8-0.4-5.5-1.3c-1.5-0.9-2.8-2.2-3.7-3.7l-27.9-42.5c-0.8-1.4-2-2.6-3.4-3.4
			c-1.7-0.8-3.7-1.1-5.6-1H666.8z M666.8,122.8h15.4c4.1,0.1,8.2-0.5,12.2-1.8c3.1-1,6-2.6,8.5-4.7c2.2-2,4-4.5,5.1-7.4
			c1.1-3,1.7-6.1,1.7-9.3c0.3-5.9-2.1-11.7-6.7-15.5c-4.4-3.6-11.2-5.4-20.3-5.4h-15.9V122.8z"/>
	</g>
	<path class="st1" d="M130.8,13.2c-55.6,0-100.6,45.1-100.6,100.7c0,25.7,9.8,50.4,27.4,69H204c38.1-40.4,36.3-104.1-4.1-142.3
		C181.2,23.1,156.5,13.2,130.8,13.2z"/>
	<polygon class="st0" points="241.8,177 241.8,183 19.8,183 19.8,177 7.9,177 7.9,200.7 19.8,200.7 19.8,194.8 241.8,194.8 
		241.8,200.7 253.7,200.7 253.7,177 	"/>
	<path class="st0" d="M202.3,87c-4.1,0-7.3,3.3-7.3,7.4c0,0.6,0.1,1.2,0.2,1.7l-39.8,20.4c-2.2-3.3-5.6-5.5-9.5-6.3l2.7-40
		c6.4-0.6,11.1-6.4,10.5-12.8c-0.6-6.4-6.4-11.1-12.8-10.5c-6.4,0.6-11.1,6.4-10.5,12.8c0.5,5.1,4.2,9.2,9.2,10.3l-2.7,40
		c-3.5,0.2-6.8,1.7-9.3,4.1L79.9,69.6c0.7-1.3,1.1-2.7,1.1-4.2c0-5-3.9-9-8.9-9.1c-5,0-9,3.9-9.1,8.9c0,5,3.9,9,8.9,9.1
		c2.1,0,4.1-0.7,5.7-2l53.1,44.3c-2.9,4.5-3.2,10.2-0.7,14.9L93.4,157c-4.6-4.9-12.3-5.2-17.2-0.6s-5.2,12.3-0.6,17.2
		c4.6,4.9,12.3,5.2,17.2,0.6c3.9-3.6,5-9.4,2.7-14.3l36.7-25.3c4.9,5.5,13.2,6.6,19.4,2.4l20.3,23.3c-3,4-2.2,9.7,1.8,12.7
		c4,3,9.7,2.2,12.7-1.8c3-4,2.2-9.7-1.8-12.7c-2.9-2.2-6.8-2.4-10-0.6l-20.3-23.3c3.7-4.1,4.8-9.9,2.9-15l39.8-20.4
		c2.7,3.1,7.3,3.4,10.4,0.7c3.1-2.7,3.4-7.3,0.7-10.4C206.4,87.8,204.4,86.9,202.3,87L202.3,87z"/>
</g>
</svg>
