<?xml version="1.0" encoding="utf-8"?>
<!-- Generator: Adobe Illustrator 22.0.1, SVG Export Plug-In . SVG Version: 6.00 Build 0)  -->
<svg version="1.1" id="logo-scanr-white" xmlns="http://www.w3.org/2000/svg" xmlns:xlink="http://www.w3.org/1999/xlink" x="0px"
	 y="0px" viewBox="0 0 261.7 215.3" style="enable-background:new 0 0 261.7 215.3;" xml:space="preserve">
<style type="text/css">
	.st0{fill:#3778BB;}
	.st1{fill:#FFFFFF;}
</style>
<g>
	<path class="st0" d="M130.8,13.2c-55.6,0-100.6,45.1-100.6,100.7c0,25.7,9.8,50.4,27.4,69H204c38.1-40.4,36.3-104.1-4.1-142.3
		C181.2,23.1,156.5,13.2,130.8,13.2z"/>
	<polygon class="st1" points="241.8,177 241.8,183 19.8,183 19.8,177 7.9,177 7.9,200.7 19.8,200.7 19.8,194.8 241.8,194.8 
		241.8,200.7 253.7,200.7 253.7,177 	"/>
	<path class="st1" d="M202.3,87c-4.1,0-7.3,3.3-7.3,7.4c0,0.6,0.1,1.2,0.2,1.7l-39.8,20.4c-2.2-3.3-5.6-5.5-9.5-6.3l2.7-40
		c6.4-0.6,11.1-6.4,10.5-12.8c-0.6-6.4-6.4-11.1-12.8-10.5c-6.4,0.6-11.1,6.4-10.5,12.8c0.5,5.1,4.2,9.2,9.2,10.3l-2.7,40
		c-3.5,0.2-6.8,1.7-9.3,4.1L79.9,69.6c0.7-1.3,1.1-2.7,1.1-4.2c0-5-3.9-9-8.9-9.1c-5,0-9,3.9-9.1,8.9c0,5,3.9,9,8.9,9.1
		c2.1,0,4.1-0.7,5.7-2l53.1,44.3c-2.9,4.5-3.2,10.2-0.7,14.9L93.4,157c-4.6-4.9-12.3-5.2-17.2-0.6s-5.2,12.3-0.6,17.2
		c4.6,4.9,12.3,5.2,17.2,0.6c3.9-3.6,5-9.4,2.7-14.3l36.7-25.3c4.9,5.5,13.2,6.6,19.4,2.4l20.3,23.3c-3,4-2.2,9.7,1.8,12.7
		c4,3,9.7,2.2,12.7-1.8c3-4,2.2-9.7-1.8-12.7c-2.9-2.2-6.8-2.4-10-0.6l-20.3-23.3c3.7-4.1,4.8-9.9,2.9-15l39.8-20.4
		c2.7,3.1,7.3,3.4,10.4,0.7c3.1-2.7,3.4-7.3,0.7-10.4C206.4,87.8,204.4,86.9,202.3,87L202.3,87z"/>
</g>
</svg>
