<svg xmlns="http://www.w3.org/2000/svg" width="130" height="130" viewBox="0 0 130 130">
  <g id="icon-focus-histoTop">
    <g>
      <g>
        <g>
          <path d="M16.25,22.75v-5.5H111a2.75,2.75,0,0,1,0,5.5Z" fill="#ffd138"/>
          <path d="M111,18.5a1.5,1.5,0,0,1,0,3H17.5v-3H111m0-2.5H15v8h96a4,4,0,0,0,0-8Z" fill="#fff"/>
        </g>
        <g>
          <path d="M16.25,32.75v-5.5H91a2.75,2.75,0,0,1,0,5.5Z" fill="#ffd138"/>
          <path d="M91,28.5a1.5,1.5,0,0,1,0,3H17.5v-3H91M91,26H15v8H91a4,4,0,0,0,0-8Z" fill="#fff"/>
        </g>
        <g>
          <path d="M16.25,42.75v-5.5H87a2.75,2.75,0,0,1,0,5.5Z" fill="#ffd138"/>
          <path d="M87,38.5a1.5,1.5,0,0,1,0,3H17.5v-3H87M87,36H15v8H87a4,4,0,0,0,0-8Z" fill="#fff"/>
        </g>
        <g>
          <path d="M16.25,52.75v-5.5H77a2.75,2.75,0,0,1,0,5.5Z" fill="#ffd138"/>
          <path d="M77,48.5a1.5,1.5,0,0,1,0,3H17.5v-3H77M77,46H15v8H77a4,4,0,0,0,0-8Z" fill="#fff"/>
        </g>
        <g>
          <path d="M16.25,62.75v-5.5H64a2.75,2.75,0,0,1,0,5.5Z" fill="#ffd138"/>
          <path d="M64,58.5a1.5,1.5,0,0,1,0,3H17.5v-3H64M64,56H15v8H64a4,4,0,0,0,0-8Z" fill="#fff"/>
        </g>
        <g>
          <path d="M16.25,72.75v-5.5H59a2.75,2.75,0,0,1,0,5.5Z" fill="#ffd138"/>
          <path d="M59,68.5a1.5,1.5,0,1,1,0,3H17.5v-3H59M59,66H15v8H59a4,4,0,0,0,4-4h0a4,4,0,0,0-4-4Z" fill="#fff"/>
        </g>
        <g>
          <path d="M16.25,82.75v-5.5H54a2.75,2.75,0,0,1,0,5.5Z" fill="#ffd138"/>
          <path d="M54,78.5a1.5,1.5,0,1,1,0,3H17.5v-3H54M54,76H15v8H54a4,4,0,0,0,4-4h0a4,4,0,0,0-4-4Z" fill="#fff"/>
        </g>
        <g>
          <path d="M16.25,92.75v-5.5H44a2.75,2.75,0,0,1,0,5.5Z" fill="#ffd138"/>
          <path d="M44,88.5a1.5,1.5,0,1,1,0,3H17.5v-3H44M44,86H15v8H44a4,4,0,0,0,4-4h0a4,4,0,0,0-4-4Z" fill="#fff"/>
        </g>
        <g>
          <path d="M16.25,102.75v-5.5H41a2.75,2.75,0,0,1,0,5.5Z" fill="#ffd138"/>
          <path d="M41,98.5a1.5,1.5,0,1,1,0,3H17.5v-3H41M41,96H15v8H41a4,4,0,0,0,4-4h0a4,4,0,0,0-4-4Z" fill="#fff"/>
        </g>
        <g>
          <path d="M16.25,112.75v-5.5H31a2.75,2.75,0,0,1,0,5.5Z" fill="#ffd138"/>
          <path d="M31,108.5a1.5,1.5,0,1,1,0,3H17.5v-3H31m0-2.5H15v8H31a4,4,0,0,0,4-4h0a4,4,0,0,0-4-4Z" fill="#fff"/>
        </g>
      </g>
      <g>
        <path d="M15,16h96a4,4,0,0,1,4,4v0a4,4,0,0,1-4,4H15a0,0,0,0,1,0,0V16A0,0,0,0,1,15,16Z" fill="none" stroke="#ffd138" stroke-miterlimit="10"/>
        <path d="M15,26H91a4,4,0,0,1,4,4v0a4,4,0,0,1-4,4H15a0,0,0,0,1,0,0V26A0,0,0,0,1,15,26Z" fill="none" stroke="#ffd138" stroke-miterlimit="10"/>
        <path d="M15,36H87a4,4,0,0,1,4,4v0a4,4,0,0,1-4,4H15a0,0,0,0,1,0,0V36A0,0,0,0,1,15,36Z" fill="none" stroke="#ffd138" stroke-miterlimit="10"/>
        <path d="M15,46H77a4,4,0,0,1,4,4v0a4,4,0,0,1-4,4H15a0,0,0,0,1,0,0V46A0,0,0,0,1,15,46Z" fill="none" stroke="#ffd138" stroke-miterlimit="10"/>
        <path d="M15,56H64a4,4,0,0,1,4,4v0a4,4,0,0,1-4,4H15a0,0,0,0,1,0,0V56A0,0,0,0,1,15,56Z" fill="none" stroke="#ffd138" stroke-miterlimit="10"/>
        <path d="M15,66H59a4,4,0,0,1,4,4v0a4,4,0,0,1-4,4H15a0,0,0,0,1,0,0V66A0,0,0,0,1,15,66Z" fill="none" stroke="#ffd138" stroke-miterlimit="10"/>
        <path d="M15,76H54a4,4,0,0,1,4,4v0a4,4,0,0,1-4,4H15a0,0,0,0,1,0,0V76A0,0,0,0,1,15,76Z" fill="none" stroke="#ffd138" stroke-miterlimit="10"/>
        <path d="M15,86H44a4,4,0,0,1,4,4v0a4,4,0,0,1-4,4H15a0,0,0,0,1,0,0V86A0,0,0,0,1,15,86Z" fill="none" stroke="#ffd138" stroke-miterlimit="10"/>
        <path d="M15,96H41a4,4,0,0,1,4,4v0a4,4,0,0,1-4,4H15a0,0,0,0,1,0,0V96A0,0,0,0,1,15,96Z" fill="none" stroke="#ffd138" stroke-miterlimit="10"/>
        <path d="M15,106H31a4,4,0,0,1,4,4v0a4,4,0,0,1-4,4H15a0,0,0,0,1,0,0v-8A0,0,0,0,1,15,106Z" fill="none" stroke="#ffd138" stroke-miterlimit="10"/>
      </g>
    </g>
  </g>
</svg>
