<svg xmlns="http://www.w3.org/2000/svg" width="100" height="100" viewBox="0 0 100 100">
  <title>icon-fiche-wikipedia</title>
  <g id="icon-fiche-wikipedia">
    <g>
      <g>
        <path d="M56.68,66.23a1.75,1.75,0,0,1-1.61-1.07L50.75,55l-.89,1.71c-2,3.82-3.46,6.68-4.33,8.52a1.75,1.75,0,0,1-1.58,1H42.9a1.75,1.75,0,0,1-1.61-1.07c-1.08-2.57-2.76-6.44-5-11.5s-4-9-5-11.65a10,10,0,0,0-1.9-2.62c-1.18-1.14-1.73-1.15-1.73-1.15a1.83,1.83,0,0,1-1.85-1.75v-1a1.75,1.75,0,0,1,1.75-1.75H38.89a1.74,1.74,0,0,1,1,.33,1.74,1.74,0,0,1,1-.33h10a1.74,1.74,0,0,1,1,.33,1.74,1.74,0,0,1,1-.33H61.6a1.74,1.74,0,0,1,.95.28,1.75,1.75,0,0,1,.95-.28l9,.07a1.75,1.75,0,0,1,1.74,1.75v.84a1.75,1.75,0,0,1-1.71,1.75A2.44,2.44,0,0,0,70.17,40l-1.77,4c-4.18,9.74-7.25,16.87-9.14,21.17a1.75,1.75,0,0,1-1.6,1ZM40.57,45.29q2.73,6.4,4.21,9.81L48,49l-1.69-3.8c-1.54-3.49-2.53-5.67-2.93-6.49a1.68,1.68,0,0,0-.72-.34,7,7,0,0,0-1.71-.15,1.74,1.74,0,0,1-1.07-.36,1.74,1.74,0,0,1-.87.29,3.24,3.24,0,0,0-1.36.37ZM55.3,47.37c.47,1.07,1.44,3.27,2.91,6.56h0l6.61-15.29a2.12,2.12,0,0,0-.35-.19,2.55,2.55,0,0,0-1-.2,1.74,1.74,0,0,1-1-.32,1.75,1.75,0,0,1-.79.24,3.84,3.84,0,0,0-1.6.47,2.9,2.9,0,0,0-1.05.9Zm-3.14-6.19.16.35c.63-1.31,1.14-2.4,1.52-3.24a8.94,8.94,0,0,0-.94,0,1.75,1.75,0,0,1-1-.34,1.75,1.75,0,0,1-.82.27l-.25,0Z" fill="#fff"/>
        <path d="M63.5,35.52l9,.07v.84a4.19,4.19,0,0,0-3.94,2.88l-1.76,4q-6.33,14.77-9.14,21.16h-1L50.91,50.91l-2.6,5q-3,5.77-4.36,8.58H42.9q-1.62-3.87-5-11.53t-5-11.6a11.68,11.68,0,0,0-2.25-3.16,4.86,4.86,0,0,0-3-1.69h-.1v-1H38.89v.91a5,5,0,0,0-2.32.7q-1.2.77-.7,1.76L39,46q4.71,11,5.7,13.15.63-1.27,3.16-6l2.11-4q-.35-.77-2-4.57-2.46-5.55-3-6.68a2.89,2.89,0,0,0-1.76-1.12,8.72,8.72,0,0,0-2.18-.21v-1h10v.91a3.53,3.53,0,0,0-1.79.53.91.91,0,0,0-.25,1.3l1.69,3.66q1.05,2.39,1.69,3.73l1.48-3Q55,40,55.63,38.54q.49-1.05-.18-1.55a4.65,4.65,0,0,0-2.57-.49l.07-1H61.6v.91a5.6,5.6,0,0,0-2.32.67,4.61,4.61,0,0,0-1.76,1.58l-4.15,8.65q.28.7,3.23,7.31l1.62,3.66L66.8,38.47a2.74,2.74,0,0,0-1.62-1.62,4.36,4.36,0,0,0-1.69-.35v-1m0-3.5a3.5,3.5,0,0,0-.95.13,3.5,3.5,0,0,0-1-.13H53a3.5,3.5,0,0,0-1,.15,3.5,3.5,0,0,0-1-.15h-10a3.5,3.5,0,0,0-1,.15,3.5,3.5,0,0,0-1-.15H27.5a3.5,3.5,0,0,0-3.5,3.5v1A3.5,3.5,0,0,0,27.29,40a5.18,5.18,0,0,1,.83.67,8.34,8.34,0,0,1,1.52,2.09c1.09,2.65,2.78,6.56,5,11.63s3.93,8.91,5,11.46A3.5,3.5,0,0,0,42.9,68H44a3.5,3.5,0,0,0,3.16-2c.74-1.56,1.91-3.87,3.48-6.88l2.87,6.75A3.5,3.5,0,0,0,56.68,68h1a3.5,3.5,0,0,0,3.2-2.09c1.89-4.29,5-11.42,9.15-21.19l1.75-4c.33-.78.52-.78.82-.79A3.5,3.5,0,0,0,76,36.43v-.84a3.5,3.5,0,0,0-3.47-3.5l-9-.07Zm-3,8.45a1.32,1.32,0,0,1,.37-.28,2.13,2.13,0,0,1,.88-.27,3.52,3.52,0,0,0,.59-.09l-4.21,9.74-1-2.18,3.33-6.94ZM44.94,51.06l-2.76-6.44-2.05-4.71a3.51,3.51,0,0,0,.8.09,7.78,7.78,0,0,1,1.12.06c.4.87,1.18,2.57,2.64,5.87L46,49l-1.1,2.09Z" fill="#119fd4"/>
        <path d="M63.5,35.52l9,.07v.84a4.19,4.19,0,0,0-3.94,2.88l-1.76,4q-6.33,14.77-9.14,21.16h-1L50.91,50.91l-2.6,5q-3,5.77-4.36,8.58H42.9q-1.62-3.87-5-11.53t-5-11.6a11.68,11.68,0,0,0-2.25-3.16,4.86,4.86,0,0,0-3-1.69h-.1v-1H38.89v.91a5,5,0,0,0-2.32.7q-1.2.77-.7,1.76L39,46q4.71,11,5.7,13.15.63-1.27,3.16-6l2.11-4q-.35-.77-2-4.57-2.46-5.55-3-6.68a2.89,2.89,0,0,0-1.76-1.12,8.72,8.72,0,0,0-2.18-.21v-1h10v.91a3.53,3.53,0,0,0-1.79.53.91.91,0,0,0-.25,1.3l1.69,3.66q1.05,2.39,1.69,3.73l1.48-3Q55,40,55.63,38.54q.49-1.05-.18-1.55a4.65,4.65,0,0,0-2.57-.49l.07-1H61.6v.91a5.6,5.6,0,0,0-2.32.67,4.61,4.61,0,0,0-1.76,1.58l-4.15,8.65q.28.7,3.23,7.31l1.62,3.66L66.8,38.47a2.74,2.74,0,0,0-1.62-1.62,4.36,4.36,0,0,0-1.69-.35v-1m0-2.5a2.5,2.5,0,0,0-.95.19,2.49,2.49,0,0,0-1-.19H53a2.49,2.49,0,0,0-1,.22,2.49,2.49,0,0,0-1-.22h-10a2.49,2.49,0,0,0-1,.22,2.49,2.49,0,0,0-1-.22H27.5a2.5,2.5,0,0,0-2.5,2.5v1A2.5,2.5,0,0,0,27.5,39h0a4.33,4.33,0,0,1,1.29,1,9.3,9.3,0,0,1,1.73,2.39c1.08,2.64,2.78,6.55,5,11.62s3.94,8.93,5,11.48A2.5,2.5,0,0,0,42.9,67H44a2.5,2.5,0,0,0,2.26-1.43c.87-1.83,2.32-4.69,4.32-8.49l.16-.3,3.69,8.7A2.5,2.5,0,0,0,56.68,67h1A2.5,2.5,0,0,0,60,65.49c1.88-4.29,5-11.41,9.15-21.19l1.75-4c.53-1.26,1.14-1.37,1.71-1.39A2.5,2.5,0,0,0,75,36.43v-.84a2.5,2.5,0,0,0-2.48-2.5l-9-.07ZM38.63,39l.4-.05a2.5,2.5,0,0,0,.8-.18,2.49,2.49,0,0,0,1.1.25,6.29,6.29,0,0,1,1.52.12,1.85,1.85,0,0,1,.32.12c.44.92,1.39,3,2.84,6.29L47.15,49l-1.54,2.93-.76,1.44q-1.39-3.2-3.59-8.36l-2.63-6Zm21.06,1a2.2,2.2,0,0,1,.76-.63,3.1,3.1,0,0,1,1.29-.38,2.5,2.5,0,0,0,.72-.15,2.49,2.49,0,0,0,1,.22,1.63,1.63,0,0,1,.34,0l-5.64,13c-1.08-2.43-1.72-3.86-2.08-4.68l3.58-7.45Zm-7.37-.17-.45-1a2.5,2.5,0,0,0,.81.21l-.36.77Z" fill="#fff"/>
      </g>
      <path d="M72.5,36.43a4.19,4.19,0,0,0-3.94,2.88l-1.76,4q-6.33,14.77-9.14,21.16h-1L50.91,50.91l-2.6,5q-3,5.77-4.36,8.58H42.9q-1.62-3.87-5-11.53t-5-11.6a11.68,11.68,0,0,0-2.25-3.16q-1.83-1.76-3.09-1.69v-1H38.89v.91a5,5,0,0,0-2.32.7q-1.2.77-.7,1.76L39,46q4.71,11,5.7,13.15.63-1.27,3.16-6l2.11-4q-.35-.77-2-4.57-2.46-5.55-3-6.68a2.89,2.89,0,0,0-1.76-1.12,8.72,8.72,0,0,0-2.18-.21v-1h10v.91a3.53,3.53,0,0,0-1.79.53.91.91,0,0,0-.25,1.3l1.69,3.66q1.05,2.39,1.69,3.73l1.48-3Q55,40,55.63,38.54q.49-1.05-.18-1.55a4.65,4.65,0,0,0-2.57-.49l.07-1H61.6v.91a5.6,5.6,0,0,0-2.32.67,4.61,4.61,0,0,0-1.76,1.58l-4.15,8.65q.28.7,3.23,7.31l1.62,3.66L66.8,38.47a2.74,2.74,0,0,0-1.62-1.62,4.36,4.36,0,0,0-1.69-.35v-1l9,.07Z" fill="#119fd4"/>
    </g>
  </g>
</svg>
