<svg xmlns="http://www.w3.org/2000/svg" width="100" height="100" viewBox="0 0 100 100">
  <title>icon-fiche-financement</title>
  <g id="icon-fiche-financement">
    <g>
      <g>
        <g>
          <rect x="26.08" y="38" width="47.83" height="24" fill="#119fd4"/>
          <path d="M72.92,39V61H27.08V39H72.92m2-2H25.08V63H74.92V37Z" fill="#fff"/>
        </g>
        <path d="M33.21,37a8.12,8.12,0,0,1-8.13,8.13V37Z" fill="#fff"/>
        <path d="M33.21,63a8.12,8.12,0,0,0-8.13-8.12V63Z" fill="#fff"/>
        <path d="M66.79,37a8.12,8.12,0,0,0,8.13,8.13V37Z" fill="#fff"/>
        <path d="M66.79,63a8.12,8.12,0,0,1,8.13-8.12V63Z" fill="#fff"/>
        <rect x="25.08" y="37" width="49.83" height="26" fill="none" stroke="#119fd4" stroke-linecap="round" stroke-linejoin="round"/>
      </g>
      <circle cx="50" cy="50" r="7.04" fill="#fff"/>
    </g>
  </g>
</svg>
