<svg xmlns="http://www.w3.org/2000/svg" width="100" height="100" viewBox="0 0 100 100">
  <title>icon-fiche-expert</title>
  <g id="icon-fiche-expert">
    <g>
      <g>
        <polygon points="72.57 64.05 62.67 62.64 64.09 72.54 47.12 55.57 55.6 47.08 72.57 64.05" fill="#fff" stroke="#119fd4" stroke-linecap="round" stroke-linejoin="round"/>
        <g>
          <g>
            <path d="M43,60.84a2.52,2.52,0,0,0-2.45-2,2.49,2.49,0,0,0-1.67.65l-.5.46.07-.67a2.5,2.5,0,0,0-3.51-2.55l-.62.28.28-.62a2.5,2.5,0,0,0-2.28-3.53H32l-.67.07.45-.5a2.5,2.5,0,0,0-1.34-4.13l-.66-.14.59-.34a2.5,2.5,0,0,0,0-4.34l-.59-.34.66-.14a2.5,2.5,0,0,0,1.34-4.13l-.46-.5.67.07.28,0A2.5,2.5,0,0,0,34.59,35l-.28-.62.62.28a2.5,2.5,0,0,0,3.51-2.55l-.07-.67.5.46a2.49,2.49,0,0,0,1.67.65,2.51,2.51,0,0,0,2.45-2l.14-.66.34.59a2.5,2.5,0,0,0,4.34,0l.34-.59.14.66a2.51,2.51,0,0,0,2.45,2,2.49,2.49,0,0,0,1.67-.65l.5-.46-.07.67a2.5,2.5,0,0,0,3.51,2.55l.62-.28-.28.62A2.5,2.5,0,0,0,59,38.49l.28,0,.67-.07-.45.5A2.5,2.5,0,0,0,60.81,43l.66.14-.59.34a2.5,2.5,0,0,0,0,4.34l.59.34-.66.14a2.5,2.5,0,0,0-1.34,4.13l.46.5-.67-.07H59a2.5,2.5,0,0,0-2.28,3.53L57,57l-.62-.28a2.5,2.5,0,0,0-3.51,2.55l.07.67-.5-.45a2.49,2.49,0,0,0-1.68-.65,2.52,2.52,0,0,0-2.45,2l-.14.66-.34-.59a2.5,2.5,0,0,0-4.34,0l-.34.59Z" fill="#119fd4"/>
            <path d="M44.88,28.87h0m5.23.58h0m4.79,2.17h0m-7.19,1a4,4,0,0,0,3.93,1.28A4,4,0,0,0,55,36.33a4,4,0,0,0,2.43,3.35,4,4,0,0,0,1.28,3.93,4,4,0,0,0,0,4.14,4,4,0,0,0-1.28,3.93A4,4,0,0,0,55,55a4,4,0,0,0-3.34,2.43,4,4,0,0,0-3.93,1.28,4,4,0,0,0-4.14,0,4,4,0,0,0-3.93-1.28A4,4,0,0,0,36.3,55a4,4,0,0,0-2.43-3.35,4,4,0,0,0-1.28-3.93,4,4,0,0,0,0-4.14,4,4,0,0,0,1.28-3.93,4,4,0,0,0,2.43-3.35,4,4,0,0,0,3.34-2.43,4,4,0,0,0,3.93-1.28,4,4,0,0,0,4.14,0m11.08,2.56h0m2.6,4.58h0m-13-12.29a1,1,0,0,0-.86.5l-1,1.73a1,1,0,0,1-1.74,0l-1-1.73a1,1,0,0,0-.86-.5,1,1,0,0,0-1,.8l-.41,2a1,1,0,0,1-1,.8,1,1,0,0,1-.67-.26L38.4,29.41a1,1,0,0,0-.66-.26,1,1,0,0,0-1,1.11l.22,2a1,1,0,0,1-1.4,1l-1.82-.82a1,1,0,0,0-1.32,1.32l.82,1.82A1,1,0,0,1,32.32,37h-.11l-2-.22h-.12a1,1,0,0,0-.73,1.67l1.34,1.48a1,1,0,0,1-.54,1.65l-2,.41a1,1,0,0,0-.29,1.85l1.73,1a1,1,0,0,1,0,1.74l-1.73,1a1,1,0,0,0,.29,1.85l2,.41a1,1,0,0,1,.54,1.65l-1.34,1.48a1,1,0,0,0,.73,1.67h.12l2-.22h.11a1,1,0,0,1,.91,1.41l-.82,1.82a1,1,0,0,0,1.32,1.32l1.82-.82a1,1,0,0,1,1.4,1l-.22,2a1,1,0,0,0,1,1.11,1,1,0,0,0,.66-.26l1.48-1.34a1,1,0,0,1,.67-.26,1,1,0,0,1,1,.8l.41,2a1,1,0,0,0,1,.8,1,1,0,0,0,.86-.5l1-1.73a1,1,0,0,1,1.74,0l1,1.73a1,1,0,0,0,.86.5,1,1,0,0,0,1-.8l.41-2a1,1,0,0,1,1-.8,1,1,0,0,1,.67.26l1.48,1.34a1,1,0,0,0,.66.26,1,1,0,0,0,1-1.11l-.22-2a1,1,0,0,1,1.4-1l1.82.82a1,1,0,0,0,1.32-1.32l-.82-1.82A1,1,0,0,1,59,54.36h.11l2,.22h.12a1,1,0,0,0,.73-1.67l-1.34-1.48a1,1,0,0,1,.54-1.65l2-.41a1,1,0,0,0,.29-1.85l-1.73-1a1,1,0,0,1,0-1.74l1.73-1A1,1,0,0,0,63.06,42l-2-.41a1,1,0,0,1-.54-1.65l1.34-1.48a1,1,0,0,0-.73-1.67h-.12l-2,.22H59a1,1,0,0,1-.91-1.41l.82-1.82a1,1,0,0,0-1.32-1.32l-1.82.82a1,1,0,0,1-1.4-1l.22-2a1,1,0,0,0-1-1.11,1,1,0,0,0-.66.26l-1.48,1.34a1,1,0,0,1-.67.26,1,1,0,0,1-1-.8l-.41-2a1,1,0,0,0-1-.8Z" fill="#fff"/>
          </g>
          <path d="M46.51,29.7l1-1.73a1,1,0,0,1,1.85.29l.41,2a1,1,0,0,0,1.65.54l1.48-1.34a1,1,0,0,1,1.67.85l-.22,2a1,1,0,0,0,1.4,1l1.82-.82a1,1,0,0,1,1.32,1.32l-.82,1.82a1,1,0,0,0,1,1.4l2-.22a1,1,0,0,1,.85,1.67l-1.34,1.48a1,1,0,0,0,.54,1.65l2,.41a1,1,0,0,1,.29,1.85l-1.73,1a1,1,0,0,0,0,1.74l1.73,1a1,1,0,0,1-.29,1.85l-2,.41a1,1,0,0,0-.54,1.65l1.34,1.48a1,1,0,0,1-.85,1.67l-2-.22a1,1,0,0,0-1,1.4l.82,1.82a1,1,0,0,1-1.32,1.32l-1.82-.82a1,1,0,0,0-1.4,1l.22,2a1,1,0,0,1-1.67.85l-1.48-1.34a1,1,0,0,0-1.65.54l-.41,2a1,1,0,0,1-1.85.29l-1-1.73a1,1,0,0,0-1.74,0l-1,1.73a1,1,0,0,1-1.85-.29l-.41-2a1,1,0,0,0-1.65-.54L38.4,61.95a1,1,0,0,1-1.67-.85l.22-2a1,1,0,0,0-1.4-1l-1.82.82a1,1,0,0,1-1.32-1.32l.82-1.82a1,1,0,0,0-1-1.4l-2,.22a1,1,0,0,1-.85-1.67l1.34-1.48a1,1,0,0,0-.54-1.65l-2-.41a1,1,0,0,1-.29-1.85l1.73-1a1,1,0,0,0,0-1.74l-1.73-1A1,1,0,0,1,28.22,42l2-.41a1,1,0,0,0,.54-1.65l-1.34-1.48a1,1,0,0,1,.85-1.67l2,.22a1,1,0,0,0,1-1.4l-.82-1.82a1,1,0,0,1,1.32-1.32l1.82.82a1,1,0,0,0,1.4-1l-.22-2a1,1,0,0,1,1.67-.85l1.48,1.34a1,1,0,0,0,1.65-.54l.41-2A1,1,0,0,1,43.79,28l1,1.73A1,1,0,0,0,46.51,29.7Z" fill="none" stroke="#119fd4" stroke-miterlimit="10"/>
        </g>
      </g>
      <path d="M38.39,46.18a.78.78,0,0,1,0-1.05l1.08-1.05a.65.65,0,0,1,.51-.23.74.74,0,0,1,.54.23l3.28,3.28,7-7a.74.74,0,0,1,.54-.23.65.65,0,0,1,.51.23L53,41.37a.78.78,0,0,1,0,1.05L44.34,51a.71.71,0,0,1-1.05,0Z" fill="#fff"/>
    </g>
  </g>
</svg>
