<svg xmlns="http://www.w3.org/2000/svg" width="100" height="100" viewBox="0 0 100 100">
  <title>icon-fiche-certification</title>
  <g id="icon-fiche-certification">
    <g>
      <g>
        <path d="M50,69A19,19,0,1,1,69,50,19,19,0,0,1,50,69Z" fill="#119fd4"/>
        <path d="M50,32A18,18,0,1,1,32,50,18,18,0,0,1,50,32m0-2A20,20,0,1,0,70,50,20,20,0,0,0,50,30Z" fill="#fff"/>
      </g>
      <line x1="50" y1="33.68" x2="50" y2="66.32" fill="none" stroke="#119fd4" stroke-linecap="round" stroke-linejoin="round"/>
      <g>
        <path d="M50,43.46c-12.43,0-16.8-4.31-16.8-4.31" fill="none" stroke="#fff" stroke-linejoin="round"/>
        <path d="M50,43.46c12.43,0,16.8-4.31,16.8-4.31" fill="none" stroke="#fff" stroke-linejoin="round"/>
      </g>
      <g>
        <path d="M50,56.61c-12.43,0-16.8,4.31-16.8,4.31" fill="none" stroke="#fff" stroke-linejoin="round"/>
        <path d="M50,56.61c12.43,0,16.8,4.31,16.8,4.31" fill="none" stroke="#fff" stroke-linejoin="round"/>
      </g>
      <line x1="30" y1="50" x2="70" y2="50" fill="none" stroke="#fff" stroke-linejoin="round"/>
      <circle cx="50" cy="50" r="11.5" fill="#fff" stroke="#119fd4" stroke-linecap="round" stroke-linejoin="round"/>
      <path d="M43.33,50.46a.71.71,0,0,1,0-1l1-1a.6.6,0,0,1,.47-.21.68.68,0,0,1,.5.21l3,3,6.43-6.43a.68.68,0,0,1,.5-.21.6.6,0,0,1,.47.21l1,1a.71.71,0,0,1,0,1l-7.9,7.88a.65.65,0,0,1-1,0Z" fill="#119fd4"/>
      <g>
        <path d="M58.81,32.07A20.88,20.88,0,0,1,50,33.68a20.88,20.88,0,0,1-8.81-1.62,20,20,0,1,0,17.63,0Z" fill="none" stroke="#119fd4" stroke-linecap="round" stroke-linejoin="round"/>
        <path d="M58.81,32.07a19.82,19.82,0,0,0-17.63,0A20.88,20.88,0,0,0,50,33.68,20.88,20.88,0,0,0,58.81,32.07Z" fill="#fff" stroke="#119fd4" stroke-linecap="round" stroke-linejoin="round"/>
        <path d="M58.81,67.93a19.82,19.82,0,0,1-17.63,0A20.88,20.88,0,0,1,50,66.32,20.88,20.88,0,0,1,58.81,67.93Z" fill="#fff" stroke="#119fd4" stroke-linecap="round" stroke-linejoin="round"/>
      </g>
    </g>
  </g>
</svg>
