<?xml version="1.0" encoding="utf-8"?>
<!-- Generator: Adobe Illustrator 22.0.1, SVG Export Plug-In . SVG Version: 6.00 Build 0)  -->
<svg version="1.1" id="Favicon" xmlns="http://www.w3.org/2000/svg" xmlns:xlink="http://www.w3.org/1999/xlink" x="0px" y="0px"
	 viewBox="0 0 91 91" style="enable-background:new 0 0 91 91;" xml:space="preserve">
<style type="text/css">
	.st0{fill:#1F3657;}
	.st1{fill:#FFFFFF;}
	.st2{fill:none;stroke:#FFD138;stroke-width:3;stroke-miterlimit:10;}
	.st3{fill:#FFFFFF;stroke:#5DD99D;stroke-width:2;stroke-miterlimit:10;}
	.st4{fill:#FFFFFF;stroke:#CC3D8F;stroke-width:1.5;stroke-miterlimit:10;}
	.st5{fill:#FFFFFF;stroke:#FE655B;stroke-width:1.5;stroke-miterlimit:10;}
	.st6{fill:#FFFFFF;stroke:#FEAD40;stroke-width:2;stroke-miterlimit:10;}
	.st7{fill:#FFFFFF;stroke:#FE7747;stroke-width:1.5;stroke-miterlimit:10;}
</style>
<g>
	<circle class="st0" cx="45.5" cy="45.5" r="42.5"/>
	<path class="st1" d="M45.5,6C67.3,6,85,23.7,85,45.5S67.3,85,45.5,85S6,67.3,6,45.5S23.7,6,45.5,6 M45.5,0C20.4,0,0,20.4,0,45.5
		S20.4,91,45.5,91S91,70.6,91,45.5S70.6,0,45.5,0L45.5,0z"/>
</g>
<path class="st1" d="M46.4,45.6L24,26.8L23,28l22.4,18.7L46.4,45.6z"/>
<path class="st1" d="M51.9,44L53,27.1L51.5,27l-1.1,16.9L51.9,44z"/>
<path class="st1" d="M56.5,47.9l16.8-8.6L72.7,38l-16.8,8.6L56.5,47.9z"/>
<path class="st1" d="M54.2,55.2l8.6,9.8l1.1-1l-8.6-9.8L54.2,55.2z"/>
<path class="st1" d="M45.2,53L29.7,63.7l0.8,1.2L46,54.2L45.2,53z"/>
<path class="st2" d="M45.9,47c-1.1,1.7-1.2,3.9-0.3,5.7l0.8,1.1c1.9,2.1,5.1,2.5,7.4,0.9l1-0.9c1.4-1.6,1.8-3.8,1.1-5.8l-0.6-1.2
	c-0.8-1.2-2.1-2.1-3.6-2.4l-1.4-0.1c-1.3,0.1-2.6,0.6-3.6,1.6L45.9,47z"/>
<path class="st3" d="M53,29.9c2.7-0.3,4.7-2.7,4.4-5.4c-0.3-2.7-2.7-4.7-5.4-4.4c-2.7,0.3-4.7,2.7-4.4,5.4c0.2,2.1,1.8,3.9,3.9,4.3
	L53,29.9z"/>
<path class="st4" d="M69.4,41.2c1.1,1.3,3.1,1.4,4.4,0.3c1.3-1.1,1.4-3.1,0.3-4.4c-0.6-0.7-1.5-1.1-2.4-1.1l0,0
	c-1.7,0-3.1,1.4-3.1,3.2c0,0.2,0,0.5,0.1,0.7L69.4,41.2z"/>
<path class="st5" d="M60.2,62.2c-1.3,1.7-0.9,4.1,0.7,5.4c1.7,1.3,4.1,0.9,5.4-0.7c1.3-1.7,0.9-4.1-0.7-5.4c-1.2-0.9-2.9-1-4.2-0.3
	L60.2,62.2z"/>
<path class="st6" d="M33.4,62c-1.9-2.1-5.2-2.2-7.3-0.3s-2.2,5.2-0.3,7.3c1.9,2.1,5.2,2.2,7.3,0.3c1.7-1.5,2.1-4,1.1-6L33.4,62z"/>
<path class="st7" d="M26.9,29.7c0.3-0.5,0.5-1.2,0.5-1.8c0-2.1-1.7-3.8-3.8-3.8s-3.8,1.7-3.8,3.8s1.7,3.8,3.8,3.8
	c0.9,0,1.7-0.3,2.4-0.8L26.9,29.7z"/>
</svg>
