<svg xmlns="http://www.w3.org/2000/svg" width="100" height="100" viewBox="0 0 100 100">
  <title>icon-fiche-responsable_f</title>
  <g id="icon-fiche-responsable_f">
    <g>
      <polyline points="43.39 76.75 43.46 87.5 46.88 87.5 48.96 76.75 51.04 76.75 53.13 87.5 56.54 87.5 56.6 76.75" fill="#fff" stroke="#fe7747" stroke-linecap="round" stroke-linejoin="round"/>
      <g>
        <g>
          <path d="M41.13,75.5l3.09-22.8a1.25,1.25,0,0,0,0-.53c0-.09-2.84-9.5-3.56-12.84A7.29,7.29,0,0,1,42,33.46c1.58-2,4.28-3,8-3s6.44,1,8,3a7.29,7.29,0,0,1,1.35,5.88c-.72,3.34-3.53,12.74-3.56,12.84a1.24,1.24,0,0,0,0,.53l3.09,22.8Z" fill="#fe7747"/>
          <path d="M50,31.76c3.35,0,5.72.84,7.05,2.49a6,6,0,0,1,1.1,4.83c-.71,3.29-3.51,12.65-3.53,12.74a2.5,2.5,0,0,0-.08,1.05l2.9,21.38H42.56l2.9-21.38a2.5,2.5,0,0,0-.08-1.05c0-.09-2.83-9.45-3.53-12.74a6,6,0,0,1,1.1-4.83c1.33-1.65,3.71-2.49,7-2.49m0-2.5c-10.06,0-11.33,6.91-10.59,10.34S43,52.54,43,52.54L39.7,76.75H60.29L57,52.54S59.86,43,60.59,39.6,60.06,29.26,50,29.26Z" fill="#fff"/>
        </g>
        <g>
          <ellipse cx="50" cy="20.07" rx="7.51" ry="7.57" fill="#fff" stroke="#fe7747" stroke-linecap="round" stroke-linejoin="round"/>
          <path d="M60.29,76.75,57,52.54S59.86,43,60.6,39.6,60.06,29.26,50,29.26,38.67,36.17,39.41,39.6,43,52.54,43,52.54L39.7,76.75Z" fill="none" stroke="#fe7747" stroke-linecap="round" stroke-linejoin="round"/>
        </g>
        <g>
          <polyline points="50 75 50 40.55 47.83 35.19 45.66 35.86 47.12 32.18" fill="none" stroke="#fff" stroke-linecap="round" stroke-linejoin="round"/>
          <polyline points="50 40.55 52.17 35.19 54.34 35.86 52.88 32.18" fill="none" stroke="#fff" stroke-linecap="round" stroke-linejoin="round"/>
        </g>
      </g>
    </g>
  </g>
</svg>
