<svg xmlns="http://www.w3.org/2000/svg" width="40" height="100" viewBox="30 0 40 100">
  <title>icon-fiche-responsable_h</title>
  <g id="icon-fiche-responsable_h">
    <g>
      <g>
        <path d="M42.56,80.93l.75-24.68a1.26,1.26,0,0,0,0-.28c0-.13-2.66-13.23-3.39-16.63a6.91,6.91,0,0,1,1.48-5.55c1.73-2.14,4.72-3.28,8.63-3.28s6.89,1.13,8.63,3.28a6.92,6.92,0,0,1,1.48,5.55c-.73,3.4-3.36,16.5-3.39,16.63a1.26,1.26,0,0,0,0,.28l.75,24.68Z" fill="#fe7747"/>
        <path d="M50,31.76c3.52,0,6.17,1,7.65,2.81a5.7,5.7,0,0,1,1.23,4.51c-.73,3.41-3.28,16.11-3.39,16.64a2.5,2.5,0,0,0,0,.57l.71,23.4H43.85l.71-23.4a2.5,2.5,0,0,0,0-.57c-.11-.54-2.66-13.24-3.39-16.64a5.7,5.7,0,0,1,1.23-4.51c1.49-1.84,4.13-2.81,7.65-2.81m0-2.5h0c-10.06,0-12.06,6.91-11.33,10.34s3.38,16.61,3.38,16.61l-.79,26H58.73l-.79-26S60.59,43,61.33,39.6,60.06,29.26,50,29.26Z" fill="#fff"/>
      </g>
      <polygon points="53.13 87.5 57.64 87.5 57.48 82.18 52.36 82.18 53.13 87.5" fill="#fff" stroke="#fe7747" stroke-linecap="round" stroke-linejoin="round"/>
      <polygon points="46.88 87.5 47.64 82.18 42.52 82.18 42.36 87.5 46.88 87.5" fill="#fff" stroke="#fe7747" stroke-linecap="round" stroke-linejoin="round"/>
      <ellipse cx="50" cy="20.07" rx="7.51" ry="7.57" fill="#fff" stroke="#fe7747" stroke-linecap="round" stroke-linejoin="round"/>
      <path d="M50,82.18h8.73l-.79-26S60.59,43,61.33,39.6,60.06,29.26,50,29.26h0c-10.06,0-12.06,6.91-11.33,10.34s3.38,16.61,3.38,16.61l-.79,26H50" fill="none" stroke="#fe7747" stroke-linecap="round" stroke-linejoin="round"/>
      <g>
        <polyline points="50 80.58 50 40.55 47.83 35.19 45.66 35.86 47.12 32.18" fill="none" stroke="#fff" stroke-linecap="round" stroke-linejoin="round"/>
        <polyline points="50 40.55 52.17 35.19 54.34 35.86 52.88 32.18" fill="none" stroke="#fff" stroke-linecap="round" stroke-linejoin="round"/>
      </g>
    </g>
  </g>
</svg>
