<?xml version="1.0" encoding="utf-8"?>
<!-- Generator: Adobe Illustrator 22.0.1, SVG Export Plug-In . SVG Version: 6.00 Build 0)  -->
<svg version="1.1" id="Calque_5_-_copie" xmlns="http://www.w3.org/2000/svg" xmlns:xlink="http://www.w3.org/1999/xlink" x="0px"
	 y="0px" viewBox="0 0 113.4 113.4" style="enable-background:new 0 0 113.4 113.4;" xml:space="preserve">
<style type="text/css">
	.st0{fill:#f5f5f5;}
	.st1{fill:#f5f5f5;}
</style>
<g>
	<polygon class="st0" points="49.1,64.1 64.6,64.1 66.9,50.4 51.6,50.4 	"/>
	<path class="st0" d="M0,0v113.4h113.4V0H0z M95.3,50.9H83.1l-2.2,12.8h10.6v18.6H77.8L75,97.8H58.3l2.8-15.5H46.5l-2.6,15.5H27.2
		l2.6-15.5h-9V63.6H33l2.2-12.8H24.6V32.2h13.8l2.5-15h16.7l-2.6,15h14.6l2.5-15h16.7l-2.5,15h9V50.9z"/>
</g>
<g>
	<path class="st1" d="M25,81c-0.4,0-0.9-0.1-1.3-0.3c-0.4-0.2-0.8-0.4-1.1-0.7c-0.3-0.3-0.6-0.7-0.8-1.2s-0.3-1-0.3-1.7v0
		c0-0.6,0.1-1.2,0.3-1.7c0.2-0.5,0.4-0.9,0.8-1.2c0.3-0.3,0.7-0.6,1.1-0.7c0.4-0.2,0.8-0.3,1.3-0.3c0.6,0,1,0.1,1.4,0.3
		s0.7,0.5,0.9,0.8v-3.7h2.1v10.2h-2.1v-1.1c-0.3,0.4-0.6,0.6-0.9,0.9C26,80.9,25.6,81,25,81z M25.6,79.2c0.3,0,0.5,0,0.7-0.1
		s0.4-0.2,0.6-0.4c0.2-0.2,0.3-0.4,0.4-0.7c0.1-0.3,0.1-0.5,0.1-0.8v0c0-0.3,0-0.6-0.1-0.8c-0.1-0.3-0.2-0.5-0.4-0.7
		c-0.2-0.2-0.4-0.3-0.6-0.4c-0.2-0.1-0.5-0.1-0.7-0.1s-0.5,0-0.7,0.1c-0.2,0.1-0.4,0.2-0.6,0.4c-0.2,0.2-0.3,0.4-0.4,0.6
		c-0.1,0.3-0.1,0.5-0.1,0.9v0c0,0.3,0,0.6,0.1,0.8c0.1,0.3,0.2,0.5,0.4,0.7c0.2,0.2,0.4,0.3,0.6,0.4C25.1,79.1,25.3,79.2,25.6,79.2z
		"/>
	<path class="st1" d="M35.2,81c-0.4,0-0.7,0-1-0.1s-0.6-0.2-0.8-0.4S33,80,32.8,79.7c-0.1-0.3-0.2-0.6-0.2-1v0
		c0-0.4,0.1-0.8,0.2-1.1s0.4-0.5,0.6-0.7c0.3-0.2,0.6-0.3,1-0.4c0.4-0.1,0.8-0.1,1.2-0.1c0.4,0,0.7,0,1,0.1c0.3,0.1,0.6,0.1,0.8,0.2
		v-0.1c0-0.4-0.1-0.8-0.4-1c-0.3-0.2-0.7-0.3-1.2-0.3c-0.4,0-0.8,0-1.1,0.1c-0.3,0.1-0.6,0.2-1,0.3l-0.5-1.6
		c0.4-0.2,0.8-0.3,1.3-0.4c0.4-0.1,1-0.2,1.6-0.2c0.6,0,1.1,0.1,1.5,0.2c0.4,0.1,0.8,0.4,1,0.6c0.3,0.3,0.5,0.6,0.6,1
		c0.1,0.4,0.2,0.9,0.2,1.4v4.3h-2.1V80c-0.3,0.3-0.6,0.5-0.9,0.7C36.1,80.9,35.7,81,35.2,81z M35.8,79.5c0.5,0,0.9-0.1,1.2-0.4
		c0.3-0.2,0.5-0.6,0.5-1v-0.4c-0.2-0.1-0.4-0.2-0.6-0.2c-0.2-0.1-0.5-0.1-0.7-0.1c-0.5,0-0.8,0.1-1.1,0.3c-0.3,0.2-0.4,0.4-0.4,0.8
		v0c0,0.3,0.1,0.5,0.3,0.7C35.2,79.4,35.5,79.5,35.8,79.5z"/>
	<path class="st1" d="M45.5,81c-0.3,0-0.6,0-0.9-0.1c-0.3-0.1-0.5-0.2-0.7-0.4c-0.2-0.2-0.3-0.4-0.4-0.7c-0.1-0.3-0.2-0.6-0.2-1.1
		v-3.5h-0.9v-1.8h0.9v-1.9h2.1v1.9h1.8v1.8h-1.8v3.2c0,0.5,0.2,0.7,0.7,0.7c0.4,0,0.7-0.1,1-0.3v1.7c-0.2,0.1-0.5,0.2-0.7,0.3
		C46.2,80.9,45.9,81,45.5,81z"/>
	<path class="st1" d="M52.6,81c-0.4,0-0.7,0-1-0.1s-0.6-0.2-0.8-0.4s-0.4-0.4-0.6-0.7c-0.1-0.3-0.2-0.6-0.2-1v0
		c0-0.4,0.1-0.8,0.2-1.1s0.4-0.5,0.6-0.7c0.3-0.2,0.6-0.3,1-0.4c0.4-0.1,0.8-0.1,1.2-0.1c0.4,0,0.7,0,1,0.1c0.3,0.1,0.6,0.1,0.8,0.2
		v-0.1c0-0.4-0.1-0.8-0.4-1c-0.3-0.2-0.7-0.3-1.2-0.3c-0.4,0-0.8,0-1.1,0.1c-0.3,0.1-0.6,0.2-1,0.3l-0.5-1.6
		c0.4-0.2,0.8-0.3,1.3-0.4c0.4-0.1,1-0.2,1.6-0.2c0.6,0,1.1,0.1,1.5,0.2c0.4,0.1,0.8,0.4,1,0.6c0.3,0.3,0.5,0.6,0.6,1
		c0.1,0.4,0.2,0.9,0.2,1.4v4.3h-2.1V80c-0.3,0.3-0.6,0.5-0.9,0.7C53.6,80.9,53.1,81,52.6,81z M53.3,79.5c0.5,0,0.9-0.1,1.2-0.4
		c0.3-0.2,0.5-0.6,0.5-1v-0.4c-0.2-0.1-0.4-0.2-0.6-0.2c-0.2-0.1-0.5-0.1-0.7-0.1c-0.5,0-0.8,0.1-1.1,0.3c-0.3,0.2-0.4,0.4-0.4,0.8
		v0c0,0.3,0.1,0.5,0.3,0.7C52.6,79.4,52.9,79.5,53.3,79.5z"/>
	<path class="st1" d="M60.9,71.1h7v0.7h-6.2v3.9h5.6v0.7h-5.6v3.9H68v0.7h-7V71.1z"/>
	<path class="st1" d="M75.3,81c-0.8,0-1.5-0.1-2.1-0.4s-1.2-0.7-1.8-1.2l0.5-0.5c0.3,0.3,0.5,0.5,0.8,0.7s0.5,0.3,0.8,0.4
		c0.3,0.1,0.6,0.2,0.9,0.3c0.3,0.1,0.6,0.1,1,0.1s0.7,0,1-0.1s0.6-0.2,0.8-0.4c0.2-0.2,0.4-0.4,0.5-0.6c0.1-0.2,0.2-0.5,0.2-0.8v0
		c0-0.3,0-0.5-0.1-0.7c-0.1-0.2-0.2-0.4-0.4-0.6c-0.2-0.2-0.5-0.3-0.8-0.5c-0.4-0.1-0.8-0.3-1.4-0.4c-0.6-0.1-1.1-0.3-1.5-0.4
		c-0.4-0.2-0.8-0.4-1-0.6s-0.5-0.5-0.6-0.8c-0.1-0.3-0.2-0.6-0.2-1v0c0-0.4,0.1-0.7,0.2-1c0.2-0.3,0.4-0.6,0.7-0.8
		c0.3-0.2,0.6-0.4,1-0.5s0.8-0.2,1.3-0.2c0.7,0,1.3,0.1,1.8,0.3c0.5,0.2,1,0.5,1.5,0.9l-0.5,0.6c-0.5-0.4-0.9-0.7-1.4-0.9
		c-0.5-0.2-1-0.3-1.5-0.3c-0.4,0-0.7,0-1,0.1c-0.3,0.1-0.5,0.2-0.8,0.4c-0.2,0.2-0.4,0.4-0.5,0.6c-0.1,0.2-0.2,0.5-0.2,0.7v0
		c0,0.3,0,0.5,0.1,0.7c0.1,0.2,0.2,0.4,0.4,0.6c0.2,0.2,0.5,0.3,0.9,0.5c0.4,0.1,0.8,0.3,1.4,0.4c1.1,0.2,2,0.6,2.5,1s0.8,1,0.8,1.7
		v0c0,0.4-0.1,0.8-0.2,1.1s-0.4,0.6-0.7,0.8c-0.3,0.2-0.6,0.4-1,0.5C76.2,80.9,75.8,81,75.3,81z"/>
	<path class="st1" d="M82.6,71.1h4.1c0.6,0,1.1,0.1,1.6,0.3c0.5,0.2,0.8,0.4,1.1,0.7c0.2,0.2,0.4,0.5,0.5,0.8c0.1,0.3,0.2,0.6,0.2,1
		v0c0,0.4-0.1,0.8-0.2,1.1s-0.3,0.6-0.6,0.8c-0.3,0.2-0.6,0.4-0.9,0.6c-0.3,0.1-0.7,0.2-1.1,0.3l3.2,4.2h-0.9l-3.1-4.1h0h-3.2v4.1
		h-0.7V71.1z M86.6,76.1c0.4,0,0.8-0.1,1.1-0.2c0.3-0.1,0.6-0.2,0.9-0.4c0.3-0.2,0.4-0.4,0.6-0.7c0.1-0.3,0.2-0.6,0.2-0.9v0
		c0-0.7-0.2-1.2-0.7-1.6c-0.5-0.4-1.2-0.6-2.1-0.6h-3.3v4.4H86.6z"/>
</g>
</svg>
