<svg id="logo-ministere" xmlns="http://www.w3.org/2000/svg" width="113" height="30" viewBox="0 0 113 30">
  <g>
    <g>
      <g>
        <rect x="0.25" y="0.25" width="43.05" height="29.5" fill="#fff"/>
        <path d="M43,.5v29H.5V.5H43m.5-.5H0V30H43.55V0Z" fill="#003259"/>
      </g>
      <g>
        <g>
          <g>
            <path d="M15.74,12.75a3.78,3.78,0,0,0-.8.23,5.13,5.13,0,0,1,1.76.25,2.75,2.75,0,0,1,.57.27,1.27,1.27,0,0,0,.23.18.48.48,0,0,0,.39,0H18a1.9,1.9,0,0,0,1-.43s0,0,0,0a1.59,1.59,0,0,1-.2.55s0,.07,0,.09h0s0,0,0,0,.07,0,.1,0a.48.48,0,0,0-.3.14s0,0,.07,0-.11,0-.14.07l0,0s0,0,0,0v.07c-.07,0-.09,0-.14.07s.16,0,.25,0c-.25.09-.45.23-.71.3,0,0,0,.07,0,.07s.11,0,.18,0c-.32.18-.63.35-1,.55a.16.16,0,0,0,0,.09h-.09s0,.09-.07.14c.11.07.25-.09.32,0s0,0-.09,0,0,0,0,0H17s-.09.07-.09.13-.09,0-.11,0a4.18,4.18,0,0,0,1.51-.27,3.54,3.54,0,0,0,1-.76.08.08,0,0,1,0,0,1,1,0,0,1-.39.52c-.14.07-.23.18-.34.23l-.21.14c-.84.29-1.85.16-2.58.73,0,0,0,0,0,0s-.11.07-.14.12.07,0,.09,0a1.55,1.55,0,0,1,.43-.21c-.18.09-.36.28-.55.28H14.46c.23-.14.46-.3.7-.43a.36.36,0,0,0-.21,0c-.11,0-.25,0-.36,0-.34.16-.8.11-1,.48H6.82V6.49H20.4a1.93,1.93,0,0,0-.73.48,2,2,0,0,0-.43.73,2,2,0,0,0-.63.73c-.21.39-.5.73-.46,1.16s.14.71.21,1.1a2.18,2.18,0,0,0,.1.39c0,.14,0,.3.07.41s0,.16.11.21v.09s0,0,.07,0v.09a3.71,3.71,0,0,1,.53.69c0,.14-.23.07-.35,0a2.68,2.68,0,0,1-.55-.46.09.09,0,0,0,0,0c.09.16.43.36.25.48s-.21-.07-.3,0,0,.09,0,.14-.27,0-.41-.09-.11-.21-.23-.21a6.1,6.1,0,0,0-.87-.16,4.24,4.24,0,0,0-1.21-.05,1.34,1.34,0,0,0-.87.57V13c.16,0,.23-.12.37-.16s.43-.14.66-.18a3.81,3.81,0,0,1,1-.14.83.83,0,0,1,.23,0,3.4,3.4,0,0,0-1.16.23" fill="#024290"/>
            <path d="M14.46,13.82c-.07,0-.14.07-.12.11s.21,0,.32,0c-.14,0-.3,0-.41.14.09.07.18,0,.27,0s0,0,.07.07a.4.4,0,0,0-.23.21c0,.11-.16.16-.23.25v.07a4.5,4.5,0,0,0-.66.6s0,0,0,0-.14.09-.16.16,0,0,0,0c.27-.09.48-.3.73-.39s.32-.16.48-.21l.36-.09s0,0,0,0h.19s-.11,0-.09,0a.41.41,0,0,0,.3,0,.37.37,0,0,1,.23,0s0,0,0-.07a.54.54,0,0,0,.18,0,6.24,6.24,0,0,0,1.59-.48,6.07,6.07,0,0,0-2.05-.83c.07,0,.14.07.21,0-.11-.09-.25,0-.36-.11s.07,0,.09,0a2,2,0,0,0-.55-.14.23.23,0,0,0,.18-.23s0,0-.07,0a1.21,1.21,0,0,0-.57.69c.16.09.34,0,.5,0a.57.57,0,0,1-.27.09" fill="#fff"/>
            <path d="M13.52,12.93a3,3,0,0,1-.78.63A6.84,6.84,0,0,1,12,14.73a.08.08,0,0,0,0,0,7.81,7.81,0,0,1,1.76-1.59s-.07.07,0,0c.3-.07.39-.37.52-.6s.5-.41.73-.66a.08.08,0,0,1,0,.07l.07,0c.1-.07.21,0,.28-.13a.89.89,0,0,0-.59,0,4.4,4.4,0,0,0-1.27,1" fill="#fff"/>
            <path d="M13.87,13.37s0,0,.07-.09,0,0,0,0a.29.29,0,0,0-.18.21s0,0,0,0a.15.15,0,0,0,.09-.09" fill="#fff"/>
            <path d="M15.7,15.1c-.09,0-.25,0-.27.16s.07,0,.11,0,.34,0,.48-.14c0,0-.11,0-.16-.1s-.11,0-.16,0" fill="#fff"/>
            <path d="M18.17,16.32l.41-.16v0c.34-.14.59-.43.94-.55,0,0,.07,0,.11,0a.92.92,0,0,1,.73-.34s0,0,0,0,0,0,0,0l-.28.21a0,0,0,0,0,0,0c.11,0,.18-.14.3-.18s0,.07,0,.1a9.42,9.42,0,0,0-1.1,1.09h-3.1c.46-.07.91-.23,1.37-.27a2.42,2.42,0,0,0,.57,0" fill="#1f4491"/>
          </g>
          <path d="M27.19,15.18a.63.63,0,0,0,0-.51c-.14-.2.14-.27.23-.41s0-.18-.07-.3-.11,0-.16-.09c.16-.07.41-.2.3-.41s-.18-.3,0-.41.41-.07.48-.23-.14-.5-.28-.73a3.81,3.81,0,0,0-.26-.38,1.93,1.93,0,0,1-.25-.48c-.07-.18,0-.34,0-.53a3.22,3.22,0,0,0-.16-1c-.07-.16-.09-.35-.16-.51a.72.72,0,0,0-.11-.27.2.2,0,0,1,0-.16A2.75,2.75,0,0,0,27,8.52a.26.26,0,0,0-.09-.35c-.16-.07-.14.16-.25.21H26.6c0-.07,0-.09.07-.14s0-.07,0-.07-.18,0-.21-.07a1.87,1.87,0,0,0-.89-.62,1.1,1.1,0,0,0,.28,0,.84.84,0,0,0,.48,0c.11,0,.14-.23.18-.34a.34.34,0,0,0-.07-.3A1.46,1.46,0,0,0,26,6.49H36.73V16.61H23.91a2.2,2.2,0,0,1,.8-1.18,1.14,1.14,0,0,1,.32-.1,10.05,10.05,0,0,1,1.16.16.32.32,0,0,1,.14,0,1,1,0,0,0,.44,0,.56.56,0,0,0,.42-.32" fill="#e0051b"/>
          <path d="M26.32,10.67a1.5,1.5,0,0,0-.39,0,3.07,3.07,0,0,0-.5.13,1.61,1.61,0,0,1,.43-.23,1.77,1.77,0,0,1,.34-.09.78.78,0,0,1,.39,0c.11,0,.3,0,.32.12s-.07.28-.21.36.07.07.07.12a.16.16,0,0,1-.14.07.85.85,0,0,0-.14.14s0,.07,0,.07,0,.34-.09.38a1,1,0,0,1-.53,0c.09,0,.21,0,.27-.07v-.09s0,0,0,0l0,0a.1.1,0,0,0-.07-.09.39.39,0,0,1-.34-.13.3.3,0,0,1,.21,0c.07,0,0-.11.11-.16h.07c.14-.18.41-.23.46-.41s-.14-.05-.23-.07" fill="#9c9e9f"/>
        </g>
        <g>
          <g>
            <path d="M8.35,23.72a.39.39,0,0,1-.23-.06,1.1,1.1,0,0,1-.26-.35l-.32-.52H7.41v.4a.91.91,0,0,0,0,.3.19.19,0,0,0,.18.12v.08H6.84v-.08A.2.2,0,0,0,7,23.56.29.29,0,0,0,7,23.39,3.63,3.63,0,0,0,7,23v-.5a2.18,2.18,0,0,0,0-.53c0-.08-.08-.11-.18-.12v-.08h.88a.71.71,0,0,1,.43.1.5.5,0,0,1,.19.39.59.59,0,0,1-.44.55c.11.14.2.29.32.45a2,2,0,0,0,.27.36.23.23,0,0,0,.12.08v.08l-.25,0m-.77-1.89-.18,0v.74h.13a.38.38,0,0,0,.41-.39.36.36,0,0,0-.35-.37h0" fill="#1a181b"/>
            <path d="M9.31,21.89l-.12-.07.24-.36.28.05Zm.55,1.77s0,0-.18,0h-1v-.08a.17.17,0,0,0,.17-.17h0a2.73,2.73,0,0,0,0-.28v-.68a.69.69,0,0,0,0-.24.15.15,0,0,0-.15-.1v-.07H9.89v.39H9.8c0-.19-.1-.24-.39-.24H9.22v.56h.1c.25,0,.32,0,.35-.17h.09a2.32,2.32,0,0,0,0,.24v.24H9.66c0-.14-.07-.17-.32-.17H9.21v.47c0,.1,0,.14.08.15h.17c.27,0,.36-.06.42-.26l.1,0a1.62,1.62,0,0,1-.1.36" fill="#1a181b"/>
            <path d="M10.9,23h-.07l-.05-.12a.33.33,0,1,0,.06-.65h-.11v.89a1.24,1.24,0,0,0,0,.44.15.15,0,0,0,.15.1v.07h-.65v-.07a.17.17,0,0,0,.17-.17h0a3.45,3.45,0,0,0,0-.36v-.6a.68.68,0,0,0,0-.24.15.15,0,0,0-.15-.1v-.07h.67c.35,0,.56.17.56.46a.5.5,0,0,1-.56.44h0" fill="#1a181b"/>
            <path d="M13.12,22.17a.35.35,0,0,0,0,.18v.74a.61.61,0,0,1-.1.38.74.74,0,0,1-.93.15.53.53,0,0,1-.23-.5v-.47a2.24,2.24,0,0,0,0-.38c0-.09-.06-.13-.17-.13v-.07h.66v.07a.17.17,0,0,0-.14.07.42.42,0,0,0,0,.2v.46c0,.42,0,.5.09.59a.37.37,0,0,0,.28.11.37.37,0,0,0,.37-.25,1.4,1.4,0,0,0,0-.46v-.24c0-.28,0-.37,0-.41a.16.16,0,0,0-.13-.08v-.07h.5v.07a.17.17,0,0,0-.13,0" fill="#1a181b"/>
            <path d="M14.65,23.58a.75.75,0,0,1-.5.12h-.65v-.06c.11,0,.16-.07.17-.18a3.49,3.49,0,0,0,0-.36v-.47a1.27,1.27,0,0,0,0-.39.16.16,0,0,0-.15-.1v-.07h.83c.23,0,.43.11.43.36s-.12.32-.35.38a.43.43,0,0,1,.4.44.4.4,0,0,1-.17.35m-.54-1.42H14v.54h.11c.24,0,.38-.1.38-.28s-.13-.27-.35-.27m0,.69H14v.34a.75.75,0,0,0,0,.26c0,.06.08.09.18.09a.29.29,0,0,0,.32-.32.35.35,0,0,0-.32-.37h-.06" fill="#1a181b"/>
            <path d="M16.2,23.66s-.05,0-.17,0H15.1v-.08a.16.16,0,0,0,.12,0c0-.05.06-.11.06-.3v-.61a1.24,1.24,0,0,0,0-.44.15.15,0,0,0-.15-.1v-.07h.68v.07c-.12,0-.18.07-.19.19a3.07,3.07,0,0,0,0,.36v.41c0,.34,0,.39,0,.42s.08,0,.18,0a.54.54,0,0,0,.27,0,.34.34,0,0,0,.15-.22l.09,0a1.51,1.51,0,0,1-.1.36" fill="#1a181b"/>
            <path d="M17.06,23.69h-.6v-.07c.11,0,.16-.07.17-.18a3.12,3.12,0,0,0,0-.36v-.61a.74.74,0,0,0,0-.24.15.15,0,0,0-.15-.1v-.07h.67v.07c-.1,0-.16.07-.17.19a2.58,2.58,0,0,0,0,.36v.41a1.3,1.3,0,0,0,0,.44c0,.06.07.09.15.1v.07Z" fill="#1a181b"/>
            <path d="M19.37,24.14a1.23,1.23,0,0,1-.59-.17,2.46,2.46,0,0,1-.38-.26H18.2a.77.77,0,0,1-.83-.82.84.84,0,0,1,.79-.89h.08a.78.78,0,0,1,.84.81.88.88,0,0,1-.46.8l.27.15a1.15,1.15,0,0,0,.58.22.59.59,0,0,0,.28-.07l0,.09a.74.74,0,0,1-.43.13M18.2,22.19a.54.54,0,0,0-.52.57v0c0,.43.25.76.58.76a.55.55,0,0,0,.52-.58v0c0-.42-.25-.75-.58-.75" fill="#1a181b"/>
            <path d="M20.8,22.17a.32.32,0,0,0,0,.18v.74a.61.61,0,0,1-.1.38.74.74,0,0,1-.93.15.54.54,0,0,1-.26-.5v-.47a2.38,2.38,0,0,0,0-.38c0-.09-.06-.13-.17-.13v-.07H20v.07a.16.16,0,0,0-.14.07.37.37,0,0,0,0,.2v.46c0,.42,0,.5.09.59a.37.37,0,0,0,.28.11.37.37,0,0,0,.38-.25,1.55,1.55,0,0,0,0-.46v-.24c0-.28,0-.37,0-.41a.16.16,0,0,0-.13-.08v-.07h.51v.07a.16.16,0,0,0-.11.05" fill="#1a181b"/>
            <path d="M22.3,23.66s0,0-.18,0h-1v-.08a.17.17,0,0,0,.17-.18h0v-1a.63.63,0,0,0,0-.24.15.15,0,0,0-.15-.1v-.07h1.17v.39h-.09c0-.19-.1-.24-.39-.24h-.18v.56h.11c.26,0,.32,0,.35-.17h.09a2.26,2.26,0,0,0,0,.24v.24H22.1c0-.14-.07-.17-.32-.17h-.13v.47c0,.1,0,.14.08.15h.17c.27,0,.36-.06.42-.26l.1,0a1.9,1.9,0,0,1-.1.36" fill="#1a181b"/>
            <path d="M24.58,22.19c0-.21-.13-.3-.47-.3H23.9v.67h.16c.28,0,.36,0,.38-.2h.11v.58h-.11c0-.18-.09-.22-.4-.22h-.12v.55c0,.17,0,.32.21.32v.08h-.81V23.6a.21.21,0,0,0,.21-.21h0a3.71,3.71,0,0,0,0-.44v-.73a.79.79,0,0,0,0-.29c0-.08-.08-.11-.18-.13v-.08h1.37a2.32,2.32,0,0,0,0,.28,1.2,1.2,0,0,0,0,.2Z" fill="#1a181b"/>
            <path d="M26.23,23.72a.32.32,0,0,1-.19-.05,1,1,0,0,1-.22-.28,5,5,0,0,0-.27-.43h-.1v.32a.77.77,0,0,0,0,.24.16.16,0,0,0,.15.1v.07H25v-.06a.14.14,0,0,0,.12,0,.25.25,0,0,0,.05-.13,3.3,3.3,0,0,0,0-.36v-.41a1.55,1.55,0,0,0,0-.44c0-.07-.07-.1-.15-.1v-.07h.73a.57.57,0,0,1,.35.09.4.4,0,0,1,.15.32.49.49,0,0,1-.36.45c.09.12.17.23.25.37a1.76,1.76,0,0,0,.22.3.16.16,0,0,0,.1.06v.07l-.2,0m-.63-1.56-.15,0v.62h.1a.32.32,0,0,0,.34-.29v0a.32.32,0,0,0-.3-.32" fill="#1a181b"/>
            <path d="M28,23.69h-.6v-.07a.11.11,0,0,0,.12-.11.39.39,0,0,0,0-.13c0-.1,0-.16-.08-.24H27l0,.14a.91.91,0,0,0-.06.24c0,.07,0,.1.11.11v.07h-.49v-.07a.1.1,0,0,0,.08,0,.88.88,0,0,0,.17-.32l.23-.59c.06-.16.16-.42.23-.63h.17c0,.08.07.19.11.29l.35.89a2.31,2.31,0,0,0,.13.3.18.18,0,0,0,.13.1v.07Zm-.79-1.21c-.06.17-.16.39-.19.5h.36Z" fill="#1a181b"/>
            <path d="M29.76,22.2a.41.41,0,0,0,0,.22V23.7h-.17l-.49-.62-.5-.62v.89a.51.51,0,0,0,0,.2.14.14,0,0,0,.13.07v.07H28.2v-.07c.17,0,.17-.14.17-.27s0-.19,0-.35v-.53c0-.21,0-.25,0-.32s-.06-.05-.13-.06V22h.43a2.86,2.86,0,0,0,.25.32c.24.29.46.54.66.8v-.54a2.54,2.54,0,0,0,0-.37.16.16,0,0,0-.16-.13V22h.52v.07a.14.14,0,0,0-.14.07" fill="#1a181b"/>
            <path d="M31.47,23.64a1.27,1.27,0,0,1-.5.09l0,.1h0a.15.15,0,0,1,.16.14h0c0,.14-.11.23-.27.23l-.15,0,0-.1.09,0c.07,0,.12,0,.12-.1s0-.08-.06-.08l-.06,0-.05,0,0-.2a.76.76,0,0,1-.51-.23.87.87,0,0,1-.23-.62.81.81,0,0,1,.76-.85H31a1.45,1.45,0,0,1,.48.07,1.64,1.64,0,0,0,0,.17v.19h-.1a.36.36,0,0,0-.4-.28.54.54,0,0,0-.56.63c0,.44.25.77.59.77a.39.39,0,0,0,.41-.3l.09,0a2.45,2.45,0,0,0-.05.36" fill="#1a181b"/>
            <path d="M33.18,23.69H32.6v-.07a.11.11,0,0,0,.12-.11.42.42,0,0,0,0-.13l-.08-.24h-.47l0,.14a1,1,0,0,0-.06.24c0,.07,0,.1.11.11v.07h-.49v-.07a.1.1,0,0,0,.07,0,.87.87,0,0,0,.17-.32l.23-.59c.07-.16.16-.42.23-.63h.17c0,.08.08.19.11.29l.35.89a2.7,2.7,0,0,0,.13.3.19.19,0,0,0,.13.1v.07Zm-.8-1.21c-.06.17-.16.39-.19.5h.36Z" fill="#1a181b"/>
            <path d="M34,23.69h-.61v-.07c.11,0,.16-.07.17-.18a2.52,2.52,0,0,0,0-.36v-.61a.73.73,0,0,0,0-.24.16.16,0,0,0-.15-.1v-.07H34v.07c-.1,0-.16.07-.17.19a2.66,2.66,0,0,0,0,.36v.41a1.27,1.27,0,0,0,0,.44c0,.06.06.09.15.1v.07Z" fill="#1a181b"/>
            <path d="M34.75,23.72a1,1,0,0,1-.42-.09,2.71,2.71,0,0,0,0-.36h.09a.37.37,0,0,0,.38.32c.18,0,.29-.09.29-.23s-.08-.19-.19-.26l-.26-.17a.48.48,0,0,1-.28-.45c0-.28.21-.45.53-.45a.86.86,0,0,1,.4.09v.34h-.09a.32.32,0,0,0-.32-.28.24.24,0,0,0-.27.21v0c0,.11.09.19.22.28l.21.14c.2.13.32.25.32.45s-.23.45-.58.45" fill="#1a181b"/>
            <path d="M36.73,23.66s0,0-.18,0H35.6v-.08c.1,0,.16-.07.17-.18a2,2,0,0,0,0-.28v-.68a.7.7,0,0,0,0-.24.15.15,0,0,0-.15-.1v-.07h1.15v.22a1.22,1.22,0,0,0,0,.17h-.09c0-.19-.1-.24-.39-.24h-.18v.56h.11c.26,0,.32,0,.35-.17h.07v.48h-.09c0-.14-.08-.17-.32-.17h-.13v.47c0,.1,0,.14.08.15h.17c.27,0,.36-.06.42-.26l.1,0a1.62,1.62,0,0,1-.1.36" fill="#1a181b"/>
          </g>
          <g>
            <path d="M7.67,19.48s-.06,0-.14,0H6.61v-.05a.2.2,0,0,0,.15-.07.65.65,0,0,0,.1-.25c0-.13,0-.21.1-.46l0-.19A2.05,2.05,0,0,0,7,18.14C7,18,7,18,6.91,18v-.05h.61V18a.18.18,0,0,0-.15.07c-.06.08-.09.18-.18.63l0,.16c0,.19-.05.26-.06.35a.56.56,0,0,0,0,.07c0,.1,0,.12.2.12s.37-.06.46-.25l.06,0a1.87,1.87,0,0,1-.14.32" fill="#1a181b"/>
            <path d="M8.38,18.31a.11.11,0,0,1-.12-.1h0a.14.14,0,0,1,.14-.15h0a.1.1,0,0,1,.11.11.14.14,0,0,1-.13.15h0m-.26,1.23s-.08,0-.08-.07a.58.58,0,0,1,0-.11c0-.13.07-.32.1-.39a1.19,1.19,0,0,0,0-.25s0,0,0,0l-.09,0H8v-.07a1.17,1.17,0,0,1,.32-.08s.05,0,.05,0a1.63,1.63,0,0,1-.06.28l0,.14a1.83,1.83,0,0,0-.08.36,0,0,0,0,0,0,.05h0l.13,0v.07a1.1,1.1,0,0,1-.32.09" fill="#1a181b"/>
            <path d="M9.44,19.43a.51.51,0,0,1-.37.11c-.19,0-.3,0-.3-.08a.56.56,0,0,1,0-.14l.12-.55L9,18.27a1.22,1.22,0,0,0,0-.21,0,0,0,0,0,0,0H9l-.1,0V18h0a1.45,1.45,0,0,1,.29-.06s.05,0,.05,0a1.9,1.9,0,0,1-.05.27l-.07.32,0,.17a.82.82,0,0,1,.4-.13c.15,0,.22.07.22.23a.93.93,0,0,1-.32.63m0-.77a.35.35,0,0,0-.16.05.41.41,0,0,0-.15.11A.87.87,0,0,0,9,19.1a2.05,2.05,0,0,0-.06.28s.06.07.15.07a.29.29,0,0,0,.24-.13,1,1,0,0,0,.17-.51c0-.09,0-.14-.1-.14" fill="#1a181b"/>
            <path d="M10.27,19.13H10.2a.86.86,0,0,0,0,.11c0,.13,0,.19.13.19a.63.63,0,0,0,.32-.13l0,.08a.84.84,0,0,1-.43.17A.22.22,0,0,1,10,19.3a.69.69,0,0,1,.58-.74c.15,0,.24.07.24.19s-.24.39-.54.39m.25-.48c-.12,0-.24.16-.3.39h0c.22,0,.39-.12.39-.27a.12.12,0,0,0-.11-.12h0" fill="#1a181b"/>
            <path d="M11.77,18.87h-.08v-.1a.1.1,0,0,0-.1-.08.15.15,0,0,0-.1.06,1.15,1.15,0,0,0-.18.53l0,.23h-.21c0-.09,0-.16.06-.24l.05-.22a1.67,1.67,0,0,0,.05-.3c0-.06,0-.08,0-.08h-.06l-.06,0v-.07a1,1,0,0,1,.32-.09,0,0,0,0,1,0,0h0a1,1,0,0,1,0,.1.51.51,0,0,1,.27-.14.28.28,0,0,1,.16.06,1.14,1.14,0,0,0-.09.25" fill="#1a181b"/>
            <path d="M12.58,18.7h-.2l-.1.49a.9.9,0,0,0,0,.18s0,.05,0,.05l.11,0h0v.07a1,1,0,0,1-.32.09s-.08,0-.08-.07a.66.66,0,0,1,0-.17l.06-.25.08-.36h-.13l0-.08c.17,0,.22-.16.27-.3l.11,0-.06.28h.2Z" fill="#1a181b"/>
            <path d="M13.31,18.41l-.08-.06.29-.32.22.05Zm-.27.72H13a.54.54,0,0,0,0,.11c0,.13,0,.19.13.19a.67.67,0,0,0,.32-.13l0,.08a.83.83,0,0,1-.43.17.22.22,0,0,1-.24-.24.69.69,0,0,1,.58-.74c.16,0,.24.07.24.19s-.23.39-.54.39m.25-.48c-.12,0-.24.16-.3.39h0c.22,0,.39-.12.39-.27a.12.12,0,0,0-.11-.12h0" fill="#1a181b"/>
            <path d="M17.43,17.75l-.08-.06.29-.32.23,0Zm.45.51h-.07a.32.32,0,0,0,0-.05c0-.13-.09-.18-.32-.18h-.23c0,.2-.08.37-.12.59h.36a.2.2,0,0,0,.17-.17h.07c0,.14-.08.34-.1.47h-.08a.16.16,0,0,0,0,0c0-.1-.06-.14-.26-.14H17.1A1.57,1.57,0,0,1,17,19a1.4,1.4,0,0,0,0,.26c0,.09,0,.11.2.11.32,0,.4,0,.49-.25l.06,0a1.39,1.39,0,0,1-.15.32s-.05,0-.16,0h-.9v-.05a.2.2,0,0,0,.15-.07.63.63,0,0,0,.1-.25c0-.13,0-.19.1-.46l0-.19a2,2,0,0,0,.05-.36c0-.1,0-.15-.14-.16v-.05h1.09c0,.11-.05.24-.07.35" fill="#1a181b"/>
            <path d="M19.07,18.7h-.16a.27.27,0,0,1,0,.15.4.4,0,0,1-.41.39h0l-.13,0c-.06,0-.08.05-.08.07s0,0,.13.07l.19.06c.19.06.29.12.29.26a.52.52,0,0,1-.57.45c-.26,0-.43-.13-.43-.32s.12-.28.32-.32c-.12,0-.15-.06-.15-.1s.07-.12.21-.2a.25.25,0,0,1-.11-.22.4.4,0,0,1,.41-.4h0a.44.44,0,0,1,.16,0h.32Zm-.46-.05a.28.28,0,0,0-.23.3.17.17,0,0,0,.14.18h0a.27.27,0,0,0,.23-.29c0-.12-.06-.19-.16-.19m0,1-.28-.1a.34.34,0,0,0-.28.32c0,.13.11.22.28.22s.4-.14.4-.3,0-.1-.12-.13" fill="#1a181b"/>
            <path d="M20,19.54s-.06,0-.08-.15a.88.88,0,0,1-.43.15.2.2,0,0,1-.23-.21.92.92,0,0,1,.16-.45.61.61,0,0,1,.54-.32,1.25,1.25,0,0,1,.32,0v0a3.29,3.29,0,0,0-.17.65c0,.07,0,.1,0,.1l.13,0v.07a1.33,1.33,0,0,1-.28.09m-.11-.89a.35.35,0,0,0-.27.21,1,1,0,0,0-.16.47c0,.07,0,.11.1.11a.56.56,0,0,0,.32-.14.43.43,0,0,0,.08-.17,4.23,4.23,0,0,0,.1-.44l-.15,0" fill="#1a181b"/>
            <path d="M21,18.13c-.08.32-.16.67-.23,1a1.36,1.36,0,0,0,0,.22s0,0,.05,0l.13,0v.07a1.22,1.22,0,0,1-.34.09.07.07,0,0,1-.07-.07,1.22,1.22,0,0,1,0-.23c.08-.32.16-.65.22-1,0-.14,0-.21,0-.23a0,0,0,0,0,0,0h0l-.1,0V18a1.2,1.2,0,0,1,.32-.08s.05,0,.05,0a1.11,1.11,0,0,1,0,.2" fill="#1a181b"/>
            <path d="M21.63,18.31a.11.11,0,0,1-.12-.1h0a.14.14,0,0,1,.13-.15h0a.11.11,0,0,1,.12.11.14.14,0,0,1-.13.15h0m-.25,1.23c-.05,0-.08,0-.08-.07a.56.56,0,0,1,0-.11c0-.13.07-.32.1-.39a1.27,1.27,0,0,0,0-.25s0,0,0,0l-.1,0h0v-.07a1.13,1.13,0,0,1,.32-.08s.05,0,.05,0a1.41,1.41,0,0,1-.05.28l0,.14a1.7,1.7,0,0,0-.08.36,0,0,0,0,0,0,.05h0l.13,0v.07a1.15,1.15,0,0,1-.32.09" fill="#1a181b"/>
            <path d="M22.57,18.7h-.2l-.1.49a.81.81,0,0,0,0,.18s0,.05,0,.05l.11,0h0v.07a.93.93,0,0,1-.32.09s-.08,0-.08-.07a.63.63,0,0,1,0-.17l.05-.25.08-.36h-.12v-.08c.16,0,.22-.16.27-.3l.11,0-.06.28h.2Z" fill="#1a181b"/>
            <path d="M23.31,18.41l-.08-.06.29-.32.22.05Zm-.27.72H23a.68.68,0,0,0,0,.11c0,.13,0,.19.13.19a.63.63,0,0,0,.32-.13l0,.08a.85.85,0,0,1-.43.17.22.22,0,0,1-.23-.25.69.69,0,0,1,.57-.74c.15,0,.24.07.24.19s-.24.39-.54.39m.25-.48c-.12,0-.24.16-.3.39h0c.22,0,.39-.12.39-.27a.12.12,0,0,0-.11-.12h0" fill="#1a181b"/>
            <path d="M27.85,18.26h-.07v-.05a.17.17,0,0,0,0-.11S27.6,18,27.41,18h-.17l-.12.59h.14c.27,0,.32,0,.37-.18h.06a4.35,4.35,0,0,0-.09.47h-.07a.22.22,0,0,0,0,0,.12.12,0,0,0,0-.1s-.09,0-.23,0h-.16l0,.17a2.63,2.63,0,0,0-.05.41.14.14,0,0,0,.14.16v.05h-.6v-.05a.19.19,0,0,0,.15-.08.57.57,0,0,0,.1-.25c0-.14,0-.21.1-.46l0-.19a2.38,2.38,0,0,0,.05-.36c0-.1,0-.15-.14-.16v-.05h1.07c0,.11,0,.23-.07.35" fill="#1a181b"/>
            <path d="M28.67,18.87h-.08a.53.53,0,0,0,0-.1s0-.08-.1-.08a.15.15,0,0,0-.1.06,1.18,1.18,0,0,0-.18.53l0,.23H28c0-.09,0-.16.06-.24l.05-.22a1.62,1.62,0,0,0,.05-.3c0-.06,0-.08,0-.08H28l-.06,0v-.07a1.06,1.06,0,0,1,.32-.09,0,0,0,0,1,0,0h0a.44.44,0,0,1,0,.1.5.5,0,0,1,.27-.14.29.29,0,0,1,.16.06,1.63,1.63,0,0,0-.09.25" fill="#1a181b"/>
            <path d="M29.61,19.54s-.06,0-.08-.15a.89.89,0,0,1-.43.15c-.15,0-.23-.08-.23-.21a.91.91,0,0,1,.16-.45.61.61,0,0,1,.53-.32,1.22,1.22,0,0,1,.32,0v0a3.25,3.25,0,0,0-.17.65c0,.07,0,.1,0,.1l.13,0v.07a1.29,1.29,0,0,1-.28.09m-.11-.89c-.1,0-.19.07-.28.21a1,1,0,0,0-.15.47c0,.07,0,.11.1.11a.57.57,0,0,0,.32-.14.41.41,0,0,0,.08-.17,3.09,3.09,0,0,0,.1-.44l-.14,0" fill="#1a181b"/>
            <path d="M30.75,18.7h-.2l-.1.49a.84.84,0,0,0,0,.18,0,0,0,0,0,0,.05l.11,0h0v.07a1,1,0,0,1-.32.09c-.05,0-.08,0-.08-.07a.76.76,0,0,1,0-.17l.06-.25.08-.36h-.13v-.08c.17,0,.22-.16.26-.3l.12,0-.06.28h.2Z" fill="#1a181b"/>
            <path d="M31.21,19.13h-.07a.6.6,0,0,0,0,.11c0,.13,0,.19.13.19a.67.67,0,0,0,.32-.13l0,.08a.83.83,0,0,1-.43.17A.22.22,0,0,1,31,19.3a.69.69,0,0,1,.58-.74c.15,0,.24.07.24.19s-.23.39-.54.39m.25-.48c-.11,0-.23.16-.3.39h0c.22,0,.39-.12.39-.27a.12.12,0,0,0-.11-.12h0" fill="#1a181b"/>
            <path d="M32.72,18.87h-.08a.87.87,0,0,0,0-.1s0-.08-.1-.08a.14.14,0,0,0-.1.06,1.11,1.11,0,0,0-.18.53l0,.23H32c0-.09,0-.16.06-.24l.06-.22a1.81,1.81,0,0,0,.05-.3c0-.06,0-.08,0-.08h-.06l-.06,0v-.07a1.08,1.08,0,0,1,.32-.09,0,0,0,0,1,0,0h0a.46.46,0,0,1,0,.1.51.51,0,0,1,.27-.14.28.28,0,0,1,.16.06,1.84,1.84,0,0,0-.09.25" fill="#1a181b"/>
            <path d="M33.68,19.54a.07.07,0,0,1-.08-.06h0a1.22,1.22,0,0,1,0-.2l0-.1a3.32,3.32,0,0,0,.09-.44,0,0,0,0,0,0-.05h0a.4.4,0,0,0-.18.07.48.48,0,0,0-.16.14.8.8,0,0,0-.07.22c0,.18-.06.3-.08.41l-.21,0c.05-.18.08-.32.12-.49a1.54,1.54,0,0,0,.05-.28c0-.06,0-.08-.05-.08l-.12,0v-.06a1,1,0,0,1,.3-.08c.05,0,.07,0,.07.15v0a1.12,1.12,0,0,1,.5-.16c.08,0,.11,0,.11.07a1.44,1.44,0,0,1-.06.32c0,.11-.05.23-.06.28a1.19,1.19,0,0,0,0,.14,0,0,0,0,0,.05.05l.12,0v.07a1.36,1.36,0,0,1-.32.09" fill="#1a181b"/>
            <path d="M34.7,18.31a.11.11,0,0,1-.12-.11A.14.14,0,0,1,34.7,18a.11.11,0,0,1,.12.11.14.14,0,0,1-.13.15h0m-.26,1.23a.07.07,0,0,1-.08-.06h0a.6.6,0,0,1,0-.11c0-.13.07-.32.1-.39a1.41,1.41,0,0,0,0-.25s0,0,0,0l-.09,0h0v-.07a1.15,1.15,0,0,1,.32-.08s.05,0,.05,0a1.56,1.56,0,0,1-.06.28l0,.14a2,2,0,0,0-.08.36s0,.05.06.05l.13,0v.07a1.16,1.16,0,0,1-.33.09" fill="#1a181b"/>
            <path d="M35.64,18.7h-.2l-.1.49a.87.87,0,0,0,0,.18s0,.05,0,.05l.11,0h0v.07a1,1,0,0,1-.32.09s-.08,0-.08-.07a.63.63,0,0,1,0-.17l.05-.25.07-.36h-.13l0-.08c.16,0,.22-.16.26-.3l.11,0-.06.28h.2Z" fill="#1a181b"/>
            <path d="M36.37,18.41l-.08-.05.3-.32.21.05Zm-.27.72H36a1,1,0,0,0,0,.11c0,.13,0,.19.13.19a.67.67,0,0,0,.32-.13l0,.08a.84.84,0,0,1-.43.17.22.22,0,0,1-.23-.25.69.69,0,0,1,.57-.74c.15,0,.24.07.24.19s-.24.39-.55.39m.25-.48c-.11,0-.23.16-.3.39h0c.22,0,.39-.12.39-.27a.12.12,0,0,0-.11-.12h0" fill="#1a181b"/>
            <path d="M25.13,19.09a.29.29,0,1,0,0-.58h0a.29.29,0,1,0,0,.58h0" fill="#1a181b"/>
            <path d="M15.15,19.09a.29.29,0,1,0-.29-.29.29.29,0,0,0,.29.29h0" fill="#1a181b"/>
          </g>
          <rect x="6.77" y="20.47" width="29.94" height="0.25" fill="#1a181b"/>
        </g>
      </g>
    </g>
    <g>
      <g>
        <rect x="42.8" y="0.25" width="69.95" height="29.5" fill="#fff"/>
        <path d="M112.5.5v29H43V.5H112.5M113,0H42.55V30H113V0Z" fill="#003259"/>
      </g>
      <g>
        <path d="M70.17,8.86l-1-2.12V8.42a.52.52,0,0,0,.05.29.28.28,0,0,0,.22.08h.09v.07h-.89V8.79h.09a.26.26,0,0,0,.23-.1.56.56,0,0,0,0-.27V6.77a.58.58,0,0,0,0-.24.21.21,0,0,0-.1-.09.51.51,0,0,0-.23,0V6.34h.71l.91,2,.91-2h.71v.07h-.08a.26.26,0,0,0-.23.1.56.56,0,0,0,0,.27V8.42a.5.5,0,0,0,.05.29.28.28,0,0,0,.22.08h.09v.07H70.85V8.79h.09a.25.25,0,0,0,.23-.1.56.56,0,0,0,0-.27V6.74l-1,2.12Z" fill="#181716"/>
        <path d="M73.17,8.79v.07H72.09V8.79h.09a.27.27,0,0,0,.23-.09.57.57,0,0,0,0-.29V6.78a.83.83,0,0,0,0-.25.17.17,0,0,0-.08-.08.35.35,0,0,0-.17,0h-.09V6.33h1.08V6.4h-.09a.27.27,0,0,0-.23.09.55.55,0,0,0,0,.29V8.41a.83.83,0,0,0,0,.25.17.17,0,0,0,.08.08.34.34,0,0,0,.17,0Z" fill="#181716"/>
        <path d="M73.21,6.34h.69l1.54,1.9V6.77a.5.5,0,0,0-.05-.29.28.28,0,0,0-.22-.08h-.09V6.34H76v.07h-.09a.26.26,0,0,0-.23.1.56.56,0,0,0,0,.27V8.9h-.07l-1.66-2V8.42a.52.52,0,0,0,.05.29.28.28,0,0,0,.22.08h.09v.07h-.88V8.79h.09a.26.26,0,0,0,.23-.1.56.56,0,0,0,0-.27V6.67a1.15,1.15,0,0,0-.17-.17.61.61,0,0,0-.17-.08l-.17,0Z" fill="#181716"/>
        <path d="M77.19,8.79v.07H76.11V8.79h.09a.27.27,0,0,0,.23-.09.57.57,0,0,0,0-.29V6.78a.83.83,0,0,0,0-.25.17.17,0,0,0-.08-.08.35.35,0,0,0-.17,0h-.09V6.33h1.08V6.4h-.09a.27.27,0,0,0-.23.09.55.55,0,0,0,0,.29V8.41a.83.83,0,0,0,0,.25.17.17,0,0,0,.08.08.34.34,0,0,0,.17,0Z" fill="#181716"/>
        <path d="M79,6.28v.87H79a1.09,1.09,0,0,0-.12-.4.63.63,0,0,0-.25-.23.68.68,0,0,0-.32-.09.45.45,0,0,0-.32.12.36.36,0,0,0-.13.27.32.32,0,0,0,.08.21,2.06,2.06,0,0,0,.55.37,3.78,3.78,0,0,1,.48.29.71.71,0,0,1,.2.24.63.63,0,0,1,.07.29.65.65,0,0,1-.22.5.8.8,0,0,1-.57.21l-.21,0L78,8.83l-.23-.06a.1.1,0,0,0-.07,0,.22.22,0,0,0,0,.11h-.08V8h.07a1.22,1.22,0,0,0,.13.41.63.63,0,0,0,.25.23.78.78,0,0,0,.37.09.52.52,0,0,0,.37-.12.38.38,0,0,0,.14-.29.39.39,0,0,0-.05-.19A.56.56,0,0,0,78.66,8l-.4-.24a3.85,3.85,0,0,1-.46-.29.78.78,0,0,1-.21-.24.59.59,0,0,1-.07-.29.63.63,0,0,1,.21-.47.74.74,0,0,1,.53-.2,1.06,1.06,0,0,1,.43.1l.15,0a.11.11,0,0,0,.08,0A.23.23,0,0,0,79,6.28Z" fill="#181716"/>
        <path d="M81.6,6.34l0,.59h-.07a.71.71,0,0,0-.06-.22.37.37,0,0,0-.15-.16.53.53,0,0,0-.25-.05h-.36V8.42a.52.52,0,0,0,.05.29.28.28,0,0,0,.22.08h.09v.07H80V8.79h.09a.26.26,0,0,0,.23-.1.56.56,0,0,0,0-.27V6.49h-.32a.84.84,0,0,0-.25,0,.35.35,0,0,0-.17.14.55.55,0,0,0-.08.27h-.07l0-.59Z" fill="#181716"/>
        <path d="M82.52,6.47v1h.56a.45.45,0,0,0,.29-.07.42.42,0,0,0,.11-.3h.07V8h-.07a1,1,0,0,0-.05-.23.23.23,0,0,0-.11-.1.56.56,0,0,0-.23,0h-.56v.83a.77.77,0,0,0,0,.2.12.12,0,0,0,.05.06.32.32,0,0,0,.14,0h.43a1.16,1.16,0,0,0,.32,0,.46.46,0,0,0,.19-.12,1.43,1.43,0,0,0,.23-.35H84l-.22.63H81.79V8.79h.09a.36.36,0,0,0,.17,0,.16.16,0,0,0,.08-.09.87.87,0,0,0,0-.24V6.77a.54.54,0,0,0,0-.3.29.29,0,0,0-.22-.07h-.09V6.34h1.94l0,.55h-.07a.87.87,0,0,0-.09-.27.3.3,0,0,0-.14-.11.84.84,0,0,0-.26,0Zm0-1h.42l.2.63H83Z" fill="#181716"/>
        <path d="M86.62,8.86H86L85.1,7.68h-.25v.73a.51.51,0,0,0,.05.3.26.26,0,0,0,.21.08h.1v.07H84.13V8.79h.1a.25.25,0,0,0,.23-.1.59.59,0,0,0,0-.27V6.78a.51.51,0,0,0-.05-.3.27.27,0,0,0-.22-.08h-.1V6.33H85a2.18,2.18,0,0,1,.59.06.68.68,0,0,1,.32.22.56.56,0,0,1,.13.37.59.59,0,0,1-.15.4.85.85,0,0,1-.47.24l.52.72a1.29,1.29,0,0,0,.32.32.77.77,0,0,0,.33.1ZM84.85,7.57H85a.82.82,0,0,0,.54-.16.5.5,0,0,0,.18-.4.52.52,0,0,0-.15-.38.53.53,0,0,0-.39-.15l-.29,0Z" fill="#181716"/>
        <path d="M87.39,6.47v1h.56a.45.45,0,0,0,.29-.07.42.42,0,0,0,.11-.3h.07V8h-.07a1,1,0,0,0-.05-.23.23.23,0,0,0-.11-.1.56.56,0,0,0-.23,0h-.56v.83a.77.77,0,0,0,0,.2.12.12,0,0,0,.05.06.32.32,0,0,0,.14,0H88a1.16,1.16,0,0,0,.32,0,.46.46,0,0,0,.19-.12,1.43,1.43,0,0,0,.23-.35h.07l-.22.63H86.67V8.79h.08a.36.36,0,0,0,.17,0A.16.16,0,0,0,87,8.66a.87.87,0,0,0,0-.24V6.77a.54.54,0,0,0,0-.3.29.29,0,0,0-.22-.07h-.09V6.34H88.6l0,.55h-.07a.87.87,0,0,0-.09-.27.3.3,0,0,0-.14-.11.84.84,0,0,0-.26,0Z" fill="#181716"/>
        <path d="M47.72,13.77v-.07h.1A.25.25,0,0,0,48,13.6a.58.58,0,0,0,0-.28V11.69a.52.52,0,0,0-.05-.3.27.27,0,0,0-.22-.08h-.09v-.07h1a2.24,2.24,0,0,1,.88.13,1,1,0,0,1,.47.43,1.32,1.32,0,0,1,.18.69,1.27,1.27,0,0,1-.32.88,1.41,1.41,0,0,1-1.09.39Zm.73-.18a1.9,1.9,0,0,0,.4.05,1,1,0,0,0,.72-.32,1.33,1.33,0,0,0,0-1.65,1,1,0,0,0-.73-.3,1.59,1.59,0,0,0-.38.05Z" fill="#181716"/>
        <path d="M51.21,11.39v1h.56a.45.45,0,0,0,.29-.07.42.42,0,0,0,.11-.31h.07v.89h-.07a1,1,0,0,0-.05-.23.23.23,0,0,0-.11-.1.56.56,0,0,0-.23,0h-.56v.83a.77.77,0,0,0,0,.2.12.12,0,0,0,.05.06.32.32,0,0,0,.14,0h.44a1.16,1.16,0,0,0,.32,0,.46.46,0,0,0,.19-.12,1.43,1.43,0,0,0,.23-.35h.07l-.22.63H50.49v-.07h.08a.36.36,0,0,0,.17,0,.16.16,0,0,0,.08-.09.88.88,0,0,0,0-.24V11.69a.54.54,0,0,0,0-.3.29.29,0,0,0-.22-.07h-.09v-.07h1.94l0,.55h-.07a.87.87,0,0,0-.09-.27.3.3,0,0,0-.14-.11.84.84,0,0,0-.26,0Z" fill="#181716"/>
        <path d="M55.87,13.08h.06l-.22.69h-2V13.7h.1a.25.25,0,0,0,.23-.1.6.6,0,0,0,0-.28V11.69a.52.52,0,0,0-.05-.3.27.27,0,0,0-.22-.08h-.1v-.07h1.14v.07a.7.7,0,0,0-.28,0,.23.23,0,0,0-.11.1.81.81,0,0,0,0,.29v1.59a.51.51,0,0,0,0,.21.13.13,0,0,0,.07.06,1.21,1.21,0,0,0,.29,0h.18a1.33,1.33,0,0,0,.41,0,.53.53,0,0,0,.21-.15A1.24,1.24,0,0,0,55.87,13.08Z" fill="#181716"/>
        <path d="M56.11,12.16v-.09a.84.84,0,0,0,.26-.21.29.29,0,0,0,0-.17.15.15,0,0,0,0-.09l0,0H56.3l-.08,0a.2.2,0,0,1-.13-.34.27.27,0,0,1,.19-.07.32.32,0,0,1,.23.1.36.36,0,0,1,.1.26.58.58,0,0,1-.17.4A.81.81,0,0,1,56.11,12.16Z" fill="#181716"/>
        <path d="M57.73,11.39v1h.56a.45.45,0,0,0,.29-.07.42.42,0,0,0,.11-.3h.07v.88h-.07a1,1,0,0,0-.05-.23.23.23,0,0,0-.11-.1.56.56,0,0,0-.23,0h-.56v.83a.77.77,0,0,0,0,.2.12.12,0,0,0,.05.06.32.32,0,0,0,.14,0h.43a1.16,1.16,0,0,0,.32,0,.46.46,0,0,0,.19-.12,1.43,1.43,0,0,0,.23-.35h.07l-.22.63H57v-.07h.09a.36.36,0,0,0,.17,0,.16.16,0,0,0,.08-.09.88.88,0,0,0,0-.24V11.69a.54.54,0,0,0,0-.3.29.29,0,0,0-.22-.07H57v-.07H59l0,.55h-.07a.87.87,0,0,0-.09-.27.3.3,0,0,0-.14-.11.84.84,0,0,0-.26,0Z" fill="#181716"/>
        <path d="M59.21,11.26h.69l1.54,1.9V11.69a.5.5,0,0,0-.05-.29.28.28,0,0,0-.22-.08h-.09v-.07H62v.07h-.09a.26.26,0,0,0-.23.1.56.56,0,0,0,0,.27v2.13h-.07l-1.66-2v1.55a.52.52,0,0,0,.05.29.28.28,0,0,0,.22.08h.09v.07h-.88v-.07h.09a.26.26,0,0,0,.23-.1.56.56,0,0,0,0-.27V11.59a1.15,1.15,0,0,0-.17-.17.61.61,0,0,0-.17-.08l-.17,0Z" fill="#181716"/>
        <path d="M63.76,11.2v.87h-.07a1.09,1.09,0,0,0-.12-.4.63.63,0,0,0-.25-.23.68.68,0,0,0-.32-.09.45.45,0,0,0-.32.12.36.36,0,0,0-.13.27.32.32,0,0,0,.08.21,2.06,2.06,0,0,0,.54.38,3.81,3.81,0,0,1,.48.29.71.71,0,0,1,.2.24.63.63,0,0,1,.07.29.65.65,0,0,1-.22.5.81.81,0,0,1-.57.21l-.21,0-.24-.07-.23-.06a.1.1,0,0,0-.07,0,.22.22,0,0,0,0,.11h-.07V13h.07a1.22,1.22,0,0,0,.13.41.63.63,0,0,0,.25.23.77.77,0,0,0,.37.09.53.53,0,0,0,.37-.12.38.38,0,0,0,.12-.28.39.39,0,0,0-.05-.19.56.56,0,0,0-.16-.18l-.4-.24a3.83,3.83,0,0,1-.46-.29.78.78,0,0,1-.21-.24.59.59,0,0,1-.07-.29.63.63,0,0,1,.21-.47.74.74,0,0,1,.53-.2,1.06,1.06,0,0,1,.43.1l.15,0a.11.11,0,0,0,.08,0,.23.23,0,0,0,0-.12Z" fill="#181716"/>
        <path d="M64.93,11.39v1h.56a.45.45,0,0,0,.29-.07.42.42,0,0,0,.11-.3H66v.88h-.07a1,1,0,0,0-.05-.23.23.23,0,0,0-.11-.1.56.56,0,0,0-.23,0h-.56v.83a.77.77,0,0,0,0,.2.12.12,0,0,0,.05.06.32.32,0,0,0,.14,0h.43a1.16,1.16,0,0,0,.32,0,.46.46,0,0,0,.19-.12,1.43,1.43,0,0,0,.23-.35h.07l-.22.63H64.22v-.07h.09a.36.36,0,0,0,.17,0,.16.16,0,0,0,.08-.09.88.88,0,0,0,0-.24V11.69a.54.54,0,0,0,0-.3.29.29,0,0,0-.22-.07h-.09v-.07h1.94l0,.55h-.07a.87.87,0,0,0-.09-.27.3.3,0,0,0-.14-.11.84.84,0,0,0-.26,0Z" fill="#181716"/>
        <path d="M67.63,13.71v.07H66.55v-.07h.09a.27.27,0,0,0,.23-.09.56.56,0,0,0,0-.29V11.69a.83.83,0,0,0,0-.25.17.17,0,0,0-.08-.08.35.35,0,0,0-.17,0h-.09v-.07h1.08v.07h-.09a.27.27,0,0,0-.23.09.55.55,0,0,0,0,.29v1.63a.83.83,0,0,0,0,.25.17.17,0,0,0,.08.08.34.34,0,0,0,.17,0Z" fill="#181716"/>
        <path d="M70.06,11.2l.06.8h-.06a1.09,1.09,0,0,0-.25-.45.8.8,0,0,0-.58-.22.82.82,0,0,0-.73.38,1.37,1.37,0,0,0-.21.76,1.53,1.53,0,0,0,.14.66,1,1,0,0,0,.36.43.88.88,0,0,0,.46.14,1,1,0,0,0,.27,0,1.08,1.08,0,0,0,.25-.1v-.73a.68.68,0,0,0,0-.25.19.19,0,0,0-.09-.09.52.52,0,0,0-.21,0V12.4h1v.07h0a.21.21,0,0,0-.2.1.65.65,0,0,0,0,.27v.76a1.9,1.9,0,0,1-.42.17,1.85,1.85,0,0,1-.46.05,1.35,1.35,0,0,1-1.11-.47,1.25,1.25,0,0,1-.29-.81,1.42,1.42,0,0,1,.68-1.2,1.27,1.27,0,0,1,.65-.16l.25,0,.32.1.14,0a.08.08,0,0,0,.06,0,.25.25,0,0,0,0-.13Z" fill="#181716"/>
        <path d="M70.42,11.26h.69l1.54,1.9V11.69a.5.5,0,0,0-.05-.29.28.28,0,0,0-.22-.08h-.09v-.07h.88v.07h-.09a.26.26,0,0,0-.23.1.56.56,0,0,0,0,.27v2.13h-.07l-1.66-2v1.55a.52.52,0,0,0,.05.29.28.28,0,0,0,.22.08h.09v.07h-.88v-.07h.09a.26.26,0,0,0,.23-.11.56.56,0,0,0,0-.27V11.59a1.15,1.15,0,0,0-.17-.17.61.61,0,0,0-.17-.08l-.17,0Z" fill="#181716"/>
        <path d="M74,11.39v1h.56a.45.45,0,0,0,.29-.07A.42.42,0,0,0,75,12H75v.88H75a1,1,0,0,0-.05-.23.23.23,0,0,0-.11-.1.56.56,0,0,0-.23,0H74v.83a.77.77,0,0,0,0,.2.12.12,0,0,0,.05.06.32.32,0,0,0,.14,0h.43a1.16,1.16,0,0,0,.32,0,.46.46,0,0,0,.19-.12,1.43,1.43,0,0,0,.23-.35h.07l-.22.63H73.29v-.07h.09a.36.36,0,0,0,.17,0,.16.16,0,0,0,.08-.09.88.88,0,0,0,0-.24V11.69a.54.54,0,0,0,0-.3.29.29,0,0,0-.22-.07H73.3v-.07h1.94l0,.55H75.2a.87.87,0,0,0-.09-.27.3.3,0,0,0-.14-.11.84.84,0,0,0-.26,0Z" fill="#181716"/>
        <path d="M77.11,13.77l-1-2.12v1.69a.52.52,0,0,0,.05.29.28.28,0,0,0,.22.08h.09v.07h-.88v-.07h.09a.26.26,0,0,0,.23-.1.56.56,0,0,0,0-.27V11.69a.58.58,0,0,0,0-.24.21.21,0,0,0-.1-.09.51.51,0,0,0-.23,0v-.07h.71l.9,2,.9-2h.71v.07h-.09a.26.26,0,0,0-.23.1.56.56,0,0,0,0,.27v1.65a.5.5,0,0,0,.05.29.28.28,0,0,0,.22.08h.09v.07H77.79v-.07h.08a.25.25,0,0,0,.23-.1.56.56,0,0,0,0-.27V11.66l-1,2.12Z" fill="#181716"/>
        <path d="M79.73,11.39v1h.56a.45.45,0,0,0,.29-.07.42.42,0,0,0,.11-.3h.07v.88h-.07a1,1,0,0,0-.05-.23.23.23,0,0,0-.11-.1.56.56,0,0,0-.23,0h-.56v.83a.77.77,0,0,0,0,.2.12.12,0,0,0,.05.06.32.32,0,0,0,.14,0h.43a1.16,1.16,0,0,0,.32,0,.46.46,0,0,0,.19-.12,1.43,1.43,0,0,0,.23-.35h.07l-.22.63H79v-.07h.09a.36.36,0,0,0,.17,0,.16.16,0,0,0,.08-.09.88.88,0,0,0,0-.24V11.69a.54.54,0,0,0,0-.3.29.29,0,0,0-.22-.07H79v-.07H81l0,.55h-.07a.87.87,0,0,0-.09-.27.3.3,0,0,0-.14-.11.84.84,0,0,0-.26,0Z" fill="#181716"/>
        <path d="M81.21,11.26h.69l1.54,1.9V11.69a.5.5,0,0,0-.05-.29.28.28,0,0,0-.22-.08h-.09v-.07H84v.07h-.09a.26.26,0,0,0-.23.1.56.56,0,0,0,0,.27v2.13h-.07l-1.66-2v1.55a.52.52,0,0,0,.05.29.28.28,0,0,0,.22.08h.09v.07h-.88v-.07h.09a.26.26,0,0,0,.23-.11.56.56,0,0,0,0-.27V11.59a1.15,1.15,0,0,0-.17-.17.61.61,0,0,0-.17-.08l-.17,0Z" fill="#181716"/>
        <path d="M86.22,11.26l0,.59h-.07a.71.71,0,0,0-.06-.22.37.37,0,0,0-.15-.16.54.54,0,0,0-.25-.05h-.36v1.93a.52.52,0,0,0,.05.29.28.28,0,0,0,.22.08h.09v.07H84.65v-.07h.09a.26.26,0,0,0,.23-.1.56.56,0,0,0,0-.27V11.41h-.32a.84.84,0,0,0-.25,0,.35.35,0,0,0-.17.14.55.55,0,0,0-.08.27h-.07l0-.59Z" fill="#181716"/>
        <path d="M89,11.2v.87H88.9a1.09,1.09,0,0,0-.12-.4.63.63,0,0,0-.25-.23.68.68,0,0,0-.32-.09.45.45,0,0,0-.32.12.36.36,0,0,0-.13.27.32.32,0,0,0,.08.21,2.06,2.06,0,0,0,.53.38,3.81,3.81,0,0,1,.48.29.71.71,0,0,1,.2.24.63.63,0,0,1,.07.29.65.65,0,0,1-.22.5.81.81,0,0,1-.57.21l-.21,0-.24-.07-.23-.06a.1.1,0,0,0-.07,0,.22.22,0,0,0,0,.11h-.07V13h.07a1.22,1.22,0,0,0,.13.41.63.63,0,0,0,.25.23.77.77,0,0,0,.37.09.53.53,0,0,0,.37-.12.38.38,0,0,0,.13-.29.39.39,0,0,0-.05-.19.56.56,0,0,0-.16-.18l-.4-.24a3.83,3.83,0,0,1-.46-.29.78.78,0,0,1-.21-.24.59.59,0,0,1-.07-.29.63.63,0,0,1,.21-.47.74.74,0,0,1,.53-.2,1.06,1.06,0,0,1,.43.1l.15,0a.11.11,0,0,0,.08,0,.23.23,0,0,0,0-.12Z" fill="#181716"/>
        <path d="M91.16,11.32v-.07h.89v.07H92a.26.26,0,0,0-.23.12.57.57,0,0,0,0,.27v1a1.81,1.81,0,0,1-.08.59.74.74,0,0,1-.3.36,1.05,1.05,0,0,1-.6.15,1.13,1.13,0,0,1-.63-.14.77.77,0,0,1-.32-.38,2.14,2.14,0,0,1-.06-.63v-1a.5.5,0,0,0-.06-.32.26.26,0,0,0-.21-.07h-.1v-.07h1.09v.07h-.1a.25.25,0,0,0-.22.1.55.55,0,0,0,0,.28v1.1a2.43,2.43,0,0,0,0,.34.72.72,0,0,0,.1.3.53.53,0,0,0,.2.17.7.7,0,0,0,.32.07.9.9,0,0,0,.44-.11.58.58,0,0,0,.27-.28,1.59,1.59,0,0,0,.07-.57v-1a.52.52,0,0,0-.05-.3.27.27,0,0,0-.22-.08Z" fill="#181716"/>
        <path d="M92.87,12.59v.73a.51.51,0,0,0,.05.3.27.27,0,0,0,.21.08h.1v.07H92.15v-.07h.1a.25.25,0,0,0,.22-.11.61.61,0,0,0,0-.27V11.69a.53.53,0,0,0-.05-.3.27.27,0,0,0-.22-.08h-.09v-.07h.92a1.64,1.64,0,0,1,.53.07.73.73,0,0,1,.32.23.6.6,0,0,1,.13.39.66.66,0,0,1-.2.5.8.8,0,0,1-.57.19h-.2Zm0-.1.17,0h.13a.44.44,0,0,0,.33-.15.54.54,0,0,0,.14-.39.7.7,0,0,0-.07-.32.46.46,0,0,0-.19-.21.56.56,0,0,0-.28-.07l-.24,0Z" fill="#181716"/>
        <path d="M95,11.39v1h.56a.45.45,0,0,0,.29-.07A.42.42,0,0,0,96,12H96v.89H96a1,1,0,0,0-.05-.23.23.23,0,0,0-.11-.1.56.56,0,0,0-.23,0H95v.83a.77.77,0,0,0,0,.2.12.12,0,0,0,.05.06.32.32,0,0,0,.14,0h.44a1.16,1.16,0,0,0,.32,0,.46.46,0,0,0,.19-.12,1.43,1.43,0,0,0,.23-.35h.07l-.22.63H94.29v-.07h.08a.36.36,0,0,0,.17,0,.16.16,0,0,0,.08-.09.87.87,0,0,0,0-.24V11.69a.54.54,0,0,0,0-.3.29.29,0,0,0-.22-.07h-.09v-.07h1.94l0,.55h-.07a.87.87,0,0,0-.09-.27.3.3,0,0,0-.14-.11.84.84,0,0,0-.26,0Zm.79-1-.55.63h-.06l.2-.63Z" fill="#181716"/>
        <path d="M99.11,13.77h-.67l-.85-1.18h-.26v.73a.51.51,0,0,0,.05.3.26.26,0,0,0,.21.08h.1v.07H96.59v-.07h.1a.25.25,0,0,0,.23-.1.59.59,0,0,0,0-.27V11.69a.51.51,0,0,0-.05-.3.27.27,0,0,0-.22-.08h-.1v-.07h.92a2.18,2.18,0,0,1,.59.06.68.68,0,0,1,.32.22.56.56,0,0,1,.13.37.59.59,0,0,1-.15.4.85.85,0,0,1-.47.24l.54.74a1.29,1.29,0,0,0,.32.32.77.77,0,0,0,.33.1Zm-1.79-1.29h.1a.82.82,0,0,0,.54-.16.5.5,0,0,0,.18-.4.52.52,0,0,0-.15-.38.53.53,0,0,0-.39-.15l-.29,0Z" fill="#181716"/>
        <path d="M100.25,13.71v.07H99.17v-.07h.09a.27.27,0,0,0,.23-.09.57.57,0,0,0,0-.29V11.69a.83.83,0,0,0,0-.25.17.17,0,0,0-.06-.06.35.35,0,0,0-.17,0h-.09v-.07h1.08v.07h-.09a.27.27,0,0,0-.23.09.55.55,0,0,0,0,.29v1.63a.83.83,0,0,0,0,.25.17.17,0,0,0,.08.08.34.34,0,0,0,.17,0Z" fill="#181716"/>
        <path d="M101.14,11.39v1h.56a.45.45,0,0,0,.29-.06.42.42,0,0,0,.11-.3h.07v.87h-.07a1,1,0,0,0-.05-.23.23.23,0,0,0-.11-.1.56.56,0,0,0-.23,0h-.56v.83a.77.77,0,0,0,0,.2.12.12,0,0,0,.05.06.32.32,0,0,0,.14,0h.43a1.16,1.16,0,0,0,.32,0,.46.46,0,0,0,.19-.12,1.43,1.43,0,0,0,.23-.35h.07l-.22.63h-1.94v-.07h.09a.36.36,0,0,0,.17,0,.16.16,0,0,0,.08-.09.87.87,0,0,0,0-.24V11.69a.54.54,0,0,0,0-.3.29.29,0,0,0-.22-.07h-.09v-.07h1.94l0,.55h-.07a.87.87,0,0,0-.09-.27.3.3,0,0,0-.14-.11.84.84,0,0,0-.26,0Z" fill="#181716"/>
        <path d="M104.49,11.32v-.07h.89v.07h-.1a.26.26,0,0,0-.23.12.57.57,0,0,0,0,.27v1a1.81,1.81,0,0,1-.08.59.74.74,0,0,1-.3.36,1.05,1.05,0,0,1-.6.15,1.13,1.13,0,0,1-.63-.14.77.77,0,0,1-.32-.38,2.14,2.14,0,0,1-.06-.63v-1a.49.49,0,0,0-.06-.32.26.26,0,0,0-.21-.07h-.1v-.07h1.09v.07h-.1a.25.25,0,0,0-.22.1.55.55,0,0,0,0,.28v1.1a2.42,2.42,0,0,0,0,.34.72.72,0,0,0,.1.3.53.53,0,0,0,.2.17.7.7,0,0,0,.32.07.9.9,0,0,0,.44-.11.58.58,0,0,0,.27-.28,1.59,1.59,0,0,0,.07-.57v-1a.52.52,0,0,0-.05-.3.27.27,0,0,0-.22-.08Z" fill="#181716"/>
        <path d="M108,13.77h-.67l-.85-1.18h-.26v.73a.51.51,0,0,0,.05.3.26.26,0,0,0,.21.08h.1v.07h-1.09v-.07h.1a.25.25,0,0,0,.23-.1.59.59,0,0,0,0-.27V11.69a.51.51,0,0,0-.05-.3.27.27,0,0,0-.22-.08h-.1v-.07h.92a2.18,2.18,0,0,1,.59.06.68.68,0,0,1,.32.22.56.56,0,0,1,.13.37.59.59,0,0,1-.15.4.85.85,0,0,1-.47.24l.54.74a1.29,1.29,0,0,0,.32.32.77.77,0,0,0,.33.1Zm-1.79-1.29h.1a.82.82,0,0,0,.54-.16.5.5,0,0,0,.18-.4.52.52,0,0,0-.15-.38.53.53,0,0,0-.39-.15l-.29,0Z" fill="#181716"/>
        <path d="M108.17,14.41v-.08a.61.61,0,0,0,.3-.2.45.45,0,0,0,.1-.28.1.1,0,0,0,0-.06l0,0-.09,0-.07,0a.2.2,0,0,1-.15-.05.2.2,0,0,1-.05-.15.21.21,0,0,1,.07-.16.24.24,0,0,1,.17-.07.29.29,0,0,1,.22.11.41.41,0,0,1,.1.28.56.56,0,0,1-.13.36A.88.88,0,0,1,108.17,14.41Z" fill="#181716"/>
        <path d="M61.58,18.69v-.07h.1a.25.25,0,0,0,.23-.1.58.58,0,0,0,0-.28V16.62a.52.52,0,0,0-.05-.3.27.27,0,0,0-.22-.08h-.1v-.07h1a2.24,2.24,0,0,1,.86.13,1,1,0,0,1,.47.43,1.32,1.32,0,0,1,.18.69,1.27,1.27,0,0,1-.32.88,1.41,1.41,0,0,1-1.09.39Zm.72-.18a1.9,1.9,0,0,0,.4.05,1,1,0,0,0,.72-.32,1.33,1.33,0,0,0,0-1.65,1,1,0,0,0-.73-.3,1.59,1.59,0,0,0-.38.05Z" fill="#181716"/>
        <path d="M65.07,16.31v1h.56a.45.45,0,0,0,.29-.07.42.42,0,0,0,.11-.3h.07v.88H66a1,1,0,0,0-.05-.23.23.23,0,0,0-.11-.1.56.56,0,0,0-.23,0h-.56v.83a.77.77,0,0,0,0,.2.12.12,0,0,0,.05.06.32.32,0,0,0,.14,0h.43a1.16,1.16,0,0,0,.32,0,.46.46,0,0,0,.19-.12,1.43,1.43,0,0,0,.23-.35h.07l-.22.63H64.34v-.07h.09a.36.36,0,0,0,.17,0,.16.16,0,0,0,.08-.09.87.87,0,0,0,0-.24V16.61a.54.54,0,0,0,0-.3.29.29,0,0,0-.22-.07h-.09v-.07h1.94l0,.55h-.07a.87.87,0,0,0-.09-.27.3.3,0,0,0-.14-.11.84.84,0,0,0-.26,0Z" fill="#181716"/>
        <path d="M69.73,18h.06l-.22.69h-2v-.07h.1a.25.25,0,0,0,.23-.1.6.6,0,0,0,0-.28V16.62a.52.52,0,0,0-.05-.3.27.27,0,0,0-.22-.08h-.1v-.07h1.14v.07a.7.7,0,0,0-.28,0,.23.23,0,0,0-.11.1.81.81,0,0,0,0,.29v1.59a.51.51,0,0,0,0,.21.13.13,0,0,0,.07.06,1.21,1.21,0,0,0,.29,0h.18a1.33,1.33,0,0,0,.41,0,.53.53,0,0,0,.21-.15A1.24,1.24,0,0,0,69.73,18Z" fill="#181716"/>
        <path d="M71.62,17.85h-1l-.17.4a.63.63,0,0,0-.06.22.13.13,0,0,0,.05.1.48.48,0,0,0,.24.06v.07H69.9v-.07a.43.43,0,0,0,.2-.07,1.14,1.14,0,0,0,.21-.36l.89-2.07h.07l.89,2.1a1,1,0,0,0,.19.32.39.39,0,0,0,.24.09v.07h-1v-.07a.37.37,0,0,0,.2-.05.13.13,0,0,0,.05-.1.77.77,0,0,0-.07-.26Zm-.05-.14-.43-1-.44,1Z" fill="#181716"/>
        <path d="M75.94,18.69h-.67l-.85-1.18h-.26v.73a.51.51,0,0,0,.05.3.27.27,0,0,0,.21.08h.1v.07H73.42v-.07h.1a.25.25,0,0,0,.23-.1.59.59,0,0,0,0-.27V16.62a.51.51,0,0,0-.05-.3.27.27,0,0,0-.22-.08h-.1v-.07h.92a2.18,2.18,0,0,1,.59.06.68.68,0,0,1,.32.22.56.56,0,0,1,.13.37.59.59,0,0,1-.15.4.86.86,0,0,1-.47.24l.52.72a1.29,1.29,0,0,0,.32.32.77.77,0,0,0,.33.1Zm-1.79-1.29h.1a.82.82,0,0,0,.54-.16.5.5,0,0,0,.18-.4.52.52,0,0,0-.15-.38.53.53,0,0,0-.39-.15l-.29,0Z" fill="#181716"/>
        <path d="M76.7,16.31v1h.56a.45.45,0,0,0,.29-.07.42.42,0,0,0,.11-.3h.07v.88h-.07a1,1,0,0,0-.05-.23.23.23,0,0,0-.11-.1.56.56,0,0,0-.23,0H76.7v.83a.77.77,0,0,0,0,.2.12.12,0,0,0,.05.06.32.32,0,0,0,.14,0h.43a1.16,1.16,0,0,0,.32,0,.46.46,0,0,0,.19-.12,1.43,1.43,0,0,0,.23-.35h.07l-.22.63H76v-.07h.09a.35.35,0,0,0,.17,0,.16.16,0,0,0,.08-.09.87.87,0,0,0,0-.24V16.61a.54.54,0,0,0,0-.3.29.29,0,0,0-.22-.07H76v-.07h1.94l0,.55h-.07a.87.87,0,0,0-.09-.27.3.3,0,0,0-.14-.11.84.84,0,0,0-.26,0Z" fill="#181716"/>
        <path d="M80.53,16.12l.06.86h-.06a1.08,1.08,0,0,0-.32-.56.86.86,0,0,0-1.3.35,1.81,1.81,0,0,0-.12.7,1.47,1.47,0,0,0,.11.59.82.82,0,0,0,.32.38,1,1,0,0,0,.5.13.87.87,0,0,0,.43-.1,1.43,1.43,0,0,0,.41-.42l.06,0a1.32,1.32,0,0,1-.44.49,1.12,1.12,0,0,1-.6.16,1.14,1.14,0,0,1-1-.46,1.33,1.33,0,0,1-.26-.82,1.45,1.45,0,0,1,.17-.7,1.22,1.22,0,0,1,.47-.49,1.27,1.27,0,0,1,.63-.17,1.19,1.19,0,0,1,.54.13l.11,0a.12.12,0,0,0,.09,0,.29.29,0,0,0,.07-.14Z" fill="#181716"/>
        <path d="M81.56,17.34h1.17v-.72a.84.84,0,0,0,0-.25.17.17,0,0,0-.08-.08.34.34,0,0,0-.17,0h-.09v-.07h1.08v.07h-.09a.36.36,0,0,0-.17,0,.16.16,0,0,0-.08.09.9.9,0,0,0,0,.25v1.63a.83.83,0,0,0,0,.25.17.17,0,0,0,.08.08.35.35,0,0,0,.17,0h.09v.07H82.37v-.07h.09a.27.27,0,0,0,.23-.09.55.55,0,0,0,0-.29v-.77H81.56v.77a.83.83,0,0,0,0,.25.17.17,0,0,0,.08.08.34.34,0,0,0,.17,0h.09v.07H80.84v-.07h.09a.27.27,0,0,0,.23-.09.56.56,0,0,0,0-.29V16.62a.84.84,0,0,0,0-.25.17.17,0,0,0-.08-.08.35.35,0,0,0-.17,0h-.09v-.07h1.08v.07h-.09a.36.36,0,0,0-.17,0,.16.16,0,0,0-.08.09.86.86,0,0,0,0,.25Z" fill="#181716"/>
        <path d="M84.32,16.31v1h.56a.45.45,0,0,0,.29-.07.42.42,0,0,0,.11-.3h.07v.88h-.07a1,1,0,0,0-.05-.23.23.23,0,0,0-.11-.1.56.56,0,0,0-.23,0h-.56v.83a.77.77,0,0,0,0,.2.12.12,0,0,0,.05.06.32.32,0,0,0,.14,0h.43a1.16,1.16,0,0,0,.32,0,.46.46,0,0,0,.19-.12,1.43,1.43,0,0,0,.23-.35h.07l-.22.63H83.59v-.07h.09a.35.35,0,0,0,.17,0,.16.16,0,0,0,.08-.09.87.87,0,0,0,0-.24V16.61a.54.54,0,0,0,0-.3.29.29,0,0,0-.22-.07h-.09v-.07h1.94l0,.55h-.07a.87.87,0,0,0-.09-.27.3.3,0,0,0-.14-.11.84.84,0,0,0-.26,0Z" fill="#181716"/>
        <path d="M88.42,18.69h-.67l-.85-1.18h-.26v.73a.51.51,0,0,0,.05.3.27.27,0,0,0,.21.08H87v.07H85.92v-.07H86a.25.25,0,0,0,.23-.1.59.59,0,0,0,0-.27V16.62a.51.51,0,0,0-.05-.3.27.27,0,0,0-.22-.08h-.1v-.07h.92a2.18,2.18,0,0,1,.59.06.68.68,0,0,1,.32.22.56.56,0,0,1,.13.37.59.59,0,0,1-.15.4.85.85,0,0,1-.47.24l.52.72a1.29,1.29,0,0,0,.32.32.77.77,0,0,0,.33.1Zm-1.79-1.29h.12a.82.82,0,0,0,.54-.16.5.5,0,0,0,.18-.4.52.52,0,0,0-.15-.38.53.53,0,0,0-.39-.15l-.29,0Z" fill="#181716"/>
        <path d="M90.68,16.12l.06.86h-.06a1.08,1.08,0,0,0-.32-.56.86.86,0,0,0-1.3.35,1.81,1.81,0,0,0-.12.7,1.47,1.47,0,0,0,.11.59.82.82,0,0,0,.32.38,1,1,0,0,0,.5.13.87.87,0,0,0,.43-.1,1.43,1.43,0,0,0,.41-.42l.06,0a1.32,1.32,0,0,1-.44.49,1.12,1.12,0,0,1-.6.16,1.14,1.14,0,0,1-1-.46,1.33,1.33,0,0,1-.26-.82,1.45,1.45,0,0,1,.17-.7,1.22,1.22,0,0,1,.47-.49,1.27,1.27,0,0,1,.63-.17,1.19,1.19,0,0,1,.54.13l.11,0a.12.12,0,0,0,.09,0,.29.29,0,0,0,.07-.14Z" fill="#181716"/>
        <path d="M91.71,17.34h1.17v-.72a.84.84,0,0,0,0-.25.17.17,0,0,0-.08-.08.34.34,0,0,0-.17,0h-.09v-.07H93.6v.07h-.09a.36.36,0,0,0-.17,0,.16.16,0,0,0-.08.09.89.89,0,0,0,0,.25v1.63a.83.83,0,0,0,0,.25.17.17,0,0,0,.08.08.35.35,0,0,0,.17,0h.09v.07H92.53v-.07h.09a.27.27,0,0,0,.23-.09.55.55,0,0,0,0-.29v-.77H91.72v.77a.83.83,0,0,0,0,.25.17.17,0,0,0,.08.08.34.34,0,0,0,.17,0h.09v.07H91v-.07h.09a.27.27,0,0,0,.23-.09.56.56,0,0,0,0-.29V16.62a.84.84,0,0,0,0-.25.17.17,0,0,0-.08-.08.35.35,0,0,0-.17,0H91v-.07h1.08v.07H92a.36.36,0,0,0-.17,0,.16.16,0,0,0-.08.09.86.86,0,0,0,0,.25Z" fill="#181716"/>
        <path d="M94.48,16.31v1H95a.45.45,0,0,0,.29-.07.42.42,0,0,0,.11-.3h.07v.88h-.07a1,1,0,0,0-.05-.23.23.23,0,0,0-.11-.1.56.56,0,0,0-.23,0h-.56v.83a.77.77,0,0,0,0,.2.12.12,0,0,0,.05.06.32.32,0,0,0,.14,0h.43a1.16,1.16,0,0,0,.32,0,.46.46,0,0,0,.19-.12,1.43,1.43,0,0,0,.23-.35h.07l-.22.63H93.75v-.07h.09a.35.35,0,0,0,.17,0,.16.16,0,0,0,.08-.09.87.87,0,0,0,0-.24V16.61a.54.54,0,0,0,0-.3.29.29,0,0,0-.22-.07h-.09v-.07h1.94l0,.55h-.07a.87.87,0,0,0-.09-.27.3.3,0,0,0-.14-.11.84.84,0,0,0-.26,0Z" fill="#181716"/>
        <path d="M60.55,21.23v1h.56a.45.45,0,0,0,.29-.07.42.42,0,0,0,.11-.3h.07v.88H61.5a1,1,0,0,0-.05-.23.23.23,0,0,0-.11-.1.56.56,0,0,0-.23,0h-.56v.83a.77.77,0,0,0,0,.2.12.12,0,0,0,.05.06.32.32,0,0,0,.14,0h.43a1.16,1.16,0,0,0,.32,0,.46.46,0,0,0,.19-.12,1.43,1.43,0,0,0,.23-.35H62l-.22.63H59.84v-.07h.09a.36.36,0,0,0,.17,0,.16.16,0,0,0,.08-.09.88.88,0,0,0,0-.24V21.53a.54.54,0,0,0,0-.3.29.29,0,0,0-.22-.07h-.09v-.07h1.94l0,.55h-.07a.87.87,0,0,0-.09-.27.3.3,0,0,0-.14-.11.84.84,0,0,0-.26,0Z" fill="#181716"/>
        <path d="M64.29,21.09l0,.59h-.07a.71.71,0,0,0-.06-.22A.37.37,0,0,0,64,21.3a.54.54,0,0,0-.25-.05h-.36v1.93a.52.52,0,0,0,.05.29.28.28,0,0,0,.22.08h.09v.07H62.72v-.07h.09a.26.26,0,0,0,.23-.1.56.56,0,0,0,0-.27V21.25h-.32a.84.84,0,0,0-.25,0,.35.35,0,0,0-.17.14.55.55,0,0,0-.08.27h-.07l0-.59Z" fill="#181716"/>
        <path d="M65.36,23.61v-.07h.1a.25.25,0,0,0,.23-.1.58.58,0,0,0,0-.28V21.53a.52.52,0,0,0-.05-.3.27.27,0,0,0-.22-.08h-.1v-.07h1a2.24,2.24,0,0,1,.86.13,1,1,0,0,1,.47.44,1.32,1.32,0,0,1,.18.69,1.27,1.27,0,0,1-.32.88,1.41,1.41,0,0,1-1.09.39Zm.72-.18a1.9,1.9,0,0,0,.4.05,1,1,0,0,0,.72-.32,1.33,1.33,0,0,0,0-1.65,1,1,0,0,0-.73-.3,1.59,1.59,0,0,0-.38.05Z" fill="#181716"/>
        <path d="M68.84,21.23v1h.56a.45.45,0,0,0,.29-.07.42.42,0,0,0,.11-.3h.07v.88h-.07a1,1,0,0,0-.05-.23.23.23,0,0,0-.11-.1.56.56,0,0,0-.23,0h-.56v.83a.77.77,0,0,0,0,.2.12.12,0,0,0,.05.06.32.32,0,0,0,.14,0h.43a1.16,1.16,0,0,0,.32,0,.46.46,0,0,0,.19-.12A1.43,1.43,0,0,0,70.2,23h.07l-.22.63H68.12v-.07h.09a.36.36,0,0,0,.17,0,.16.16,0,0,0,.08-.09.88.88,0,0,0,0-.24V21.53a.54.54,0,0,0,0-.3.29.29,0,0,0-.22-.07h-.09v-.07h1.94l0,.55H70a.87.87,0,0,0-.09-.27.3.3,0,0,0-.14-.11.84.84,0,0,0-.26,0Z" fill="#181716"/>
        <path d="M73.5,22.92h.06l-.22.69h-2v-.07h.1a.25.25,0,0,0,.23-.1.6.6,0,0,0,0-.28V21.53a.52.52,0,0,0-.05-.3.27.27,0,0,0-.22-.08h-.1v-.07h1.14v.07a.7.7,0,0,0-.28,0,.23.23,0,0,0-.11.1.81.81,0,0,0,0,.29v1.59a.51.51,0,0,0,0,.21.13.13,0,0,0,.07.06,1.21,1.21,0,0,0,.29,0h.18a1.33,1.33,0,0,0,.41,0,.53.53,0,0,0,.21-.15A1.24,1.24,0,0,0,73.5,22.92Z" fill="#181716"/>
        <path d="M73.74,22v-.09A.84.84,0,0,0,74,21.7a.29.29,0,0,0,.06-.17.15.15,0,0,0,0-.09l0,0h-.05l-.08,0a.2.2,0,0,1-.13-.34.27.27,0,0,1,.19-.07.32.32,0,0,1,.23.1.36.36,0,0,1,.1.26.58.58,0,0,1-.17.4A.81.81,0,0,1,73.74,22Z" fill="#181716"/>
        <path d="M75.74,23.55v.07H74.66v-.07h.09a.27.27,0,0,0,.23-.09.56.56,0,0,0,0-.29V21.53a.83.83,0,0,0,0-.25.17.17,0,0,0-.08-.08.35.35,0,0,0-.17,0h-.09v-.07h1.08v.07h-.1a.27.27,0,0,0-.23.09.55.55,0,0,0,0,.29v1.63a.83.83,0,0,0,0,.25.17.17,0,0,0,.08.08.34.34,0,0,0,.17,0Z" fill="#181716"/>
        <path d="M75.79,21.09h.69L78,23V21.53a.5.5,0,0,0-.05-.29.28.28,0,0,0-.22-.08h-.09v-.07h.88v.07h-.09a.26.26,0,0,0-.23.1.56.56,0,0,0,0,.27v2.13h-.07l-1.66-2v1.55a.52.52,0,0,0,.05.29.28.28,0,0,0,.22.08h.09v.07h-.88v-.07H76a.26.26,0,0,0,.23-.1.56.56,0,0,0,0-.27V21.42a1.15,1.15,0,0,0-.17-.17.61.61,0,0,0-.17-.08l-.17,0Z" fill="#181716"/>
        <path d="M78.53,21.09h.69L80.76,23V21.53a.5.5,0,0,0-.05-.29.28.28,0,0,0-.22-.08H80.4v-.07h.88v.07h-.09a.26.26,0,0,0-.23.1.56.56,0,0,0,0,.27v2.13h-.07l-1.66-2v1.55a.52.52,0,0,0,.05.29.28.28,0,0,0,.22.08h.09v.07h-.88v-.07h.09a.26.26,0,0,0,.23-.1.56.56,0,0,0,0-.27V21.42a1.15,1.15,0,0,0-.17-.17.61.61,0,0,0-.17-.08l-.17,0Z" fill="#181716"/>
        <path d="M82.73,21a1.15,1.15,0,0,1,.85.37,1.29,1.29,0,0,1,.36.93,1.33,1.33,0,0,1-.36,1,1.21,1.21,0,0,1-1.71,0l0,0a1.33,1.33,0,0,1-.36-1,1.27,1.27,0,0,1,.41-1A1.21,1.21,0,0,1,82.73,21Zm0,.14a.67.67,0,0,0-.54.25,1.42,1.42,0,0,0-.25.91,1.5,1.5,0,0,0,.26,1,.65.65,0,0,0,.54.25.73.73,0,0,0,.59-.28,1.35,1.35,0,0,0,.23-.87,1.53,1.53,0,0,0-.25-1,.69.69,0,0,0-.57-.27Z" fill="#181716"/>
        <path d="M86.79,21.09v.07a.41.41,0,0,0-.2.09.77.77,0,0,0-.17.28l-.88,2.15h-.07l-1-2.17a1.2,1.2,0,0,0-.1-.2.32.32,0,0,0-.11-.09.53.53,0,0,0-.18,0V21.1h1.05v.07a.47.47,0,0,0-.23.06.14.14,0,0,0-.05.11.84.84,0,0,0,.09.29l.63,1.48.6-1.46a1,1,0,0,0,.09-.3.14.14,0,0,0-.05-.1.36.36,0,0,0-.18-.07h0V21.1Z" fill="#181716"/>
        <path d="M88.09,22.77h-1l-.17.4a.63.63,0,0,0-.06.22.13.13,0,0,0,.05.1.48.48,0,0,0,.24.06v.07h-.79v-.07a.43.43,0,0,0,.2-.07,1.14,1.14,0,0,0,.21-.36L87.67,21h.07l.88,2.09a1,1,0,0,0,.19.32.39.39,0,0,0,.24.09v.07h-1v-.07a.37.37,0,0,0,.2-.05.13.13,0,0,0,.05-.1.77.77,0,0,0-.07-.26ZM88,22.63l-.43-1-.44,1Z" fill="#181716"/>
        <path d="M90.88,21.09l0,.59h-.07a.71.71,0,0,0-.06-.22.37.37,0,0,0-.15-.16.54.54,0,0,0-.25-.05H90v1.93a.52.52,0,0,0,.05.29.28.28,0,0,0,.22.08h.09v.07H89.29v-.07h.09a.26.26,0,0,0,.23-.11.56.56,0,0,0,0-.27V21.25h-.32a.84.84,0,0,0-.25,0,.35.35,0,0,0-.17.14.55.55,0,0,0-.08.27h-.07l0-.59Z" fill="#181716"/>
        <path d="M92.17,23.55v.07H91.1v-.07h.1a.27.27,0,0,0,.23-.09.56.56,0,0,0,0-.29V21.53a.83.83,0,0,0,0-.25.17.17,0,0,0-.08-.08.35.35,0,0,0-.17,0H91.1v-.07h1.08v.07h-.09a.27.27,0,0,0-.23.09.55.55,0,0,0,0,.29v1.63a.83.83,0,0,0,0,.25.17.17,0,0,0,.08.08.34.34,0,0,0,.17,0Z" fill="#181716"/>
        <path d="M93.66,21a1.14,1.14,0,0,1,.85.37,1.29,1.29,0,0,1,.36.93,1.33,1.33,0,0,1-.36,1,1.21,1.21,0,0,1-1.71,0l0,0a1.33,1.33,0,0,1-.36-1,1.27,1.27,0,0,1,.41-1A1.21,1.21,0,0,1,93.66,21Zm0,.14a.67.67,0,0,0-.54.25,1.42,1.42,0,0,0-.25.91,1.5,1.5,0,0,0,.26,1,.65.65,0,0,0,.54.25.73.73,0,0,0,.59-.28,1.35,1.35,0,0,0,.23-.87,1.53,1.53,0,0,0-.25-1,.69.69,0,0,0-.57-.27Z" fill="#181716"/>
        <path d="M95,21.09h.69L97.2,23V21.53a.5.5,0,0,0-.05-.29.28.28,0,0,0-.22-.08h-.09v-.07h.88v.07h-.09a.26.26,0,0,0-.23.1.56.56,0,0,0,0,.27v2.13h-.07l-1.66-2v1.55a.52.52,0,0,0,.05.29.28.28,0,0,0,.22.08H96v.07h-.88v-.07h.09a.26.26,0,0,0,.23-.1.56.56,0,0,0,0-.27V21.42a1.15,1.15,0,0,0-.17-.17.61.61,0,0,0-.17-.08l-.17,0Z" fill="#181716"/>
      </g>
    </g>
  </g>
</svg>
