<svg id="Calque_1" data-name="Calque 1" xmlns="http://www.w3.org/2000/svg" viewBox="0 0 566.93 566.93"><defs><style>.cls-1{fill:#d44f68}</style></defs><path class="cls-1" d="M283.16 164.83c6.75-6.36 9.57-12.32 9.57-18.34s-2.83-12-9.57-18.34c-6.75 6.36-9.57 12.28-9.57 18.34s2.83 11.98 9.57 18.34zm-55.85 14.95c2.66-8.88 2.13-15.46-.88-20.67S218 150.15 209 148c-2.66 8.88-2.15 15.42.88 20.67s8.41 8.98 17.43 11.11zm-40.89 40.89c-2.13-9-5.89-14.45-11.1-17.46s-11.79-3.54-20.67-.88c2.13 9 5.85 14.43 11.1 17.46s11.79 3.54 20.67.88zm-14.97 55.84c-6.36-6.75-12.32-9.57-18.34-9.57s-12 2.83-18.34 9.57c6.36 6.75 12.28 9.57 18.34 9.57s11.98-2.82 18.34-9.57zm48.84 65.27c-7.65-5.24-14.08-6.73-20-5.45s-11.11 5.31-15.88 13.26c7.65 5.24 14 6.74 20 5.45s11.11-5.31 15.88-13.26zm38.28-35.89c1.78-9.1.61-15.59-2.9-20.49s-9.28-8.1-18.46-9.34c-1.78 9.1-.63 15.56 2.9 20.49s9.27 8.1 18.46 9.34zM339 179.78c-2.66-8.88-2.13-15.46.88-20.67s8.44-9 17.46-11.1c2.66 8.88 2.15 15.42-.88 20.67s-8.41 8.97-17.46 11.1zm40.92 40.89c2.13-9 5.89-14.45 11.1-17.46s11.79-3.54 20.67-.88c-2.13 9-5.85 14.43-11.1 17.46s-11.79 3.54-20.67.88zm14.97 55.84c6.36-6.75 12.32-9.57 18.34-9.57s12 2.83 18.34 9.57c-6.36 6.75-12.28 9.57-18.34 9.57s-11.98-2.82-18.34-9.57zM346 341.78c7.65-5.24 14.08-6.73 20-5.45s11.11 5.31 15.88 13.26c-7.65 5.24-14 6.74-20 5.45s-11.06-5.31-15.88-13.26zm-38.29-35.89c-1.78-9.1-.61-15.59 2.9-20.49s9.28-8.1 18.46-9.34c1.78 9.1.63 15.56-2.9 20.49s-9.27 8.1-18.46 9.34z"/><path class="cls-1" d="M264.6 349v-17.73c-8.38-4.27-11.63-6-29.84-13.16a11.34 11.34 0 0 1-7.84-9.81c-.56-8.17-1.31-17.8-5-27.74-3.13 1.17-7.5 3.4-12.72 5.36 3.51 15.31 5.51 25.44-1 24.14-26.34-3.89-50.82-4.56-70.24-2.85a147.29 147.29 0 0 0 3.85 14.58c58.84-4.33 94.94 10.7 122.79 27.21z"/><path class="cls-1" d="M180.92 281.89L190.3 292c9-14.81 9.54-20.29 13.13-29.27 2.24-5.09 4.92-6.17 10.68-7.3 10-2 9.84-2.31 17.49-4.63L219.93 239c-24.44 8.42-52.64-.64-77.84-8.6q-2.23 6.82-3.8 13.91c20.79 6.38 40.68 10.18 45 11.63 9.71 3.26 3.6 15.41-2.37 25.95z"/><path class="cls-1" d="M240.63 247.59c21.39 23.19 34 29.06 34 76.77v79h17v-79c0-47.71 12.65-53.59 34-76.77 7.63-8.27 51.9-49.37 65.56-72.69q-5.11-5.43-10.74-10.34c-11.5 21-46.77 55.13-47.7 54.56-4.85-5.89-4.18-26.35-2.19-34.25l-13.75 5.9a93.34 93.34 0 0 0 1.49 30.41c1.21 5.45 2.42 9.09-3.68 15.68-7.93 8.57-14.74 15.84-23.56 26.05v-39.79c0-27.46 9.18-26.35 18.43-40.07C322 167.58 325 150 325.94 134.41q-6.08-1.83-12.37-3.14C313.28 160.7 298 187 283.17 187s-30.11-26.3-30.4-55.74q-6.29 1.31-12.37 3.14c1 15.62 3.94 33.17 16.33 48.64 9.26 13.71 18.43 12.6 18.43 40.07v39.79c-8.81-10.21-15.6-17.48-23.53-26.05-6.1-6.59-4.89-10.23-3.68-15.68a93.34 93.34 0 0 0 1.49-30.41l-13.77-5.9c2 7.9 2.67 28.36-2.19 34.25-.94.57-36.21-33.59-47.71-54.56q-5.63 4.9-10.74 10.34c13.69 23.33 57.97 64.44 65.6 72.7z"/><path class="cls-1" d="M358.15 310.06c-6.5 1.3-4.5-8.82-1-24.14-5.22-2-9.59-4.2-12.72-5.36-3.71 9.94-4.47 19.56-5 27.74a11.34 11.34 0 0 1-7.84 9.81c-18.21 7.2-21.46 8.89-29.84 13.16V349c27.84-16.52 63.94-31.55 122.78-27.22a147.28 147.28 0 0 0 3.85-14.58c-19.38-1.7-43.9-1.03-70.23 2.86z"/><path class="cls-1" d="M346.41 239l-11.67 11.8c7.65 2.31 7.53 2.67 17.49 4.63 5.76 1.13 8.44 2.21 10.68 7.3 3.59 9 4.15 14.46 13.13 29.27l9.38-10.1c-6-10.54-12.1-22.69-2.39-25.92 4.35-1.45 24.23-5.24 45-11.62q-1.57-7.09-3.8-13.91c-25.23 7.94-53.38 17-77.82 8.55z"/><path d="M45.85 257l2.57-4.73 6.13 7.37-.24 3.65zm41.53 5.73a13.06 13.06 0 0 0-3.81-10.21l2.81-2.76a16.29 16.29 0 0 1 5.07 13.36c-.56 8.65-7.65 15.29-17.46 14.66-9.14-.59-16-7.45-15.47-16.16.6-9.32 8.38-14.2 17.63-13.6.43 0 .91.06 1.64.17l-1.61 25c6.69-.31 10.82-4.94 11.2-10.48zm-13.66-10.14c-5.76.18-10.85 3.15-11.25 9.37-.35 5.42 3.89 9.85 9.94 10.92zM61.6 237l1.26-5 28-3.92-22.8-16.74 1.23-4.91 27.5 21.07-1 4zM93 206.43l-.11-.05c-6.17-2.81-7.12-9.27-3.81-16.55a33.09 33.09 0 0 1 5.22-8.23l-.89-.4c-5.11-2.33-9.2-.43-11.65 5a22 22 0 0 0-1.91 9.66l-4.08-.31a25.89 25.89 0 0 1 2.31-11.56c1.84-4.06 4.4-6.72 7.39-7.84s6.15-.83 9.81.84l17.56 8-1.92 4.22-4.28-1.95a13.84 13.84 0 0 1 .19 12.56c-2.44 5.35-7.93 9.29-13.83 6.61zm7.38-22.13l-2.67-1.21a32.45 32.45 0 0 0-5 7.84c-2.43 5.34-1.48 9.45 2 11l.11.05c3.61 1.64 7.24-.73 9-4.62 2.35-5.26 1.18-10.98-3.43-13.06zm-19.09-32.9l2.52-4 37.63 23.88-2.52 4zm37.22 2.41L103.64 141l3.06-3.57 14 12c4.45 3.82 9.29 3.79 12.91-.42s3.15-9.76-1.34-13.62l-13.71-11.77 3-3.52 23.95 20.55-3 3.52-4.17-3.58a12 12 0 0 1-2.34 12.28c-5 5.79-11.79 5.83-17.49.94zm27.54-26.43l-.08-.1c-4.21-5.31-2.11-11.5 4.15-16.47a33.08 33.08 0 0 1 8.39-4.95l-.61-.76c-3.49-4.4-8-4.57-12.63-.89a22 22 0 0 0-6.1 7.73l-3.49-2.14a25.85 25.85 0 0 1 7.32-9.24c3.49-2.77 7-4 10.15-3.61s5.85 2.06 8.35 5.22l12 15.11-3.63 2.88-2.92-3.68a13.84 13.84 0 0 1-5.55 11.27c-4.65 3.68-11.33 4.7-15.35-.37zM162.7 111l-1.82-2.3a32.5 32.5 0 0 0-8.06 4.68c-4.59 3.65-5.63 7.74-3.27 10.71l.08.1c2.47 3.11 6.78 2.65 10.13 0 4.54-3.58 6.06-9.19 2.94-13.19zm17.08-7.27l-9.35-16.59-3.83 2.16-2-3.62 3.83-2.16-4.68-8.3 4.1-2.31 4.68 8.3 8.72-4.92 2 3.62-8.72 4.92 9.05 16.06c1.89 3.35 4.44 3.52 7.2 2a9.88 9.88 0 0 0 3.45-3.21l2 3.51a11.83 11.83 0 0 1-4.29 4c-4.44 2.41-9.01 2.12-12.16-3.46zm8.78-44.09l4.95-2.09 2 4.78-4.95 2.1zm5 11l4.33-1.83 12.31 29.07-4.33 1.83zm21.86 7.92v-.12a16.45 16.45 0 0 1 31.85-8.28v.12a16.39 16.39 0 0 1-11.94 20.07 16.17 16.17 0 0 1-19.91-11.79zm27.21-7v-.12c-1.68-6.57-8-10.69-14.41-9-6.62 1.69-9.8 8.24-8.15 14.69v.12c1.68 6.57 7.89 10.65 14.34 9 6.59-1.7 9.87-8.25 8.22-14.65zM258.5 53l4.7-.23.27 5.49a12 12 0 0 1 10.49-6.69c7.62-.38 12.32 4.53 12.69 12l1 19.57-4.69.23L282 65c-.29-5.85-3.64-9.35-9.19-9.08s-9.26 4.43-9 10.34l.89 18-4.7.23zm67.8 32a13.06 13.06 0 0 0 10.7-2.24l2.3 3.19a16.29 16.29 0 0 1-14 3c-8.47-1.85-14-9.86-11.88-19.46 2-8.95 9.77-14.74 18.3-12.88 9.12 2 12.79 10.41 10.81 19.47-.09.42-.2.89-.41 1.6l-24.45-5.33c-.75 6.65 3.21 11.46 8.63 12.65zm12-12c.69-5.72-1.49-11.2-7.58-12.52-5.31-1.16-10.33 2.37-12.28 8.19zm11.79 13.55l6.81-17.79-4.1-1.57 1.48-3.88 4.11 1.57 3.4-8.9 4.39 1.68-3.41 8.9 9.35 3.58-1.48 3.86-9.35-3.58-6.59 17.24c-1.37 3.59.12 5.67 3.08 6.8a9.88 9.88 0 0 0 4.67.61L361 98.83a11.82 11.82 0 0 1-5.78-.77c-4.73-1.81-7.42-5.53-5.13-11.51zm55.72 32.53c-4.27 1.63-9.18 2.15-13.93-1.18-6.2-4.34-8.92-13.55-3-22l.07-.1c5.91-8.45 15.57-9.15 21.77-4.81 4.8 3.36 6.08 8.13 6.05 12.43l3.46-5 3.85 2.69L400.42 135l-3.85-2.69zm5.54-7.6l.07-.1c4.16-6 2.41-13.14-2.39-16.5-5-3.5-11.69-2.67-16.07 3.58l-.07.1c-4.27 6.1-2.8 12.94 2.1 16.37s12.19 2.51 16.36-3.45zm11.23 14.22l14.25-13.45 3.23 3.42-13.41 12.66c-4.26 4-4.75 8.85-.93 12.89s9.38 4.16 13.69.09l13.14-12.41 3.19 3.37-23 21.67-3.18-3.37 4-3.77a12 12 0 0 1-11.9-3.62c-5.21-5.57-4.54-12.33.92-17.48zM446 155.83l.1-.07c5.72-3.63 11.66-.9 15.95 5.86a33.1 33.1 0 0 1 4 8.86l.82-.52c4.74-3 5.38-7.47 2.2-12.47a21.93 21.93 0 0 0-7-6.88l2.49-3.25a25.88 25.88 0 0 1 8.42 8.25c2.39 3.76 3.23 7.36 2.53 10.47s-2.66 5.6-6.07 7.76l-16.29 10.35-2.49-3.92 4-2.52a13.84 13.84 0 0 1-10.63-6.7c-3.2-5-3.51-11.75 1.97-15.22zm14.5 18.28l2.47-1.57a32.46 32.46 0 0 0-3.81-8.5c-3.14-4.95-7.11-6.41-10.31-4.38l-.1.07c-3.35 2.13-3.34 6.47-1.05 10.07 3.1 4.89 8.56 6.99 12.79 4.31zm38.03 2.05l1.95 4.28-40.58 18.46-1.9-4.28zm-4.04 24.27l1.55 4.44-29.81 10.39-1.55-4.44zm11.31-4.27l1.77 5.07-4.9 1.71-1.77-5.07zm-27.43 30.52l18.58-4.2-1-4.29 4.05-.92 1 4.29 9.29-2.1 1 4.59-9.29 2.1 2.21 9.77-4.05.92-2.16-9.77-18 4.06c-3.75.85-4.65 3.24-4 6.34a9.89 9.89 0 0 0 2.08 4.22l-3.93.89a11.84 11.84 0 0 1-2.56-5.24c-1.07-4.94.52-9.24 6.78-10.66zm.79 37.98a13.05 13.05 0 0 0 5.1 9.64l-2.43 3.1a16.29 16.29 0 0 1-6.75-12.59c-.57-8.65 5.61-16.15 15.42-16.79 9.14-.6 16.86 5.32 17.43 14 .61 9.32-6.47 15.16-15.73 15.77-.43 0-.91.06-1.65 0l-1.63-25c-6.6 1.21-10.12 6.33-9.76 11.87zm14.84 8.27c5.69-.92 10.35-4.53 9.94-10.74-.35-5.42-5.13-9.27-11.27-9.54zm27.08-7.93l-1.94 5-7-6.51-.24-3.65zM277.54 451c-17.61-.59-30.58 13.45-31.17 31.06v.23c-.64 19 12.69 32.42 30.53 33 11.31.38 19.52-3.9 25.58-10.7l-8-7.63c-5.06 4.62-10 7-16.93 6.79-9.1-.31-16-6.14-17.2-16.23l45.26 1.52c.16-1.4.32-2.67.37-4 .55-17.6-8.84-33.33-28.44-34.04zm-17 27.22c1.61-9.52 7.89-16 16.53-15.68 9.33.31 14.46 7.61 15.08 16.74zm22.81-52.62l-12.82 18.14q5.49.41 11.08.45L296 431.74zM181.44 459l.09-.22c6.42-16.29 24.41-25 41.56-18.24 10.86 4.28 16 10.95 19 18.91l-11.61 5.59c-2.35-5.82-5.43-10.42-12.05-13-9.56-3.76-19.76 1.75-23.69 11.74l-.09.22c-4 10.21-.22 21.24 9.88 25.22 6.19 2.44 11.91 1.31 17.7-1.3l4.85 10.94c-8.13 4.07-16.51 5.91-27.69 1.51A31.46 31.46 0 0 1 181.44 459zm189.03 7.57l-.13-.2c-9.57-14.8-7-33.73 7.84-43.3 16.46-10.65 33.16-3.11 42.8 11.79.7 1.08 1.3 2.22 2 3.46l-38 24.6c6.73 7.6 15.75 8.44 23.39 3.49 5.78-3.74 8.5-8.56 10-15.24l11 1.67c-1.09 9-5.38 17.24-14.89 23.4-15.07 9.69-33.67 6.3-44.01-9.67zM406.31 438c-5.73-7.14-14.1-10.2-21.94-5.12-7.25 4.69-8.73 13.57-4.61 22.31zm39.45 2.42l-3.48-10.92c8.08-2 14.63-6 18.59-10.93 3.82-4.72 4-9.05.85-11.62l-.18-.15c-3.72-3-9.1 1-15.37 5.28-7.72 5.46-17 11-26.17 3.6l-.18-.15c-9.07-7.34-8.52-19.35-.81-28.87a42.71 42.71 0 0 1 19.68-13.2l4.31 10.66c-6.56 2.35-12.24 5.86-15.47 9.85-3.45 4.26-3.43 8.33-.62 10.6l.18.15c3.45 2.79 9.08-1.21 15.45-5.37 7.83-5.22 17.39-10.55 26-3.58l.18.15c10.07 8.15 8.75 20 .68 30a43.28 43.28 0 0 1-23.64 14.5zm-93.11 13.79l.79-.22-3.95-14.41C338.9 442 333.7 450 332.42 459.88l-3.67-13.39-13.62 3.73 16.6 59.48q6.95-1.44 13.74-3.29l-6.63-23.12c-4.33-15.76 1.88-25.81 13.81-29.08zm-206.23-80.13l-47.57 52.51c3 3.69 6.2 7.35 9.41 10.85l20.11-22.36 27.8 25.1-20.5 22.74c1.79 1.59 7.5 5.74 11.64 8.76l48.18-53.37L184.7 409l-19 20.83-27.92-25.18 18.85-21z" fill="#605ba2"/><path fill="none" d="M0 0h566.93v566.93H0z"/></svg>