<svg xmlns="http://www.w3.org/2000/svg" width="130" height="130" viewBox="0 0 130 130">
  <g id="icon-focus-bubble">
    <g>
      <g>
        <g>
          <path d="M38.17,64.23a9,9,0,1,1,9-9A9,9,0,0,1,38.17,64.23Z" fill="#ffd138"/>
          <path d="M38.17,47.46a7.76,7.76,0,1,1-7.76,7.76,7.77,7.77,0,0,1,7.76-7.76m0-2.5A10.26,10.26,0,1,0,48.43,55.22,10.26,10.26,0,0,0,38.17,45Z" fill="#fff"/>
        </g>
        <g>
          <path d="M57.26,75.61a10,10,0,1,1,10-10A10,10,0,0,1,57.26,75.61Z" fill="#ffd138"/>
          <path d="M57.26,56.9a8.73,8.73,0,1,1-8.73,8.73,8.74,8.74,0,0,1,8.73-8.73m0-2.5A11.23,11.23,0,1,0,68.49,65.63,11.23,11.23,0,0,0,57.26,54.4Z" fill="#fff"/>
        </g>
        <g>
          <path d="M82.92,92.57a9,9,0,1,1,9-9A9,9,0,0,1,82.92,92.57Z" fill="#ffd138"/>
          <path d="M82.92,75.75a7.79,7.79,0,1,1-7.79,7.79,7.8,7.8,0,0,1,7.79-7.79m0-2.5A10.29,10.29,0,1,0,93.21,83.54,10.29,10.29,0,0,0,82.92,73.25Z" fill="#fff"/>
        </g>
        <g>
          <path d="M59.65,100.68a9.52,9.52,0,1,1,9.52-9.52A9.53,9.53,0,0,1,59.65,100.68Z" fill="#ffd138"/>
          <path d="M59.65,82.88a8.27,8.27,0,1,1-8.27,8.27,8.28,8.28,0,0,1,8.27-8.27m0-2.5A10.77,10.77,0,1,0,70.42,91.15,10.77,10.77,0,0,0,59.65,80.38Z" fill="#fff"/>
        </g>
        <g>
          <path d="M92.95,51.37a9.12,9.12,0,1,1,9.12-9.12A9.13,9.13,0,0,1,92.95,51.37Z" fill="#ffd138"/>
          <path d="M92.95,34.38a7.87,7.87,0,1,1-7.87,7.87,7.88,7.88,0,0,1,7.87-7.87m0-2.5a10.37,10.37,0,1,0,10.37,10.37A10.37,10.37,0,0,0,92.95,31.88Z" fill="#fff"/>
        </g>
        <g>
          <path d="M37.39,96.42A10.12,10.12,0,1,1,47.51,86.31,10.13,10.13,0,0,1,37.39,96.42Z" fill="#ffd138"/>
          <path d="M37.39,77.44a8.87,8.87,0,1,1-8.87,8.87,8.88,8.88,0,0,1,8.87-8.87m0-2.5A11.37,11.37,0,1,0,48.76,86.31,11.37,11.37,0,0,0,37.39,74.94Z" fill="#fff"/>
        </g>
        <g>
          <path d="M47.91,42.12a9,9,0,1,1,9-9A9,9,0,0,1,47.91,42.12Z" fill="#ffd138"/>
          <path d="M47.91,25.36a7.76,7.76,0,1,1-7.76,7.76,7.77,7.77,0,0,1,7.76-7.76m0-2.5A10.26,10.26,0,1,0,58.17,33.12,10.26,10.26,0,0,0,47.91,22.86Z" fill="#fff"/>
        </g>
        <g>
          <path d="M93.07,74.58a9.72,9.72,0,1,1,9.72-9.72A9.74,9.74,0,0,1,93.07,74.58Z" fill="#ffd138"/>
          <path d="M93.07,56.38a8.47,8.47,0,1,1-8.47,8.47,8.48,8.48,0,0,1,8.47-8.47m0-2.5a11,11,0,1,0,11,11,11,11,0,0,0-11-11Z" fill="#fff"/>
        </g>
        <g>
          <path d="M71.15,43.2a9.38,9.38,0,1,1,9.38-9.38A9.39,9.39,0,0,1,71.15,43.2Z" fill="#ffd138"/>
          <path d="M71.15,25.7A8.13,8.13,0,1,1,63,33.83a8.14,8.14,0,0,1,8.13-8.13m0-2.5A10.63,10.63,0,1,0,81.78,33.83,10.63,10.63,0,0,0,71.15,23.2Z" fill="#fff"/>
        </g>
        <g>
          <circle cx="76.65" cy="103.51" r="9" fill="#ffd138"/>
          <path d="M76.65,95.76a7.75,7.75,0,1,1-7.75,7.75,7.76,7.76,0,0,1,7.75-7.75m0-2.5A10.25,10.25,0,1,0,86.9,103.51,10.25,10.25,0,0,0,76.65,93.26Z" fill="#fff"/>
        </g>
        <g>
          <circle cx="58.25" cy="46.73" r="5.59" fill="#ffd138"/>
          <path d="M58.25,42.39a4.34,4.34,0,1,1-4.34,4.34,4.34,4.34,0,0,1,4.34-4.34m0-2.5a6.84,6.84,0,1,0,6.84,6.84,6.84,6.84,0,0,0-6.84-6.84Z" fill="#fff"/>
        </g>
        <g>
          <circle cx="28.33" cy="69.59" r="5.84" fill="#ffd138"/>
          <path d="M28.33,65a4.59,4.59,0,1,1-4.59,4.59A4.6,4.6,0,0,1,28.33,65m0-2.5a7.09,7.09,0,1,0,7.09,7.09,7.09,7.09,0,0,0-7.09-7.09Z" fill="#fff"/>
        </g>
        <g>
          <circle cx="73.22" cy="56.31" r="5.83" fill="#ffd138"/>
          <path d="M73.22,51.73a4.58,4.58,0,1,1-4.58,4.58,4.59,4.59,0,0,1,4.58-4.58m0-2.5a7.08,7.08,0,1,0,7.08,7.08,7.08,7.08,0,0,0-7.08-7.08Z" fill="#fff"/>
        </g>
        <g>
          <circle cx="102.09" cy="84.12" r="7.53" fill="#ffd138"/>
          <path d="M102.09,77.84a6.28,6.28,0,1,1-6.28,6.28,6.29,6.29,0,0,1,6.28-6.28m0-2.5a8.78,8.78,0,1,0,8.78,8.78,8.78,8.78,0,0,0-8.78-8.78Z" fill="#fff"/>
        </g>
        <g>
          <circle cx="31.05" cy="39.68" r="5.59" fill="#ffd138"/>
          <path d="M31,35.34a4.34,4.34,0,1,1-4.34,4.34A4.34,4.34,0,0,1,31,35.34m0-2.5a6.84,6.84,0,1,0,6.84,6.84A6.84,6.84,0,0,0,31,32.84Z" fill="#fff"/>
        </g>
        <g>
          <circle cx="93.05" cy="97.34" r="5.59" fill="#ffd138"/>
          <path d="M93.06,93a4.34,4.34,0,1,1-4.34,4.34A4.34,4.34,0,0,1,93.06,93m0-2.5a6.84,6.84,0,1,0,6.84,6.84,6.84,6.84,0,0,0-6.84-6.84Z" fill="#fff"/>
        </g>
        <g>
          <circle cx="47.83" cy="104.49" r="5.79" fill="#ffd138"/>
          <path d="M47.83,99.95a4.54,4.54,0,1,1-4.54,4.54,4.55,4.55,0,0,1,4.54-4.54m0-2.5a7,7,0,1,0,7,7,7,7,0,0,0-7-7Z" fill="#fff"/>
        </g>
        <g>
          <circle cx="73.04" cy="67.95" r="3.31" fill="#ffd138"/>
          <path d="M73,65.89A2.06,2.06,0,1,1,71,68,2.06,2.06,0,0,1,73,65.89m0-2.5A4.56,4.56,0,1,0,77.6,68,4.56,4.56,0,0,0,73,63.39Z" fill="#fff"/>
        </g>
        <g>
          <circle cx="24.04" cy="49.51" r="3.73" fill="#ffd138"/>
          <path d="M24,47a2.48,2.48,0,1,1-2.48,2.48A2.48,2.48,0,0,1,24,47m0-2.5a5,5,0,1,0,5,5,5,5,0,0,0-5-5Z" fill="#fff"/>
        </g>
        <g>
          <circle cx="63.04" cy="18.92" r="3.51" fill="#ffd138"/>
          <path d="M63,16.66a2.26,2.26,0,1,1-2.26,2.26A2.26,2.26,0,0,1,63,16.66m0-2.5a4.76,4.76,0,1,0,4.76,4.76A4.76,4.76,0,0,0,63,14.16Z" fill="#fff"/>
        </g>
        <g>
          <circle cx="20.73" cy="59.72" r="4.12" fill="#ffd138"/>
          <path d="M20.73,56.85a2.87,2.87,0,1,1-2.87,2.87,2.87,2.87,0,0,1,2.87-2.87m0-2.5a5.37,5.37,0,1,0,5.37,5.37,5.37,5.37,0,0,0-5.37-5.37Z" fill="#fff"/>
        </g>
        <g>
          <circle cx="86.44" cy="28.52" r="3.42" fill="#ffd138"/>
          <path d="M86.44,26.35a2.17,2.17,0,1,1-2.17,2.17,2.18,2.18,0,0,1,2.17-2.17m0-2.5a4.67,4.67,0,1,0,4.67,4.67,4.67,4.67,0,0,0-4.67-4.67Z" fill="#fff"/>
        </g>
        <g>
          <circle cx="109.73" cy="71.28" r="4.02" fill="#ffd138"/>
          <path d="M109.73,68.51A2.77,2.77,0,1,1,107,71.28a2.77,2.77,0,0,1,2.77-2.77m0-2.5A5.27,5.27,0,1,0,115,71.28,5.27,5.27,0,0,0,109.73,66Z" fill="#fff"/>
        </g>
        <g>
          <circle cx="106.57" cy="52.34" r="3.43" fill="#ffd138"/>
          <path d="M106.57,50.16a2.18,2.18,0,1,1-2.18,2.18,2.18,2.18,0,0,1,2.18-2.18m0-2.5a4.68,4.68,0,1,0,4.68,4.68,4.68,4.68,0,0,0-4.68-4.68Z" fill="#fff"/>
        </g>
        <g>
          <circle cx="62.36" cy="111.21" r="3.38" fill="#ffd138"/>
          <path d="M62.36,109.08a2.13,2.13,0,1,1-2.13,2.13,2.13,2.13,0,0,1,2.13-2.13m0-2.5A4.63,4.63,0,1,0,67,111.21a4.63,4.63,0,0,0-4.63-4.63Z" fill="#fff"/>
        </g>
        <g>
          <circle cx="109.72" cy="61.03" r="3.31" fill="#ffd138"/>
          <path d="M109.72,59A2.06,2.06,0,1,1,107.66,61,2.06,2.06,0,0,1,109.72,59m0-2.5A4.56,4.56,0,1,0,114.28,61a4.56,4.56,0,0,0-4.56-4.56Z" fill="#fff"/>
        </g>
        <g>
          <circle cx="68.57" cy="76.79" r="3.42" fill="#ffd138"/>
          <path d="M68.57,74.63a2.17,2.17,0,1,1-2.17,2.17,2.17,2.17,0,0,1,2.17-2.17m0-2.5a4.67,4.67,0,1,0,4.67,4.67,4.67,4.67,0,0,0-4.67-4.67Z" fill="#fff"/>
        </g>
        <g>
          <circle cx="39.96" cy="70.18" r="3.31" fill="#ffd138"/>
          <path d="M40,68.12a2.06,2.06,0,1,1-2.06,2.06A2.06,2.06,0,0,1,40,68.12m0-2.5a4.56,4.56,0,1,0,4.56,4.56A4.56,4.56,0,0,0,40,65.62Z" fill="#fff"/>
        </g>
        <g>
          <circle cx="34.1" cy="101.36" r="2" fill="#ffd138"/>
          <path d="M34.1,100.6a.75.75,0,1,1-.75.75.76.76,0,0,1,.75-.75m0-2.5a3.25,3.25,0,1,0,3.25,3.25A3.25,3.25,0,0,0,34.1,98.1Z" fill="#fff"/>
        </g>
        <g>
          <circle cx="80.84" cy="23.22" r="1.79" fill="#ffd138"/>
          <path d="M80.84,22.67a.54.54,0,1,1-.54.54.54.54,0,0,1,.54-.54m0-2.5a3,3,0,1,0,3,3,3,3,0,0,0-3-3Z" fill="#fff"/>
        </g>
        <g>
          <circle cx="106.26" cy="43.87" r="1.79" fill="#ffd138"/>
          <path d="M106.26,43.33a.54.54,0,1,1-.54.54.54.54,0,0,1,.54-.54m0-2.5a3,3,0,1,0,3,3,3,3,0,0,0-3-3Z" fill="#fff"/>
        </g>
        <g>
          <circle cx="70.86" cy="20.16" r="1.79" fill="#ffd138"/>
          <path d="M70.86,19.62a.54.54,0,1,1-.54.54.54.54,0,0,1,.54-.54m0-2.5a3,3,0,1,0,3,3,3,3,0,0,0-3-3Z" fill="#fff"/>
        </g>
        <g>
          <circle cx="18.18" cy="68.04" r="1.93" fill="#ffd138"/>
          <path d="M18.18,67.37a.68.68,0,1,1-.68.68.68.68,0,0,1,.68-.68m0-2.5A3.18,3.18,0,1,0,21.35,68a3.18,3.18,0,0,0-3.18-3.18Z" fill="#fff"/>
        </g>
        <g>
          <circle cx="77.35" cy="46.8" r="2.04" fill="#ffd138"/>
          <path d="M77.35,46a.79.79,0,1,1-.79.79.79.79,0,0,1,.79-.79m0-2.5a3.29,3.29,0,1,0,3.29,3.29,3.29,3.29,0,0,0-3.29-3.29Z" fill="#fff"/>
        </g>
        <g>
          <circle cx="47.68" cy="76.21" r="1.79" fill="#ffd138"/>
          <path d="M47.68,75.67a.54.54,0,1,1-.54.54.54.54,0,0,1,.54-.54m0-2.5a3,3,0,1,0,3,3,3,3,0,0,0-3-3Z" fill="#fff"/>
        </g>
        <g>
          <circle cx="53.27" cy="19.52" r="2.55" fill="#ffd138"/>
          <path d="M53.27,18.22a1.3,1.3,0,1,1-1.3,1.3,1.31,1.31,0,0,1,1.3-1.3m0-2.5a3.8,3.8,0,1,0,3.8,3.8,3.8,3.8,0,0,0-3.8-3.8Z" fill="#fff"/>
        </g>
        <g>
          <circle cx="20.05" cy="76.93" r="2.6" fill="#ffd138"/>
          <path d="M20.05,75.58a1.35,1.35,0,1,1-1.35,1.35,1.35,1.35,0,0,1,1.35-1.35m0-2.5a3.85,3.85,0,1,0,3.85,3.85,3.85,3.85,0,0,0-3.85-3.85Z" fill="#fff"/>
        </g>
        <g>
          <circle cx="22.3" cy="83.45" r="1.79" fill="#ffd138"/>
          <path d="M22.3,82.91a.54.54,0,1,1-.54.54.54.54,0,0,1,.54-.54m0-2.5a3,3,0,1,0,3,3,3,3,0,0,0-3-3Z" fill="#fff"/>
        </g>
        <g>
          <circle cx="34.72" cy="28.7" r="2.4" fill="#ffd138"/>
          <path d="M34.72,27.55a1.15,1.15,0,1,1-1.15,1.15,1.15,1.15,0,0,1,1.15-1.15m0-2.5a3.65,3.65,0,1,0,3.65,3.65,3.65,3.65,0,0,0-3.65-3.65Z" fill="#fff"/>
        </g>
      </g>
      <circle cx="38.17" cy="55.22" r="10.26" fill="none" stroke="#ffd138" stroke-miterlimit="10"/>
      <circle cx="57.26" cy="65.63" r="11.23" fill="none" stroke="#ffd138" stroke-miterlimit="10"/>
      <circle cx="82.92" cy="83.54" r="10.29" fill="none" stroke="#ffd138" stroke-miterlimit="10"/>
      <circle cx="59.65" cy="91.15" r="10.77" fill="none" stroke="#ffd138" stroke-miterlimit="10"/>
      <circle cx="92.95" cy="42.25" r="10.37" fill="none" stroke="#ffd138" stroke-miterlimit="10"/>
      <circle cx="37.39" cy="86.31" r="11.37" fill="none" stroke="#ffd138" stroke-miterlimit="10"/>
      <circle cx="47.91" cy="33.12" r="10.26" fill="none" stroke="#ffd138" stroke-miterlimit="10"/>
      <circle cx="93.07" cy="64.85" r="10.97" fill="none" stroke="#ffd138" stroke-miterlimit="10"/>
      <circle cx="71.15" cy="33.83" r="10.63" fill="none" stroke="#ffd138" stroke-miterlimit="10"/>
      <circle cx="76.65" cy="103.51" r="10.25" fill="none" stroke="#ffd138" stroke-miterlimit="10"/>
      <circle cx="58.25" cy="46.73" r="6.84" fill="none" stroke="#ffd138" stroke-miterlimit="10"/>
      <circle cx="28.33" cy="69.59" r="7.09" fill="none" stroke="#ffd138" stroke-miterlimit="10"/>
      <circle cx="73.22" cy="56.31" r="7.08" fill="none" stroke="#ffd138" stroke-miterlimit="10"/>
      <circle cx="102.09" cy="84.12" r="8.78" fill="none" stroke="#ffd138" stroke-miterlimit="10"/>
      <circle cx="31.05" cy="39.68" r="6.84" fill="none" stroke="#ffd138" stroke-miterlimit="10"/>
      <circle cx="93.06" cy="97.34" r="6.84" fill="none" stroke="#ffd138" stroke-miterlimit="10"/>
      <circle cx="47.83" cy="104.49" r="7.04" fill="none" stroke="#ffd138" stroke-miterlimit="10"/>
      <circle cx="73.04" cy="67.95" r="4.56" fill="none" stroke="#ffd138" stroke-miterlimit="10"/>
      <circle cx="24.04" cy="49.51" r="4.98" fill="none" stroke="#ffd138" stroke-miterlimit="10"/>
      <circle cx="63.04" cy="18.92" r="4.76" fill="none" stroke="#ffd138" stroke-miterlimit="10"/>
      <circle cx="20.73" cy="59.72" r="5.37" fill="none" stroke="#ffd138" stroke-miterlimit="10"/>
      <circle cx="86.44" cy="28.52" r="4.67" fill="none" stroke="#ffd138" stroke-miterlimit="10"/>
      <circle cx="109.73" cy="71.28" r="5.27" fill="none" stroke="#ffd138" stroke-miterlimit="10"/>
      <circle cx="106.57" cy="52.34" r="4.68" fill="none" stroke="#ffd138" stroke-miterlimit="10"/>
      <circle cx="62.36" cy="111.21" r="4.63" fill="none" stroke="#ffd138" stroke-miterlimit="10"/>
      <circle cx="109.72" cy="61.03" r="4.56" fill="none" stroke="#ffd138" stroke-miterlimit="10"/>
      <circle cx="68.57" cy="76.8" r="4.67" fill="none" stroke="#ffd138" stroke-miterlimit="10"/>
      <circle cx="39.96" cy="70.18" r="4.56" fill="none" stroke="#ffd138" stroke-miterlimit="10"/>
      <circle cx="34.1" cy="101.36" r="3.25" fill="none" stroke="#ffd138" stroke-miterlimit="10"/>
      <circle cx="80.84" cy="23.22" r="3.04" fill="none" stroke="#ffd138" stroke-miterlimit="10"/>
      <circle cx="106.26" cy="43.87" r="3.04" fill="none" stroke="#ffd138" stroke-miterlimit="10"/>
      <circle cx="70.86" cy="20.16" r="3.04" fill="none" stroke="#ffd138" stroke-miterlimit="10"/>
      <circle cx="18.18" cy="68.04" r="3.18" fill="none" stroke="#ffd138" stroke-miterlimit="10"/>
      <circle cx="77.35" cy="46.8" r="3.29" fill="none" stroke="#ffd138" stroke-miterlimit="10"/>
      <circle cx="47.68" cy="76.21" r="3.04" fill="none" stroke="#ffd138" stroke-miterlimit="10"/>
      <circle cx="53.27" cy="19.52" r="3.8" fill="none" stroke="#ffd138" stroke-miterlimit="10"/>
      <circle cx="20.05" cy="76.93" r="3.85" fill="none" stroke="#ffd138" stroke-miterlimit="10"/>
      <circle cx="22.3" cy="83.45" r="3.04" fill="none" stroke="#ffd138" stroke-miterlimit="10"/>
      <circle cx="34.72" cy="28.7" r="3.65" fill="none" stroke="#ffd138" stroke-miterlimit="10"/>
    </g>
  </g>
</svg>
