<svg xmlns="http://www.w3.org/2000/svg" width="130" height="130" viewBox="0 0 130 130">
  <g id="icon-focus-bubbleTop">
    <g>
      <g>
        <path d="M20.93,83.75A18.75,18.75,0,1,1,39.68,65,18.77,18.77,0,0,1,20.93,83.75Z" fill="#ffd138"/>
        <path d="M20.93,47.5A17.5,17.5,0,1,1,3.43,65a17.52,17.52,0,0,1,17.5-17.5m0-2.5a20,20,0,1,0,20,20,20,20,0,0,0-20-20Z" fill="#fff"/>
      </g>
      <circle cx="20.93" cy="65" r="20" fill="none" stroke="#ffd138" stroke-miterlimit="10"/>
      <g>
        <path d="M36,83.75A14.75,14.75,0,1,1,50.8,69,14.77,14.77,0,0,1,36,83.75Z" fill="#ffd138"/>
        <path d="M36,55.5A13.5,13.5,0,1,1,22.55,69,13.52,13.52,0,0,1,36,55.5M36,53A16,16,0,1,0,52,69,16,16,0,0,0,36,53Z" fill="#fff"/>
      </g>
      <circle cx="36.05" cy="69" r="16" fill="none" stroke="#ffd138" stroke-miterlimit="10"/>
      <g>
        <path d="M54.95,83.75A11.55,11.55,0,1,1,66.5,72.2,11.56,11.56,0,0,1,54.95,83.75Z" fill="#ffd138"/>
        <path d="M54.95,61.9a10.3,10.3,0,1,1-10.3,10.3,10.31,10.31,0,0,1,10.3-10.3m0-2.5a12.8,12.8,0,1,0,12.8,12.8,12.8,12.8,0,0,0-12.8-12.8Z" fill="#fff"/>
      </g>
      <circle cx="54.95" cy="72.2" r="12.8" fill="none" stroke="#ffd138" stroke-miterlimit="10"/>
      <g>
        <path d="M70.07,83.75a9,9,0,1,1,9-9A9,9,0,0,1,70.07,83.75Z" fill="#ffd138"/>
        <path d="M70.07,67a7.74,7.74,0,1,1-7.74,7.74A7.75,7.75,0,0,1,70.07,67m0-2.5A10.24,10.24,0,1,0,80.31,74.76,10.24,10.24,0,0,0,70.07,64.52Z" fill="#fff"/>
      </g>
      <circle cx="70.07" cy="74.76" r="10.24" fill="none" stroke="#ffd138" stroke-miterlimit="10"/>
      <g>
        <circle cx="81.4" cy="76.81" r="6.94" fill="#ffd138"/>
        <path d="M81.4,71.12a5.69,5.69,0,1,1-5.69,5.69,5.7,5.7,0,0,1,5.69-5.69m0-2.5a8.19,8.19,0,1,0,8.19,8.19,8.19,8.19,0,0,0-8.19-8.19Z" fill="#fff"/>
      </g>
      <circle cx="81.4" cy="76.81" r="8.19" fill="none" stroke="#ffd138" stroke-miterlimit="10"/>
      <g>
        <circle cx="92.74" cy="78.33" r="5.42" fill="#ffd138"/>
        <path d="M92.74,74.17a4.17,4.17,0,1,1-4.17,4.17,4.17,4.17,0,0,1,4.17-4.17m0-2.5a6.67,6.67,0,1,0,6.67,6.67,6.67,6.67,0,0,0-6.67-6.67Z" fill="#fff"/>
      </g>
      <circle cx="92.74" cy="78.33" r="6.67" fill="none" stroke="#ffd138" stroke-miterlimit="10"/>
      <g>
        <circle cx="101.06" cy="78.33" r="5.42" fill="#ffd138"/>
        <path d="M101.06,74.17a4.17,4.17,0,1,1-4.17,4.17,4.17,4.17,0,0,1,4.17-4.17m0-2.5a6.67,6.67,0,1,0,6.67,6.67,6.67,6.67,0,0,0-6.67-6.67Z" fill="#fff"/>
      </g>
      <circle cx="101.06" cy="78.33" r="6.67" fill="none" stroke="#ffd138" stroke-miterlimit="10"/>
      <g>
        <circle cx="108.62" cy="79.67" r="4.08" fill="#ffd138"/>
        <path d="M108.62,76.83a2.83,2.83,0,1,1-2.83,2.83,2.84,2.84,0,0,1,2.83-2.83m0-2.5A5.33,5.33,0,1,0,114,79.67a5.33,5.33,0,0,0-5.33-5.33Z" fill="#fff"/>
      </g>
      <circle cx="108.62" cy="79.67" r="5.33" fill="none" stroke="#ffd138" stroke-miterlimit="10"/>
      <g>
        <circle cx="116.18" cy="79.67" r="4.08" fill="#ffd138"/>
        <path d="M116.18,76.83a2.83,2.83,0,1,1-2.83,2.83,2.84,2.84,0,0,1,2.83-2.83m0-2.5a5.33,5.33,0,1,0,5.33,5.33,5.33,5.33,0,0,0-5.33-5.33Z" fill="#fff"/>
      </g>
      <circle cx="116.18" cy="79.67" r="5.33" fill="none" stroke="#ffd138" stroke-miterlimit="10"/>
      <g>
        <circle cx="123.73" cy="79.67" r="4.08" fill="#ffd138"/>
        <path d="M123.73,76.83a2.83,2.83,0,1,1-2.83,2.83,2.84,2.84,0,0,1,2.83-2.83m0-2.5a5.33,5.33,0,1,0,5.33,5.33,5.33,5.33,0,0,0-5.33-5.33Z" fill="#fff"/>
      </g>
      <circle cx="123.73" cy="79.67" r="5.33" fill="none" stroke="#ffd138" stroke-miterlimit="10"/>
    </g>
  </g>
</svg>
