<?xml version="1.0" encoding="UTF-8" standalone="no"?>
<!-- Created with Inkscape (http://www.inkscape.org/) -->

<svg
   xmlns:dc="http://purl.org/dc/elements/1.1/"
   xmlns:cc="http://creativecommons.org/ns#"
   xmlns:rdf="http://www.w3.org/1999/02/22-rdf-syntax-ns#"
   xmlns:svg="http://www.w3.org/2000/svg"
   xmlns="http://www.w3.org/2000/svg"
   xmlns:sodipodi="http://sodipodi.sourceforge.net/DTD/sodipodi-0.dtd"
   xmlns:inkscape="http://www.inkscape.org/namespaces/inkscape"
   width="64px"
   height="64px"
   id="svg4771"
   version="1.1"
   inkscape:version="0.48.4 r9939"
   sodipodi:docname="framasoft-logo.svg">
  <defs
     id="defs4773" />
  <sodipodi:namedview
     id="base"
     pagecolor="#ffffff"
     bordercolor="#666666"
     borderopacity="1.0"
     inkscape:pageopacity="0.0"
     inkscape:pageshadow="2"
     inkscape:zoom="7.7781746"
     inkscape:cx="42.507117"
     inkscape:cy="31.298885"
     inkscape:current-layer="layer1"
     showgrid="true"
     inkscape:document-units="px"
     inkscape:grid-bbox="true"
     inkscape:window-width="983"
     inkscape:window-height="735"
     inkscape:window-x="935"
     inkscape:window-y="24"
     inkscape:window-maximized="0" />
  <metadata
     id="metadata4776">
    <rdf:RDF>
      <cc:Work
         rdf:about="">
        <dc:format>image/svg+xml</dc:format>
        <dc:type
           rdf:resource="http://purl.org/dc/dcmitype/StillImage" />
        <dc:title />
      </cc:Work>
    </rdf:RDF>
  </metadata>
  <g
     id="layer1"
     inkscape:label="Layer 1"
     inkscape:groupmode="layer">
    <path
       id="path2885-0"
       style="fill:#6a5687;fill-opacity:1;stroke:#6a5687;stroke-width:0.47148672;stroke-miterlimit:4;stroke-opacity:1;stroke-dasharray:none;display:inline"
       d="m 7.0505792,19.636734 c -0.28753,-1.24509 -0.0144,-2.60653 0.76922,-3.62184 0.98791,-1.36769 2.8000098,-1.98303 4.4378598,-1.73263 1.62738,0.26798 3.0512,1.52634 3.47415,3.12778 0.37794,1.24155 0.2508,2.65325 -0.47791,3.74514 -0.67209,1.10042 -1.86466,1.81802 -3.13007,2.00212 -1.29178,0.24071 -2.6686398,-0.14932 -3.6511798,-1.01936 -0.74982,-0.63639 -1.231,-1.54311 -1.42207,-2.50121 z"
       inkscape:connector-curvature="0"
       inkscape:export-filename="/home/josephk/Bureau/www/framacss/img/biglogo.png"
       inkscape:export-xdpi="97.71096"
       inkscape:export-ydpi="97.71096" />
    <g
       style="fill:#eb7239;fill-opacity:1;display:inline"
       transform="matrix(0.12671803,0,0,0.12671803,6.6768592,-71.847116)"
       id="g3934"
       inkscape:export-filename="/home/josephk/Bureau/www/framacss/img/biglogo.png"
       inkscape:export-xdpi="97.71096"
       inkscape:export-ydpi="97.71096">
      <path
         sodipodi:nodetypes="ccccccccccc"
         inkscape:connector-curvature="0"
         id="path3926"
         d="m 266.05688,662.62964 c -5.06605,1.49312 2.53872,6.05651 3.03822,8.98435 1.40892,2.9493 4.36632,4.98744 6.806,7.12979 4.36237,3.28368 8.50309,7.00504 13.73127,8.87149 7.24409,4.97783 11.06985,11.74361 12.96634,24.70447 -9.08991,-2.17901 -15.96923,-2.83244 -31.39817,-12.58792 16.07761,13.45629 25.98461,19.2946 31.91959,24.61446 5.75253,6.20655 16.11417,16.71079 26.033,32.33675 0.0472,-20.28344 -8.50609,-45.21733 -19.52164,-62.22272 -10.33801,-13.68807 -24.56125,-24.25619 -40.18044,-31.18242 -1.07809,-0.41847 -2.22799,-0.72036 -3.39417,-0.64825 z"
         style="fill:#eb7239;fill-opacity:1;stroke:none" />
    </g>
    <path
       id="path2885-07"
       style="fill:#6a5687;fill-opacity:1;stroke:#6a5687;stroke-width:0.43052286;stroke-miterlimit:4;stroke-opacity:1;stroke-dasharray:none;display:inline"
       d="m 13.403189,31.062894 c -0.2178,-0.94314 -0.0109,-1.97439 0.58266,-2.74346 0.74831,-1.03597 2.12093,-1.50208 3.36157,-1.31238 1.2327,0.20296 2.31117,1.15613 2.63155,2.36917 0.28628,0.94046 0.18996,2.00978 -0.36198,2.83685 -0.5091,0.83353 -1.41245,1.3771 -2.37096,1.51653 -0.97849,0.18234 -2.02142,-0.1131 -2.76567,-0.77212 -0.56796,-0.48204 -0.93243,-1.16886 -1.07717,-1.89459 z"
       inkscape:connector-curvature="0"
       inkscape:export-filename="/home/josephk/Bureau/www/framacss/img/biglogo.png"
       inkscape:export-xdpi="97.71096"
       inkscape:export-ydpi="97.71096" />
    <path
       id="path2885-0-6"
       style="fill:#eb7239;fill-opacity:1;stroke:#eb7239;stroke-width:0.41000909;stroke-miterlimit:4;stroke-opacity:1;stroke-dasharray:none;display:inline"
       d="m 49.532539,36.571844 c -0.49545,-0.18745 -1.06992,-0.15108 -1.53063,0.11428 -0.61684,0.32965 -0.97053,1.03976 -0.95889,1.72651 0.0195,0.68342 0.45707,1.33838 1.09136,1.60131 0.48897,0.2244 1.07595,0.25079 1.56506,0.0122 0.48947,-0.2148 0.85067,-0.66473 0.99676,-1.17428 0.17082,-0.51724 0.0873,-1.10455 -0.2154,-1.55662 -0.21966,-0.34345 -0.56532,-0.59161 -0.94826,-0.72346 z"
       inkscape:connector-curvature="0"
       inkscape:export-filename="/home/josephk/Bureau/www/framacss/img/biglogo.png"
       inkscape:export-xdpi="97.71096"
       inkscape:export-ydpi="97.71096" />
    <path
       id="path2885-07-2"
       style="fill:#eb7239;fill-opacity:1;stroke:#eb7239;stroke-width:0.41000909;stroke-miterlimit:4;stroke-opacity:1;stroke-dasharray:none;display:inline"
       d="m 47.808119,42.950474 c -0.411,-0.1555 -0.88754,-0.12534 -1.26973,0.0948 -0.51169,0.27346 -0.8051,0.86253 -0.79543,1.43223 0.0161,0.56693 0.37915,1.11023 0.90532,1.32835 0.40563,0.18615 0.89255,0.20803 1.29829,0.0102 0.40603,-0.17819 0.70566,-0.55143 0.82685,-0.97413 0.14171,-0.42907 0.0724,-0.91627 -0.17867,-1.29128 -0.18222,-0.28491 -0.46897,-0.49076 -0.78662,-0.60014 z"
       inkscape:connector-curvature="0"
       inkscape:export-filename="/home/josephk/Bureau/www/framacss/img/biglogo.png"
       inkscape:export-xdpi="97.71096"
       inkscape:export-ydpi="97.71096" />
    <path
       id="path2885-07-0"
       style="fill:#6a5687;fill-opacity:1;stroke:#6a5687;stroke-width:0.31347674;stroke-miterlimit:4;stroke-opacity:1;stroke-dasharray:none;display:inline"
       d="m 18.811649,40.713344 c -0.15859,-0.68673 -0.008,-1.43761 0.42426,-1.9976 0.54486,-0.75432 1.5443,-1.0937 2.44765,-0.95558 0.89757,0.14778 1.68283,0.84181 1.91611,1.72507 0.20845,0.68477 0.13832,1.46337 -0.26357,2.06559 -0.37068,0.60692 -1.02844,1.00271 -1.72636,1.10423 -0.71247,0.13277 -1.47186,-0.0824 -2.01377,-0.5622 -0.41355,-0.35099 -0.67893,-0.85109 -0.78432,-1.37951 z"
       inkscape:connector-curvature="0"
       inkscape:export-filename="/home/josephk/Bureau/www/framacss/img/biglogo.png"
       inkscape:export-xdpi="97.71096"
       inkscape:export-ydpi="97.71096" />
    <g
       style="font-size:19.89788818px;font-style:normal;font-weight:normal;line-height:125%;letter-spacing:0px;word-spacing:0px;fill:#000000;fill-opacity:1;stroke:none;display:inline;font-family:Sans"
       id="text4374-19">
      <path
         d="m 1.747666,51.261925 5.4454925,0 0,1.525157 -3.4276729,0 0,1.457023 3.2232704,0 0,1.525157 -3.2232704,0 0,3.31761 -2.0178196,0 0,-7.824947"
         style="font-style:normal;font-variant:normal;font-stretch:normal;fill:#6a5687;fill-opacity:1;font-family:DejaVu Sans;-inkscape-font-specification:DejaVu Sans Bold"
         id="path3039" />
      <path
         d="m 12.670097,54.815384 c -0.164226,-0.07687 -0.328446,-0.13277 -0.492662,-0.167715 -0.160732,-0.03843 -0.323205,-0.05765 -0.487422,-0.05765 -0.482184,4e-6 -0.854301,0.15549 -1.116352,0.466457 -0.258563,0.307481 -0.387843,0.749479 -0.38784,1.325996 l 0,2.704402 -1.8763106,0 0,-5.870021 1.8763106,0 0,0.964361 c 0.241087,-0.384341 0.517117,-0.663866 0.828092,-0.838575 0.314461,-0.178191 0.690072,-0.267289 1.126834,-0.267295 0.06289,6e-6 0.131023,0.0035 0.204403,0.01048 0.07337,0.0035 0.179939,0.01398 0.319706,0.03145 l 0.0052,1.698113"
         style="font-style:normal;font-variant:normal;font-stretch:normal;fill:#6a5687;fill-opacity:1;font-family:DejaVu Sans;-inkscape-font-specification:DejaVu Sans Bold"
         id="path3041" />
      <path
         d="m 16.244521,56.445363 c -0.391338,2e-6 -0.686586,0.06639 -0.885744,0.199161 -0.19567,0.132777 -0.293504,0.328444 -0.293501,0.587002 -3e-6,0.237598 0.07861,0.42453 0.235849,0.560797 0.160724,0.132775 0.382596,0.199162 0.665618,0.199161 0.352896,10e-7 0.649891,-0.125785 0.890985,-0.377358 0.241086,-0.255065 0.361631,-0.573024 0.361636,-0.953879 l 0,-0.214884 -0.974843,0 m 2.866876,-0.707547 0,3.349056 -1.892033,0 0,-0.870021 c -0.251577,0.356395 -0.534596,0.616702 -0.849057,0.780923 -0.314469,0.160726 -0.697068,0.24109 -1.147799,0.24109 -0.607968,0 -1.102377,-0.17645 -1.483228,-0.52935 -0.377359,-0.356394 -0.566038,-0.817609 -0.566038,-1.383648 0,-0.688327 0.235848,-1.193219 0.707547,-1.514675 0.475191,-0.32145 1.219425,-0.482177 2.232705,-0.48218 l 1.10587,0 0,-0.146751 c -5e-6,-0.296991 -0.117056,-0.513622 -0.351153,-0.649895 -0.234106,-0.139758 -0.599235,-0.209639 -1.095388,-0.209644 -0.40182,5e-6 -0.775684,0.04019 -1.121594,0.120545 -0.345913,0.08037 -0.667366,0.200913 -0.96436,0.361636 l 0,-1.430818 c 0.401815,-0.09783 0.805379,-0.171203 1.210692,-0.220126 0.405308,-0.05241 0.810619,-0.07861 1.215933,-0.07862 1.058695,6e-6 1.822147,0.209649 2.290356,0.628931 0.471692,0.415798 0.707541,1.093645 0.707547,2.033543"
         style="font-style:normal;font-variant:normal;font-stretch:normal;fill:#6a5687;fill-opacity:1;font-family:DejaVu Sans;-inkscape-font-specification:DejaVu Sans Bold"
         id="path3043" />
      <path
         d="m 26.307414,54.191694 c 0.237589,-0.363377 0.518861,-0.639407 0.843815,-0.828092 0.328434,-0.192168 0.688322,-0.288254 1.079665,-0.28826 0.674344,6e-6 1.187971,0.207902 1.54088,0.62369 0.35289,0.415798 0.52934,1.020269 0.52935,1.813417 l 0,3.574423 -1.886792,0 0,-3.060796 c 0.0035,-0.04542 0.0052,-0.09259 0.0052,-0.14151 0.0035,-0.04891 0.0052,-0.118795 0.0052,-0.209643 -8e-6,-0.41579 -0.06115,-0.716279 -0.183438,-0.901468 -0.1223,-0.188675 -0.319714,-0.283014 -0.592243,-0.283019 -0.356402,5e-6 -0.632432,0.146755 -0.828092,0.440252 -0.19218,0.293505 -0.291761,0.718033 -0.298742,1.273585 l 0,2.882599 -1.886793,0 0,-3.060796 c -5e-6,-0.649892 -0.05591,-1.067432 -0.167715,-1.252621 -0.111814,-0.188675 -0.310975,-0.283014 -0.597484,-0.283019 -0.359892,5e-6 -0.637669,0.148502 -0.833333,0.445493 -0.195671,0.293505 -0.293504,0.714539 -0.293501,1.263103 l 0,2.88784 -1.886793,0 0,-5.870021 1.886793,0 0,0.859539 c 0.230605,-0.33193 0.494406,-0.581755 0.791404,-0.749476 0.300486,-0.167709 0.630674,-0.251566 0.990566,-0.251572 0.405306,6e-6 0.763447,0.09784 1.074424,0.293501 0.310965,0.195673 0.546814,0.469956 0.707547,0.822851"
         style="font-style:normal;font-variant:normal;font-stretch:normal;fill:#6a5687;fill-opacity:1;font-family:DejaVu Sans;-inkscape-font-specification:DejaVu Sans Bold"
         id="path3045" />
      <path
         d="m 34.693157,56.445363 c -0.391338,2e-6 -0.686586,0.06639 -0.885744,0.199161 -0.19567,0.132777 -0.293504,0.328444 -0.293501,0.587002 -3e-6,0.237598 0.07861,0.42453 0.235849,0.560797 0.160724,0.132775 0.382596,0.199162 0.665618,0.199161 0.352897,10e-7 0.649891,-0.125785 0.890985,-0.377358 0.241086,-0.255065 0.361631,-0.573024 0.361636,-0.953879 l 0,-0.214884 -0.974843,0 m 2.866876,-0.707547 0,3.349056 -1.892033,0 0,-0.870021 c -0.251577,0.356395 -0.534596,0.616702 -0.849057,0.780923 -0.314469,0.160726 -0.697068,0.24109 -1.147799,0.24109 -0.607968,0 -1.102377,-0.17645 -1.483228,-0.52935 -0.377359,-0.356394 -0.566038,-0.817609 -0.566038,-1.383648 0,-0.688327 0.235849,-1.193219 0.707547,-1.514675 0.475191,-0.32145 1.219425,-0.482177 2.232705,-0.48218 l 1.10587,0 0,-0.146751 c -5e-6,-0.296991 -0.117056,-0.513622 -0.351153,-0.649895 -0.234106,-0.139758 -0.599235,-0.209639 -1.095388,-0.209644 -0.40182,5e-6 -0.775684,0.04019 -1.121593,0.120545 -0.345914,0.08037 -0.667367,0.200913 -0.964361,0.361636 l 0,-1.430818 c 0.401815,-0.09783 0.805379,-0.171203 1.210692,-0.220126 0.405308,-0.05241 0.810619,-0.07861 1.215933,-0.07862 1.058695,6e-6 1.822147,0.209649 2.290356,0.628931 0.471692,0.415798 0.707541,1.093645 0.707547,2.033543"
         style="font-style:normal;font-variant:normal;font-stretch:normal;fill:#6a5687;fill-opacity:1;font-family:DejaVu Sans;-inkscape-font-specification:DejaVu Sans Bold"
         id="path3047" />
      <path
         d="m 43.901751,53.400289 0,1.425577 c -0.401822,-0.16771 -0.789662,-0.293497 -1.163522,-0.377359 -0.373868,-0.08385 -0.726768,-0.125781 -1.0587,-0.125786 -0.356397,5e-6 -0.621945,0.04543 -0.796646,0.136269 -0.171211,0.08736 -0.256815,0.223624 -0.256813,0.408805 -2e-6,0.150248 0.06464,0.265552 0.19392,0.345912 0.132772,0.08037 0.368621,0.139766 0.707548,0.178197 l 0.330188,0.04717 c 0.960862,0.122296 1.607263,0.323204 1.939203,0.602726 0.33193,0.279527 0.497898,0.718031 0.497904,1.315513 -6e-6,0.625438 -0.230614,1.095389 -0.691824,1.409854 -0.461221,0.314465 -1.14955,0.471698 -2.064989,0.471698 -0.387844,0 -0.78966,-0.03145 -1.205451,-0.09434 -0.412301,-0.0594 -0.836828,-0.150244 -1.273585,-0.272537 l 0,-1.425576 c 0.373864,0.181693 0.756463,0.317961 1.147799,0.408805 0.394826,0.09085 0.794896,0.136269 1.200209,0.136268 0.366873,10e-7 0.642904,-0.05066 0.828093,-0.151991 0.185181,-0.101327 0.277773,-0.251571 0.277777,-0.450734 -4e-6,-0.167713 -0.06464,-0.291752 -0.19392,-0.372117 -0.12579,-0.08386 -0.379109,-0.148496 -0.759958,-0.193921 l -0.330189,-0.04193 c -0.835082,-0.10482 -1.420336,-0.29874 -1.755765,-0.581761 -0.33543,-0.283016 -0.503145,-0.712785 -0.503144,-1.289309 -1e-6,-0.621937 0.213136,-1.083153 0.639413,-1.383647 0.426273,-0.300484 1.079662,-0.450728 1.960167,-0.450734 0.345909,6e-6 0.709291,0.02621 1.090147,0.07862 0.380848,0.05242 0.794894,0.134527 1.242138,0.246331"
         style="fill:#eb7239;fill-opacity:1"
         id="path3049" />
      <path
         d="m 48.503429,54.417061 c -0.415796,5e-6 -0.733755,0.150249 -0.953878,0.450734 -0.216634,0.296999 -0.32495,0.726768 -0.324948,1.289308 -2e-6,0.562546 0.108314,0.994062 0.324948,1.294549 0.220123,0.296996 0.538082,0.445494 0.953878,0.445493 0.408801,10e-7 0.721519,-0.148497 0.938155,-0.445493 0.216627,-0.300487 0.324943,-0.732003 0.324948,-1.294549 -5e-6,-0.56254 -0.108321,-0.992309 -0.324948,-1.289308 -0.216636,-0.300485 -0.529354,-0.450729 -0.938155,-0.450734 m 0,-1.341719 c 1.009779,6e-6 1.797689,0.272542 2.363732,0.81761 0.569525,0.545078 0.854291,1.299794 0.854297,2.264151 -6e-6,0.964362 -0.284772,1.719079 -0.854297,2.264151 -0.566043,0.545073 -1.353953,0.81761 -2.363732,0.81761 -1.01328,0 -1.806431,-0.272537 -2.379455,-0.81761 -0.569532,-0.545072 -0.854298,-1.299789 -0.854297,-2.264151 -1e-6,-0.964357 0.284765,-1.719073 0.854297,-2.264151 0.573024,-0.545068 1.366175,-0.817604 2.379455,-0.81761"
         style="fill:#eb7239;fill-opacity:1"
         id="path3051" />
      <path
         d="m 56.952067,50.931736 0,1.231656 -1.037736,0 c -0.265552,7e-6 -0.450737,0.04892 -0.555555,0.146751 -0.104825,0.09435 -0.157236,0.260314 -0.157233,0.497903 l 0,0.408805 1.603774,0 0,1.341719 -1.603774,0 0,4.528302 -1.87631,0 0,-4.528302 -0.932914,0 0,-1.341719 0.932914,0 0,-0.408805 c -10e-7,-0.639406 0.178196,-1.111103 0.534591,-1.415094 0.356392,-0.307469 0.908453,-0.461208 1.656184,-0.461216 l 1.436059,0"
         style="fill:#eb7239;fill-opacity:1"
         id="path3053" />
      <path
         d="m 59.813703,51.550185 0,1.666666 1.933962,0 0,1.341719 -1.933962,0 0,2.489518 c -3e-6,0.272539 0.05416,0.457724 0.162473,0.555556 0.108313,0.09434 0.323198,0.14151 0.644654,0.141509 l 0.964361,0 0,1.341719 -1.609015,0 c -0.740743,0 -1.266598,-0.153738 -1.577568,-0.461216 -0.307478,-0.31097 -0.461217,-0.836826 -0.461216,-1.577568 l 0,-2.489518 -0.932914,0 0,-1.341719 0.932914,0 0,-1.666666 1.876311,0"
         style="fill:#eb7239;fill-opacity:1"
         id="path3055" />
    </g>
    <g
       transform="matrix(1.6030804,0.0332426,0.03471218,-1.5352121,-381.69846,846.97503)"
       style="fill:#000000;fill-opacity:1;stroke:#000000;stroke-width:0.39928606;stroke-miterlimit:4;stroke-opacity:1;stroke-dasharray:none;display:inline"
       id="g2891-9-4-3-4">
      <path
         style="fill:#000000;fill-opacity:1;stroke:#000000;stroke-width:4.94435215;stroke-miterlimit:4;stroke-opacity:1;stroke-dasharray:none"
         d="m 674.375,-578.53125 c -2.88874,0.13382 -4.02185,1.21162 -0.4375,3.8125 16.75952,7.72369 34.50437,14.0216 49.5625,24.6875 33.69135,23.86404 55.37724,58.45628 66.46875,98.4375 6.4711,23.32625 5.50182,37.53462 9.3125,61 2.49985,14.10302 9.6008,32.64797 17.25,48.46875 10.34609,25.13897 26.03497,48.36096 41.8125,65.125 17.45317,17.33638 45.94157,36.88089 88.125,47.84375 17.51897,3.93804 27.59779,5.58745 32.28125,5.5 6.82876,1.83509 14.46693,2.06633 8.3125,-2.84375 -17.50502,-9.04305 -39.44068,-17.05625 -51.65625,-28.6875 -30.08055,-28.64143 -51.26922,-62.9643 -61.4375,-106.0625 -3.8576,-16.35056 -5.76057,-32.23727 -7.25,-45.90625 0.44893,-11.80125 1.76861,-24.10565 3.71875,-37.25 2.21078,-17.66517 14.05408,-32.18976 25.125,-43.34375 10.24538,-6.90474 18.86015,-9.99947 26.46875,-8.375 11.36409,2.56284 36.38452,7.96249 50.34375,8.34375 5.66185,-12.76922 -6.62196,-30.22377 -21.375,-42.15625 26.01322,-13.31492 50.7253,-19.35509 64.125,-23.34375 10.5249,-3.23303 -18.05733,-0.9422 -32.625,1.5 -19.55453,2.83292 -37.31898,4.61888 -54.8125,8.71875 -13.42363,-6.6494 -27.18496,-8.56114 -40.21875,-7.125 -7.20259,0.1264 -15.61695,1.66179 -21.65625,4.0625 -17.28316,6.75404 -36.20675,22.02737 -42.5625,36.5 -0.96011,1.43594 -1.96534,3.43123 -3,5.75 -5.17922,-8.28599 -11.05274,-15.78098 -17.40625,-22.03125 -30.81145,-30.79903 -73.31665,-36.0387 -115.03125,-49.71875 -3.10645,-1.69535 -9.72341,-3.0783 -13.4375,-2.90625 z M 889.25,-549.625 c 7.40203,0.003 13.28548,1.62505 13.5625,5.5 3.07504,8.29747 -15.17482,15.98417 -24.53125,18.59375 -11.46641,3.02402 -24.78893,11.34632 -33.21875,19.0625 -9.47256,6.82698 -20.87876,23.91281 -25.5625,34.3125 -17.58852,31.33288 -4.02166,-24.00528 4.5625,-36.84375 6.35575,-14.47263 25.27934,-29.77721 42.5625,-36.53125 6.30796,-2.50751 15.22297,-4.09641 22.625,-4.09375 z"
         transform="matrix(0.07900954,0.00171083,0.00178646,-0.08250237,179.0648,504.56302)"
         id="path2893-7-8-3-8"
         inkscape:connector-curvature="0" />
    </g>
  </g>
</svg>
