<?xml version="1.0" encoding="utf-8"?>
<!-- Generator: Adobe Illustrator 19.2.1, SVG Export Plug-In . SVG Version: 6.00 Build 0)  -->
<svg version="1.1" id="layer" xmlns="http://www.w3.org/2000/svg" xmlns:xlink="http://www.w3.org/1999/xlink" x="0px" y="0px"
	 viewBox="0 0 652 652" style="enable-background:new 0 0 652 652;" xml:space="preserve">
<style type="text/css">
	.st0{fill:#2AA8E0;}
	.st1{fill:#064D9D;}
</style>
<g>
	<path class="st0" d="M2.2,460.2l228.8,0l1.2-19.9C133.9,442.7,52.1,450.6,2.2,460.2"/>
	<path class="st1" d="M618.8,475.7L604.4,495l15.4,22.2h-9l-14-22.1l13.5-19.4H618.8 M596.7,517.2h-7v-41.5h7V517.2z M561,481.3
		v13.1h3.5c3.6,0,5.5-0.5,6.8-1.7c1.1-1.1,1.9-2.9,1.9-5c0-4.2-2.3-6.4-8.4-6.4H561z M574.4,517.2l-3.6-6.4c-2.9-5.1-4.8-8-7.1-10.2
		c-0.8-0.8-1.4-1.2-2.7-1.3v17.9h-6.8v-41.5h12.6c9.3,0,13.5,5.4,13.5,11.9c0,5.9-3.8,11.4-10.3,11.4c1.5,0.8,4.3,4.8,6.4,8.3
		l6.1,10H574.4z M538.1,497c0-10.1-2.1-16.5-9.5-16.5c-7,0-9.6,5.6-9.6,15.6c0,10.7,2.7,16.6,9.8,16.6
		C534.9,512.7,538.1,508.1,538.1,497 M511.3,496.5c0-13.7,7-21.4,17.3-21.4c11.7,0,17.3,9.3,17.3,21.4c0,12.9-6.2,21.3-17,21.3
		C517.1,517.9,511.3,508.8,511.3,496.5 M498.9,517.5H491l-4.3-19.3c-1.4-6.2-2-12-2-12h-0.2c0,0-1.1,6.8-2.1,11.8l-4,19.4h-8.1
		l-9.9-41.7h7.4l4.1,19.3c1.4,6.7,2.2,13.3,2.2,13.3h0.2c0,0,1.2-7.8,2.3-12.8l4.3-19.8h7.8l4.3,20.6c1,4.9,2,11.7,2,11.7h0.2
		c0,0,1.4-8.8,2.4-13.5l4-18.8h7.2L498.9,517.5z M433,517.2v-41.5h23l-0.9,5.6h-15.2v11.3h12.8v5.7H440v13h16.6v5.9H433z
		 M416.6,517.2l-1.9-25.7c-0.2-2.6-0.3-5.8-0.3-7c-0.3,1.4-0.8,3.8-1.6,6.5l-7.6,26.3h-5.9l-6.9-25.1c-0.8-2.8-1.6-6.3-1.8-7.7
		c0,1.4-0.2,5.2-0.4,7.7l-1.8,25.1h-6.8l3.8-41.5h9.2l6.3,23.5c1,3.5,1.3,5.6,1.6,6.9c0.2-1.3,0.7-3.9,1.5-6.8l6.5-23.6h9.2
		l3.7,41.5H416.6z M360.3,482.9L360.3,482.9c-0.1,0-4.3,14.9-5.3,17.7h10.2C364.8,499.7,360.6,484.5,360.3,482.9 M370.2,517.2
		l-3.4-10.9h-13.4l-3.4,10.9h-7.1l13.6-41.6h8l13.2,41.6H370.2z M319.7,481.3v13.1h3.5c3.6,0,5.5-0.5,6.8-1.7c1.1-1.1,1.9-2.9,1.9-5
		c0-4.2-2.3-6.4-8.4-6.4H319.7z M333,517.2l-3.6-6.4c-2.9-5.1-4.8-8-7.1-10.2c-0.8-0.8-1.4-1.2-2.7-1.3v17.9h-6.8v-41.5h12.7
		c9.3,0,13.5,5.4,13.5,11.9c0,5.9-3.8,11.4-10.3,11.4c1.5,0.8,4.3,4.8,6.4,8.3l6.1,10H333z M305.7,481.4h-14.2v11.3h11.6v5.6h-11.6
		v19h-6.9v-41.5h22L305.7,481.4z M253.6,517.2V498h-14.2v19.2h-6.8v-41.5h6.8v16.7h14.2v-16.7h7v41.5H253.6z M225.9,481.5h-10.4
		v35.8h-6.9v-35.8H198v-5.7h28.7L225.9,481.5z M184.2,517.2l-9.3-19.5c-2.2-4.6-4.5-9.8-5.3-12.3l-0.2,0.2c0.3,3.5,0.3,7.8,0.4,11.5
		l0.2,20.1h-6.8v-41.5h7.8l10.1,20.3c1.9,3.8,3.7,8.8,4.3,10.7l0.2-0.2c-0.2-2.1-0.6-8-0.6-11.8l-0.1-19h6.5v41.5H184.2z
		 M131.2,517.2v-41.5h23l-0.9,5.6h-15.2v11.3h12.8v5.7h-12.6v13h16.6v5.9H131.2z M111.5,517.4h-6.4l-14-41.7h7.6l7.5,23.5
		c1.7,5.3,2.2,8.3,2.2,8.3h0.1c0,0,0.5-2.5,2.5-8.7l7.6-23.1h7.2L111.5,517.4z M64.8,517.2v-41.5h23l-0.9,5.6H71.7v11.3h12.8v5.7
		H71.8v13h16.6v5.9H64.8z M40,518c-4.7,0-9.5-1.3-13.6-3.7L29,509c3.7,2.2,7,3.4,11.2,3.4c5.1,0,8.2-2.5,8.2-6.6
		c0-3.1-1.9-5-6.2-6.2l-4.4-1.3c-3.8-1.1-6.5-2.6-8-5c-1.1-1.7-1.7-3.7-1.7-6.1c0-7.3,5.8-12.3,14.1-12.3c4.7,0,9.5,1.4,13.1,4
		l-3.1,4.9c-3.8-2.3-6.5-3.2-9.8-3.2c-4.1,0-6.8,2.2-6.8,5.7c0,2.6,1.4,3.9,5.5,5.1l4.9,1.4c6,1.7,10.2,5.6,10.2,11.8
		C56.2,511.6,50.6,518,40,518"/>
	<path class="st1" d="M470.4,571.8v-41.5h23l-0.9,5.6h-15.2v11.3h12.8v5.7h-12.7v13H494v5.9H470.4 M454,571.8l-1.9-25.7
		c-0.2-2.6-0.3-5.8-0.3-7c-0.3,1.4-0.8,3.8-1.6,6.5l-7.5,26.3h-5.9l-6.9-25.1c-0.8-2.8-1.5-6.3-1.8-7.7c0,1.4-0.2,5.1-0.4,7.7
		l-1.8,25.1h-6.8l3.8-41.5h9.2l6.4,23.5c1,3.5,1.3,5.6,1.6,6.9c0.2-1.3,0.7-3.9,1.5-6.8l6.5-23.6h9.2l3.7,41.5H454z M404.6,571.8
		l-1.9-25.7c-0.2-2.6-0.3-5.8-0.3-7c-0.3,1.4-0.8,3.8-1.6,6.5l-7.5,26.3h-5.9l-6.9-25.1c-0.8-2.8-1.6-6.3-1.8-7.7
		c0,1.4-0.2,5.1-0.4,7.7l-1.8,25.1h-6.8l3.8-41.5h9.2l6.4,23.5c1,3.5,1.3,5.6,1.6,6.9c0.2-1.3,0.7-3.9,1.5-6.8l6.5-23.6h9.2
		l3.7,41.5H404.6z M348.3,537.4L348.3,537.4c-0.1,0-4.3,14.9-5.3,17.7h10.2C352.8,554.2,348.6,539,348.3,537.4 M358.1,571.8
		l-3.4-10.9h-13.4l-3.4,10.9h-7.1l13.6-41.6h8l13.2,41.6H358.1z M307.6,535.8V549h3.5c3.6,0,5.5-0.5,6.8-1.7c1.1-1.1,1.9-2.9,1.9-5
		c0-4.2-2.3-6.4-8.4-6.4H307.6z M321,571.8l-3.6-6.4c-2.9-5.1-4.8-8-7.1-10.2c-0.8-0.8-1.4-1.2-2.7-1.3v17.9h-6.8v-41.5h12.7
		c9.3,0,13.5,5.4,13.5,11.9c0,5.9-3.9,11.4-10.3,11.4c1.5,0.8,4.3,4.8,6.4,8.3l6.1,10H321z M278,572.3c-5.8,0-10.3-1.9-13.6-5.9
		c-3.2-3.9-4.6-8.6-4.6-15.1c0-8.5,2.6-14.5,7.8-18.4c3-2.3,6.2-3.2,10.2-3.2c4.7,0,8.9,1.4,12.4,4.4l-3.5,4.3
		c-2.9-2.2-5.6-3.2-8.8-3.2c-7.7,0-10.5,6.7-10.5,16.4c0,5.8,1.1,9.9,3.1,12.2c1.7,2,4.7,3.1,7.8,3.1c2.1,0,4-0.5,5.5-1.3v-10.8
		h-7.1l-1-5.6H291v19.6C287.2,571.1,282.6,572.3,278,572.3 M246.1,551.5c0-10.1-2.1-16.5-9.5-16.5c-7,0-9.6,5.6-9.6,15.6
		c0,10.7,2.7,16.6,9.8,16.6C243,567.2,246.1,562.6,246.1,551.5 M219.3,551c0-13.7,7-21.4,17.3-21.4c11.7,0,17.3,9.3,17.3,21.4
		c0,12.9-6.2,21.3-17,21.3C225.2,572.4,219.3,563.3,219.3,551 M194,535.8V549h3.5c3.6,0,5.5-0.5,6.8-1.7c1.1-1.1,1.9-2.9,1.9-5
		c0-4.2-2.3-6.4-8.4-6.4H194z M207.3,571.8l-3.6-6.4c-2.9-5.1-4.8-8-7.1-10.2c-0.8-0.8-1.4-1.2-2.7-1.3v17.9h-6.8v-41.5h12.6
		c9.3,0,13.5,5.4,13.5,11.9c0,5.9-3.8,11.4-10.3,11.4c1.5,0.8,4.2,4.8,6.4,8.3l6.1,10H207.3z M160.3,535.8v14.6h5.4
		c5.1,0,7.5-2.4,7.5-7.3c0-2.3-0.5-4-1.7-5.2c-1.3-1.3-3.1-2-5.8-2H160.3z M167.3,555.9h-7v15.8h-6.8v-41.5h11c6.1,0,8.3,0.6,10.6,2
		c3.7,2.2,5.7,5.9,5.7,10.4C180.7,550.8,174.8,555.9,167.3,555.9"/>
	<path class="st0" d="M369.6,440.3l-1.3,19.9l270.7,0C589.3,450.6,456.4,443,369.6,440.3"/>
	<path class="st0" d="M460.3,88.8l-7.4-16.4c-124.2,86.1-207.4,227.2-214.1,387.7h17.7C263.1,306.7,342.2,171.8,460.3,88.8"/>
	<path class="st0" d="M471.2,113l-7.5-16.6C348.4,178,271.2,310,264.6,460.1h17.9C289.1,317.3,362.1,191.5,471.2,113"/>
	<path class="st0" d="M493.2,161.5l-7.7-17C387.9,217,322.8,331,316.3,460.1h18.3C341,338.4,401.9,230.8,493.2,161.5"/>
	<path class="st0" d="M482.2,137.2l-7.6-16.8C368.1,197.5,297,320.5,290.4,460.1h18.1C315,327.8,381.9,211.2,482.2,137.2"/>
	<path class="st0" d="M496.4,168.6c-88.8,68-147.9,172.9-154.2,291.5h18.5c6.2-111.2,61-209.6,143.5-274.3L496.4,168.6"/>
	<path class="st1" d="M452.9,72.4l-214.3,0v16.3h221.7L452.9,72.4z M463.7,96.3l-225.1,0.1V113l232.7-0.1L463.7,96.3z M496.4,168.6
		l-257.9,0v17.2l265.7,0L496.4,168.6z M485.5,144.5l-246.9,0.1v16.9h254.7L485.5,144.5z M474.6,120.5l-236.1,0v16.7l243.6,0
		L474.6,120.5z"/>
</g>
</svg>
