<svg xmlns="http://www.w3.org/2000/svg" width="100" height="100" viewBox="0 0 100 100">
  <g id="icon-personnes">
    <g>
      <g>
        <g>
          <path d="M18.72,75.64l.64-21.22a1.26,1.26,0,0,0,0-.28c0-.11-2.3-11.47-2.94-14.41a5.82,5.82,0,0,1,1.25-4.67c1.47-1.82,4-2.78,7.35-2.78s5.88,1,7.35,2.78a5.82,5.82,0,0,1,1.25,4.67C33,42.67,30.68,54,30.66,54.14a1.26,1.26,0,0,0,0,.28l.64,21.22Z" fill="#fe7747"/>
          <path d="M25,33.52c2.95,0,5.15.8,6.37,2.31a4.59,4.59,0,0,1,1,3.63c-.63,3-2.84,14-2.94,14.43a2.5,2.5,0,0,0,0,.57L30,74.39H20l.6-19.93a2.5,2.5,0,0,0,0-.57c-.09-.47-2.3-11.48-2.94-14.43a4.59,4.59,0,0,1,1-3.63c1.22-1.51,3.43-2.31,6.37-2.31M25,31h0c-8.72,0-10.45,6-9.82,9s2.93,14.4,2.93,14.4l-.68,22.51H32.57l-.68-22.51S34.18,43,34.82,40s-1.1-9-9.82-9Z" fill="#fff"/>
        </g>
        <polygon points="27.71 81.5 31.62 81.5 31.48 76.89 27.05 76.89 27.71 81.5" fill="#fff" stroke="#fe7747" stroke-linecap="round" stroke-linejoin="round"/>
        <polygon points="22.29 81.5 22.95 76.89 18.52 76.89 18.38 81.5 22.29 81.5" fill="#fff" stroke="#fe7747" stroke-linecap="round" stroke-linejoin="round"/>
        <ellipse cx="25" cy="23.06" rx="6.5" ry="6.56" fill="#fff" stroke="#fe7747" stroke-linecap="round" stroke-linejoin="round"/>
        <path d="M25,76.89h7.57l-.68-22.51S34.18,43,34.82,40s-1.1-9-9.82-9h0c-8.72,0-10.45,6-9.82,9s2.93,14.4,2.93,14.4l-.68,22.51H25" fill="none" stroke="#fe7747" stroke-linecap="round" stroke-linejoin="round"/>
        <polyline points="25 75.5 25 40.81 23.12 36.16 21.24 36.75 22.5 33.55" fill="none" stroke="#fff" stroke-linecap="round" stroke-linejoin="round"/>
        <polyline points="25 40.81 26.88 36.16 28.76 36.75 27.5 33.55" fill="none" stroke="#fff" stroke-linecap="round" stroke-linejoin="round"/>
      </g>
      <g>
        <g>
          <path d="M42.51,70.93l2.65-19.57a1.24,1.24,0,0,0,0-.53c0-.08-2.46-8.22-3.08-11.11a6.14,6.14,0,0,1,1.14-5c1.34-1.66,3.63-2.5,6.82-2.5s5.49.84,6.82,2.5a6.15,6.15,0,0,1,1.14,5c-.62,2.89-3.06,11-3.08,11.11a1.25,1.25,0,0,0,0,.53l2.65,19.57Z" fill="#fe7747"/>
          <path d="M50,33.52c1.92,0,4.5.35,5.85,2a4.85,4.85,0,0,1,.89,3.91c-.61,2.84-3,10.94-3.06,11a2.5,2.5,0,0,0-.08,1.05l2.46,18.15H43.94L46.4,51.53a2.5,2.5,0,0,0-.08-1.05c0-.08-2.45-8.18-3.06-11a4.85,4.85,0,0,1,.89-3.91c1.36-1.68,3.93-2,5.85-2M50,31c-8.72,0-9.82,6-9.18,9s3.1,11.21,3.1,11.21l-2.85,21H58.92l-2.85-21S58.54,43,59.18,40s-.46-9-9.18-9Z" fill="#fff"/>
        </g>
        <ellipse cx="50" cy="23.06" rx="6.5" ry="6.56" fill="#fff" stroke="#fe7747" stroke-linecap="round" stroke-linejoin="round"/>
        <path d="M56.08,51.2S58.54,43,59.18,40s-.46-9-9.18-9-9.82,6-9.18,9,3.1,11.21,3.1,11.21l-2.85,21h3.2l.06,9.32h3l1.81-9.32h1.8l1.81,9.32h3l.06-9.32h3.2Z" fill="none" stroke="#fe7747" stroke-linecap="round" stroke-linejoin="round"/>
        <line x1="50" y1="72.18" x2="43.19" y2="72.18" fill="none" stroke="#fe7747" stroke-linecap="round" stroke-linejoin="round"/>
        <line x1="50" y1="72.18" x2="56.81" y2="72.18" fill="none" stroke="#fe7747" stroke-linecap="round" stroke-linejoin="round"/>
        <polyline points="50 70.67 50 40.81 48.12 36.16 46.24 36.75 47.5 33.55" fill="none" stroke="#fff" stroke-linecap="round" stroke-linejoin="round"/>
        <polyline points="50 40.81 51.88 36.16 53.76 36.75 52.5 33.55" fill="none" stroke="#fff" stroke-linecap="round" stroke-linejoin="round"/>
      </g>
      <g>
        <path d="M68.11,53.38S65.82,43,65.18,40s1.1-9,9.82-9h0c8.72,0,10.45,6,9.82,9s-2.93,13.4-2.93,13.4" fill="#fe7747" stroke="#fff" stroke-linecap="round" stroke-linejoin="round" stroke-width="2.5"/>
        <ellipse cx="75" cy="23.06" rx="6.5" ry="6.56" fill="#fff" stroke="#fe7747" stroke-linecap="round" stroke-linejoin="round"/>
        <path d="M81.89,53.38S84.18,43,84.82,40s-1.1-9-9.82-9h0c-8.72,0-10.45,6-9.82,9s2.93,13.4,2.93,13.4" fill="none" stroke="#fe7747" stroke-linecap="round" stroke-linejoin="round"/>
        <polyline points="75 52.11 75 40.81 73.12 36.16 71.24 36.75 72.5 33.55" fill="none" stroke="#fff" stroke-linecap="round" stroke-linejoin="round"/>
        <polyline points="75 40.81 76.88 36.16 78.76 36.75 77.5 33.55" fill="none" stroke="#fff" stroke-linecap="round" stroke-linejoin="round"/>
        <path d="M68.11,53.38l.26,28.12h3.91l1.9-19.7a.81.81,0,0,1,.81-.74h0a.81.81,0,0,1,.81.74l1.9,19.7h3.91l.26-28.12Z" fill="#fff" stroke="#fe7747" stroke-linecap="round" stroke-linejoin="round"/>
      </g>
    </g>
  </g>
</svg>
