<svg xmlns="http://www.w3.org/2000/svg" width="100" height="100" viewBox="0 0 100 100">
  <g id="icon-projets">
    <g>
      <path d="M85,79a5,5,0,0,0,5-5V21H70L60,28" fill="none" stroke="#5dd99d" stroke-linecap="round" stroke-linejoin="round"/>
      <polyline points="80 31 83.33 31 83.33 78.71" fill="none" stroke="#5dd99d" stroke-linecap="round" stroke-linejoin="round"/>
      <g>
        <path d="M15,77.75A3.75,3.75,0,0,1,11.25,74V29.25h67.5V74A6.22,6.22,0,0,0,80,77.75Z" fill="#5dd99d"/>
        <path d="M77.5,30.5V74a7.47,7.47,0,0,0,.43,2.5H15A2.5,2.5,0,0,1,12.5,74V30.5h65M80,28H10V74a5,5,0,0,0,5,5H85a5,5,0,0,1-5-5V28Z" fill="#fff"/>
      </g>
      <rect x="19" y="38" width="25" height="7" fill="#fff" stroke="#5dd99d" stroke-linecap="round" stroke-linejoin="round"/>
      <polyline points="83 31 86.33 31 86.33 78.71" fill="none" stroke="#5dd99d" stroke-linecap="round" stroke-linejoin="round"/>
      <path d="M85,79a5,5,0,0,1-5-5V28H10V74a5,5,0,0,0,5,5Z" fill="none" stroke="#5dd99d" stroke-linecap="round" stroke-linejoin="round"/>
    </g>
  </g>
</svg>
