<svg id="icon-entites" xmlns="http://www.w3.org/2000/svg" width="80px" height="80px" viewBox="0 0 100 130">
  <g>
    <rect x="41.5" y="22.98" width="34" height="57" fill="#fff" stroke="#ebc034" stroke-linecap="round" stroke-linejoin="round"/>
    <g>
      <rect x="35.75" y="24.23" width="28.5" height="54.5" fill="#ebc034"/>
      <path d="M63,25.48v52H37v-52H63M65.5,23h-31V80h31V23Z" fill="#fff"/>
    </g>
    <rect x="34.5" y="22.98" width="31" height="57" fill="none" stroke="#ebc034" stroke-linecap="round" stroke-linejoin="round"/>
    <rect x="33.5" y="20.02" width="32" height="3" fill="#fff" stroke="#ebc034" stroke-linecap="round" stroke-linejoin="round"/>
    <rect x="65.5" y="20.02" width="11" height="3" fill="#fff" stroke="#ebc034" stroke-linecap="round" stroke-linejoin="round"/>
    <rect x="14" y="53.48" width="21" height="32" transform="translate(-44.98 93.98) rotate(-90)" fill="#fff" stroke="#ebc034" stroke-linecap="round" stroke-linejoin="round"/>
    <g>
      <rect x="5.75" y="60.23" width="29.5" height="18.5" fill="#ebc034"/>
      <path d="M34,61.48v16H7v-16H34M36.5,59H4.5V80h32V59Z" fill="#fff"/>
    </g>
    <rect x="10" y="53.48" width="21" height="32" transform="translate(-48.98 89.98) rotate(-90)" fill="none" stroke="#ebc034" stroke-linecap="round" stroke-linejoin="round"/>
    <rect x="17.5" y="39.98" width="5" height="33" transform="translate(-36.48 76.48) rotate(-90)" fill="#fff" stroke="#ebc034" stroke-linecap="round" stroke-linejoin="round"/>
    <rect x="36.5" y="53.98" width="5" height="5" transform="translate(-17.48 95.48) rotate(-90)" fill="#fff" stroke="#ebc034" stroke-linecap="round" stroke-linejoin="round"/>
    <rect x="8.5" y="71.02" width="5" height="5" fill="#fff" stroke="#ebc034" stroke-linecap="round" stroke-linejoin="round"/>
    <rect x="47.5" y="71.02" width="5" height="5" fill="#fff" stroke="#ebc034" stroke-linecap="round" stroke-linejoin="round"/>
    <rect x="55.5" y="71.02" width="5" height="5" fill="#fff" stroke="#ebc034" stroke-linecap="round" stroke-linejoin="round"/>
    <rect x="47.5" y="63.02" width="5" height="5" fill="#fff" stroke="#ebc034" stroke-linecap="round" stroke-linejoin="round"/>
    <rect x="55.5" y="63.02" width="5" height="5" fill="#fff" stroke="#ebc034" stroke-linecap="round" stroke-linejoin="round"/>
    <rect x="76.5" y="50.98" width="19" height="29" fill="#fff" stroke="#ebc034" stroke-linecap="round" stroke-linejoin="round"/>
    <g>
      <rect x="70.75" y="52.23" width="18.5" height="26.5" fill="#ebc034"/>
      <path d="M88,53.48v24H72v-24H88M90.5,51h-21V80h21V51Z" fill="#fff"/>
    </g>
    <rect x="69.5" y="50.98" width="21" height="29" fill="none" stroke="#ebc034" stroke-linecap="round" stroke-linejoin="round"/>
    <rect x="68.5" y="46.98" width="22" height="4" fill="#fff" stroke="#ebc034" stroke-linecap="round" stroke-linejoin="round"/>
    <rect x="90.5" y="46.98" width="6" height="4" transform="translate(187 97.96) rotate(180)" fill="#fff" stroke="#ebc034" stroke-linecap="round" stroke-linejoin="round"/>
    <rect x="73.5" y="54.98" width="5" height="5" transform="translate(133.48 -18.52) rotate(90)" fill="#fff" stroke="#ebc034" stroke-linecap="round" stroke-linejoin="round"/>
    <rect x="73.5" y="62.98" width="5" height="5" transform="translate(141.48 -10.52) rotate(90)" fill="#fff" stroke="#ebc034" stroke-linecap="round" stroke-linejoin="round"/>
    <rect x="73.5" y="70.98" width="5" height="5" transform="translate(149.48 -2.52) rotate(90)" fill="#fff" stroke="#ebc034" stroke-linecap="round" stroke-linejoin="round"/>
    <rect x="81.5" y="54.98" width="5" height="5" transform="translate(141.48 -26.52) rotate(90)" fill="#fff" stroke="#ebc034" stroke-linecap="round" stroke-linejoin="round"/>
    <rect x="81.5" y="62.98" width="5" height="5" transform="translate(149.48 -18.52) rotate(90)" fill="#fff" stroke="#ebc034" stroke-linecap="round" stroke-linejoin="round"/>
    <rect x="81.5" y="70.98" width="5" height="5" transform="translate(157.48 -10.52) rotate(90)" fill="#fff" stroke="#ebc034" stroke-linecap="round" stroke-linejoin="round"/>
    <rect x="47.5" y="53.02" width="5" height="5" fill="#fff" stroke="#ebc034" stroke-linecap="round" stroke-linejoin="round"/>
    <rect x="55.5" y="53.02" width="5" height="5" fill="#fff" stroke="#ebc034" stroke-linecap="round" stroke-linejoin="round"/>
    <rect x="39.5" y="45.02" width="5" height="5" fill="#fff" stroke="#ebc034" stroke-linecap="round" stroke-linejoin="round"/>
    <rect x="47.5" y="45.02" width="5" height="5" fill="#fff" stroke="#ebc034" stroke-linecap="round" stroke-linejoin="round"/>
    <rect x="55.5" y="45.02" width="5" height="5" fill="#fff" stroke="#ebc034" stroke-linecap="round" stroke-linejoin="round"/>
    <rect x="39.5" y="37.02" width="5" height="5" fill="#fff" stroke="#ebc034" stroke-linecap="round" stroke-linejoin="round"/>
    <rect x="47.5" y="37.02" width="5" height="5" fill="#fff" stroke="#ebc034" stroke-linecap="round" stroke-linejoin="round"/>
    <rect x="55.5" y="37.02" width="5" height="5" fill="#fff" stroke="#ebc034" stroke-linecap="round" stroke-linejoin="round"/>
    <rect x="39.5" y="29.02" width="5" height="5" fill="#fff" stroke="#ebc034" stroke-linecap="round" stroke-linejoin="round"/>
    <rect x="47.5" y="29.02" width="5" height="5" fill="#fff" stroke="#ebc034" stroke-linecap="round" stroke-linejoin="round"/>
    <rect x="55.5" y="29.02" width="5" height="5" fill="#fff" stroke="#ebc034" stroke-linecap="round" stroke-linejoin="round"/>
    <rect x="16.5" y="71.02" width="15" height="5" fill="#fff" stroke="#ebc034" stroke-linecap="round" stroke-linejoin="round"/>
    <rect x="8.5" y="63.02" width="23" height="5" fill="#fff" stroke="#ebc034" stroke-linecap="round" stroke-linejoin="round"/>
  </g>
</svg>
