<svg id="icon-rotation-compatibility" xmlns="http://www.w3.org/2000/svg" width="400" height="200" viewBox="0 0 400 200">
  <g>
    <g>
      <g>
        <g>
          <polygon points="289.64 150.75 298.6 129.25 318.93 129.25 327.89 150.75 289.64 150.75" fill="#fff"/>
          <path d="M318.1,130.5l7.92,19h-34.5l7.92-19H318.1m1.67-2.5h-22l-10,24h42l-10-24Z" fill="#003259"/>
        </g>
        <g>
          <rect x="242.86" y="47.25" width="132.5" height="82.5" rx="3.75" ry="3.75" fill="#fff"/>
          <path d="M371.61,48.5a2.5,2.5,0,0,1,2.5,2.5v75a2.5,2.5,0,0,1-2.5,2.5h-125a2.5,2.5,0,0,1-2.5-2.5V51a2.5,2.5,0,0,1,2.5-2.5h125m0-2.5h-125a5,5,0,0,0-5,5v75a5,5,0,0,0,5,5h125a5,5,0,0,0,5-5V51a5,5,0,0,0-5-5Z" fill="#003259"/>
        </g>
        <g>
          <rect x="250.36" y="54.75" width="117.5" height="64.5" fill="#003259"/>
          <path d="M366.61,56v62h-115V56h115m2.5-2.5h-120v67h120v-67Z" fill="#fff"/>
        </g>
        <rect x="282.11" y="147" width="54" height="5" rx="2.5" ry="2.5" fill="#003259"/>
      </g>
      <path d="M322.95,96.5a16.17,16.17,0,0,1-5.84,5.84,15.89,15.89,0,0,1-16,0,16.17,16.17,0,0,1-5.84-5.84,15.89,15.89,0,0,1,0-16,16.17,16.17,0,0,1,5.84-5.84,15.89,15.89,0,0,1,16,0,16.17,16.17,0,0,1,5.84,5.84,15.89,15.89,0,0,1,0,16Zm-3.84-11.42a.94.94,0,0,0,0-1.42l-1.42-1.48a1,1,0,0,0-1.48,0l-9.68,9.68L302,87.34a1,1,0,0,0-1.48,0l-1.42,1.48a.94.94,0,0,0,0,1.42L305.82,97a.94.94,0,0,0,1.42,0Z" fill="#fff"/>
    </g>
    <g>
      <g>
        <g>
          <g>
            <rect x="111" y="41.25" width="73.5" height="109.5" rx="3.75" ry="3.75" fill="#fff"/>
            <path d="M180.75,42.5a2.5,2.5,0,0,1,2.5,2.5V147a2.5,2.5,0,0,1-2.5,2.5h-66a2.5,2.5,0,0,1-2.5-2.5V45a2.5,2.5,0,0,1,2.5-2.5h66m0-2.5h-66a5,5,0,0,0-5,5V147a5,5,0,0,0,5,5h66a5,5,0,0,0,5-5V45a5,5,0,0,0-5-5Z" fill="#9bbbdd"/>
          </g>
          <g>
            <rect x="116.5" y="47.25" width="62.5" height="87.5" fill="#9bbbdd"/>
            <path d="M177.75,48.5v85h-60v-85h60m1.5-2.5h-63a1,1,0,0,0-1,1v88a1,1,0,0,0,1,1h63a1,1,0,0,0,1-1V47a1,1,0,0,0-1-1Z" fill="#fff"/>
          </g>
        </g>
        <circle cx="147.75" cy="141.33" r="3.5" fill="#fff" stroke="#9bbbdd" stroke-linecap="round" stroke-linejoin="round" stroke-width="2.5"/>
      </g>
      <g>
        <g>
          <g>
            <rect x="167" y="101.25" width="109.5" height="73.5" rx="3.75" ry="3.75" fill="#fff"/>
            <path d="M272.75,102.5a2.5,2.5,0,0,1,2.5,2.5v66a2.5,2.5,0,0,1-2.5,2.5h-102a2.5,2.5,0,0,1-2.5-2.5V105a2.5,2.5,0,0,1,2.5-2.5h102m0-2.5h-102a5,5,0,0,0-5,5v66a5,5,0,0,0,5,5h102a5,5,0,0,0,5-5V105a5,5,0,0,0-5-5Z" fill="#003259"/>
          </g>
          <g>
            <rect x="183" y="106.75" width="87.5" height="62.5" fill="#003259"/>
            <path d="M269.25,108v60h-85V108h85m1.5-2.5h-88a1,1,0,0,0-1,1v63a1,1,0,0,0,1,1h88a1,1,0,0,0,1-1v-63a1,1,0,0,0-1-1Z" fill="#fff"/>
          </g>
          <path d="M240.59,144.65a16.17,16.17,0,0,1-5.84,5.84,15.89,15.89,0,0,1-16,0,16.17,16.17,0,0,1-5.84-5.84,15.89,15.89,0,0,1,0-16,16.17,16.17,0,0,1,5.84-5.84,15.89,15.89,0,0,1,16,0,16.17,16.17,0,0,1,5.84,5.84,15.89,15.89,0,0,1,0,16Zm-3.84-11.42a.94.94,0,0,0,0-1.42l-1.42-1.48a1,1,0,0,0-1.48,0L224.17,140l-4.52-4.52a1,1,0,0,0-1.48,0L216.75,137a.94.94,0,0,0,0,1.42l6.71,6.71a.94.94,0,0,0,1.42,0Z" fill="#fff"/>
        </g>
        <circle cx="176.42" cy="138" r="3.5" fill="#fff" stroke="#003259" stroke-linecap="round" stroke-linejoin="round" stroke-width="2.5"/>
      </g>
      <g>
        <path d="M201.12,126.26v-26A28.06,28.06,0,0,0,173.06,72.2h-20" fill="none" stroke="#119fd4" stroke-miterlimit="10" stroke-width="5"/>
        <polyline points="212.62 114.76 201.12 126.26 189.62 114.76" fill="none" stroke="#119fd4" stroke-miterlimit="10" stroke-width="5"/>
      </g>
    </g>
    <g>
      <g>
        <g>
          <path d="M34.64,164.75V115a3.75,3.75,0,0,1,3.75-3.75h80a3.75,3.75,0,0,1,3.75,3.75v49.75Z" fill="#fff"/>
          <path d="M118.39,112.5a2.5,2.5,0,0,1,2.5,2.5v48.5h-85V115a2.5,2.5,0,0,1,2.5-2.5h80m0-2.5h-80a5,5,0,0,0-5,5v51h90V115a5,5,0,0,0-5-5Z" fill="#003259"/>
        </g>
        <g>
          <rect x="39.64" y="116.25" width="77.5" height="41.5" fill="#003259"/>
          <path d="M115.89,117.5v39h-75v-39h75m2.5-2.5h-80v44h80V115Z" fill="#fff"/>
        </g>
        <g>
          <path d="M32.39,170.75a7.76,7.76,0,0,1-7.65-6.5H132a7.76,7.76,0,0,1-7.65,6.5Z" fill="#fff"/>
          <path d="M130.39,165.5a6.51,6.51,0,0,1-6,4h-92a6.51,6.51,0,0,1-6-4h104m3-2.5h-110a9,9,0,0,0,9,9h92a9,9,0,0,0,9-9Z" fill="#003259"/>
        </g>
      </g>
      <path d="M87.91,143.5a11.11,11.11,0,0,1-4,4,10.92,10.92,0,0,1-11,0,11.11,11.11,0,0,1-4-4,10.92,10.92,0,0,1,0-11,11.11,11.11,0,0,1,4-4,10.92,10.92,0,0,1,11,0,11.11,11.11,0,0,1,4,4,10.92,10.92,0,0,1,0,11Zm-2.64-7.85a.65.65,0,0,0,0-1l-1-1a.7.7,0,0,0-1,0l-6.65,6.65-3.1-3.1a.7.7,0,0,0-1,0l-1,1a.65.65,0,0,0,0,1l4.61,4.61a.65.65,0,0,0,1,0Z" fill="#fff"/>
    </g>
    <g>
      <g>
        <g>
          <g>
            <rect x="54.83" y="25.25" width="43.5" height="69.5" rx="3.75" ry="3.75" fill="#fff"/>
            <path d="M94.58,26.5a2.5,2.5,0,0,1,2.5,2.5V91a2.5,2.5,0,0,1-2.5,2.5h-36a2.5,2.5,0,0,1-2.5-2.5V29a2.5,2.5,0,0,1,2.5-2.5h36m0-2.5h-36a5,5,0,0,0-5,5V91a5,5,0,0,0,5,5h36a5,5,0,0,0,5-5V29a5,5,0,0,0-5-5Z" fill="#003259"/>
          </g>
          <g>
            <rect x="60.33" y="31.25" width="32.5" height="47.5" fill="#003259"/>
            <path d="M91.58,32.5v45h-30v-45h30m1.5-2.5h-33a1,1,0,0,0-1,1V79a1,1,0,0,0,1,1h33a1,1,0,0,0,1-1V31a1,1,0,0,0-1-1Z" fill="#fff"/>
          </g>
        </g>
        <circle cx="76.58" cy="85.33" r="3.5" fill="#fff" stroke="#003259" stroke-linecap="round" stroke-linejoin="round" stroke-width="2.5"/>
      </g>
      <path d="M85.23,59.72a10.1,10.1,0,0,1-3.65,3.65,9.93,9.93,0,0,1-10,0,10.1,10.1,0,0,1-3.65-3.65,9.93,9.93,0,0,1,0-10,10.1,10.1,0,0,1,3.65-3.65,9.93,9.93,0,0,1,10,0,10.1,10.1,0,0,1,3.65,3.65,9.93,9.93,0,0,1,0,10Zm-2.4-7.14a.59.59,0,0,0,0-.89l-.89-.93a.63.63,0,0,0-.93,0l-6,6L72.15,54a.63.63,0,0,0-.93,0l-.89.93a.59.59,0,0,0,0,.89L74.53,60a.59.59,0,0,0,.89,0Z" fill="#fff"/>
    </g>
  </g>
</svg>
