<svg xmlns="http://www.w3.org/2000/svg" width="100" height="100" viewBox="0 0 100 100">
  <g id="icon-productions">
    <g>
      <rect x="28" y="19" width="50" height="62" fill="#fff" stroke="#cc3d8f" stroke-linecap="round" stroke-linejoin="round"/>
      <rect x="25" y="19" width="50" height="62" fill="#fff" stroke="#cc3d8f" stroke-linecap="round" stroke-linejoin="round"/>
      <g>
        <rect x="23.25" y="20.25" width="47.5" height="59.5" fill="#cc3d8f"/>
        <path d="M69.5,21.5v57h-45v-57h45M72,19H22V81H72V19Z" fill="#fff"/>
      </g>
      <rect x="22" y="19" width="50" height="62" fill="none" stroke="#cc3d8f" stroke-linecap="round" stroke-linejoin="round"/>
      <rect x="62" y="19" width="10" height="10" fill="#fff" stroke="#cc3d8f" stroke-linecap="round" stroke-linejoin="round"/>
      <polyline points="72 29 62 29 62 19" fill="#fff" stroke="#cc3d8f" stroke-linecap="round" stroke-linejoin="round"/>
      <line x1="62" y1="19" x2="72" y2="29" fill="none" stroke="#cc3d8f" stroke-linecap="round" stroke-linejoin="round"/>
      <rect x="28.5" y="30" width="25" height="6" fill="#fff" stroke="#cc3d8f" stroke-linecap="round" stroke-linejoin="round"/>
      <rect x="28.5" y="41" width="35" height="4" fill="#fff" stroke="#cc3d8f" stroke-linecap="round" stroke-linejoin="round"/>
      <rect x="28.5" y="49" width="35" height="4" fill="#fff" stroke="#cc3d8f" stroke-linecap="round" stroke-linejoin="round"/>
      <rect x="28.5" y="57" width="35" height="4" fill="#fff" stroke="#cc3d8f" stroke-linecap="round" stroke-linejoin="round"/>
      <rect x="28.5" y="65" width="35" height="4" fill="#fff" stroke="#cc3d8f" stroke-linecap="round" stroke-linejoin="round"/>
    </g>
  </g>
</svg>
